<svg width="128" height="14" viewBox="0 0 128 14" fill="none" xmlns="http://www.w3.org/2000/svg">
<path d="M45.0563 6.79138C46.059 6.79138 46.7993 6.65821 47.3429 6.33862C48.1019 5.88586 48.4299 5.14902 48.4299 4.19911C48.4299 3.17819 48.0363 2.51237 47.4272 2.11287C46.8837 1.75777 46.1246 1.59797 44.9907 1.59797H43.6787V13.7603H41.4484V0.284084H45.3562C46.8368 0.284084 48.0551 0.435003 49.0953 1.04756C50.7071 2.03297 50.7446 3.58656 50.7446 3.95054C50.7446 5.63729 49.77 6.90679 48.0457 7.4572C47.8864 7.51046 47.7177 7.55485 47.5396 7.59036L52.1127 13.7692H49.5732L44.5315 6.80025H45.0563V6.79138ZM3.59851 6.79138C4.60122 6.79138 5.34153 6.65821 5.88506 6.33862C6.64412 5.88586 6.97211 5.14902 6.97211 4.19911C6.97211 3.17819 6.57852 2.51237 5.9694 2.11287C5.42587 1.75777 4.66681 1.59797 3.53291 1.59797H2.22095V13.7603H0V0.284084H3.90775C5.38839 0.284084 6.60663 0.435003 7.6562 1.04756C9.26803 2.03297 9.31488 3.58656 9.31488 3.95054C9.31488 5.63729 8.33092 6.90679 6.616 7.4572C6.46607 7.51046 6.28802 7.55485 6.11934 7.59036L10.6831 13.7603H8.1435L3.10184 6.79138H3.59851ZM12.3605 0.284084H14.6002V13.7603H12.3605V0.284084ZM29.1067 0.284084L23.7464 13.7603H21.9471L16.5119 0.284084H18.9671L23.1748 10.9195L27.3168 0.284084H29.1067ZM33.0519 12.4375H39.5273V13.7603H30.8122V0.284084H39.0213V1.59797H33.0613V6.07229H38.787V7.39505H33.0613V12.4375H33.0519ZM61.4839 0.284084H63.7236V13.7603H61.4839V0.284084ZM71.1923 0C72.4106 0 73.6944 0.248573 74.8658 0.710209V2.48573C73.5445 1.76665 72.1576 1.38491 71.0237 1.38491C69.5992 1.38491 68.559 2.00634 68.559 3.14268C68.559 6.13443 75.8217 5.61065 75.8217 10.1116C75.8217 12.2689 74.1349 14 70.6957 14C69.1963 14 67.7063 13.6804 66.5068 13.1034V11.1858C67.4907 12.0025 69.2806 12.6062 70.855 12.6062C72.5137 12.6062 73.8162 11.9226 73.8162 10.5555C73.8162 7.35067 66.5443 7.94547 66.5443 3.47115C66.5443 1.04756 68.6809 0 71.1923 0V0ZM80.629 0.284084V12.4375H86.739L86.2048 13.7603H78.3893V0.284084H80.629ZM100.571 13.7603H98.1155L96.663 10.2004H90.8154L89.3817 13.7603H87.5918L93.1395 0.284084H94.9387L100.571 13.7603ZM91.3496 8.86874H96.1289L93.7111 2.93849L91.3496 8.86874ZM113.615 0.284084V13.7603H112.116L103.963 3.68421V13.7603H102.258V0.284084H104.047L111.91 9.98732V0.284084H113.615ZM125.892 12.2422C124.626 13.2632 122.771 13.7603 120.55 13.7603H116.174V0.284084H120.55C122.771 0.284084 124.626 0.763475 125.892 1.7844C127.316 2.95625 128 4.79391 128 7.01332C128 9.23272 127.316 11.0704 125.892 12.2422ZM123.586 2.43247C122.705 1.89981 121.562 1.63348 119.828 1.63348H118.423V12.3932H119.828C121.412 12.3932 122.668 12.1623 123.586 11.5942C124.992 10.7419 125.657 9.12619 125.657 6.98668C125.657 4.85606 124.992 3.28472 123.586 2.43247Z" fill="#111"/>
</svg>
