<svg width="43" height="24" viewBox="0 0 43 24" fill="none" xmlns="http://www.w3.org/2000/svg">
<rect width="42.4615" height="24" fill="#006FCF"/>
<path d="M34.1231 10.5284H36.6694V4.61572H33.8984V5.43901L33.3741 4.61572H30.9776V5.66354L30.5282 4.61572H26.1096C25.9599 4.61572 25.8101 4.69057 25.6603 4.69057C25.5105 4.69057 25.4356 4.76541 25.2858 4.84026C25.136 4.9151 25.0612 4.9151 24.9114 4.98994V4.61572H12.2547L11.8802 5.5887L11.5058 4.61572H8.51009V5.66354L8.06074 4.61572H5.66421L4.61572 7.16042V10.5284H6.33823L6.6378 9.70512H7.23693L7.5365 10.5284H20.7174V9.77996L21.2417 10.5284H24.9114V10.0793C24.9863 10.1542 25.136 10.1542 25.2109 10.229C25.2858 10.3039 25.4356 10.3039 25.5105 10.3787C25.6603 10.4536 25.8101 10.4536 25.9599 10.4536H28.656L28.9555 9.63028H29.5547L29.8542 10.4536H33.5239V9.70512L34.1231 10.5284ZM38.2421 18.0128V12.4744H17.6469L17.1226 13.2228L16.5984 12.4744H10.6071V18.387H16.5984L17.1226 17.6386L17.6469 18.387H21.3915V17.1147H21.2417C21.7659 17.1147 22.2153 17.0398 22.5897 16.8902V18.4619H25.2858V17.7134L25.8101 18.4619H36.9689C37.4183 18.3122 37.8676 18.2373 38.2421 18.0128Z" fill="white"/>
<path d="M36.968 16.6459H34.9459V17.4721H36.8931C37.7169 17.4721 38.2411 16.9463 38.2411 16.1952C38.2411 15.444 37.7918 15.0685 37.0429 15.0685H36.1441C35.9195 15.0685 35.7697 14.9182 35.7697 14.6929C35.7697 14.4675 35.9195 14.3173 36.1441 14.3173H37.8667L38.2411 13.4911H36.219C35.3952 13.4911 34.871 14.0169 34.871 14.6929C34.871 15.444 35.3203 15.8196 36.0693 15.8196H36.968C37.1926 15.8196 37.3424 15.9698 37.3424 16.1952C37.4173 16.4956 37.2675 16.6459 36.968 16.6459ZM33.2983 16.6459H31.2762V17.4721H33.2234C34.0472 17.4721 34.5714 16.9463 34.5714 16.1952C34.5714 15.444 34.1221 15.0685 33.3732 15.0685H32.4745C32.2498 15.0685 32.1 14.9182 32.1 14.6929C32.1 14.4675 32.2498 14.3173 32.4745 14.3173H34.197L34.5714 13.4911H32.5493C31.7255 13.4911 31.2013 14.0169 31.2013 14.6929C31.2013 15.444 31.6506 15.8196 32.3996 15.8196H33.2983C33.5229 15.8196 33.6727 15.9698 33.6727 16.1952C33.7476 16.4956 33.5229 16.6459 33.2983 16.6459ZM30.6771 14.2422V13.4159H27.5316V17.397H30.6771V16.5708H28.4303V15.7445H30.6022V14.9182H28.4303V14.1671H30.6771V14.2422ZM25.5844 14.2422C25.9589 14.2422 26.1087 14.4675 26.1087 14.6929C26.1087 14.9182 25.9589 15.1436 25.5844 15.1436H24.461V14.1671L25.5844 14.2422ZM24.461 15.9698H24.9104L26.1087 17.397H27.232L25.884 15.8947C26.558 15.7445 26.9325 15.2938 26.9325 14.6929C26.9325 13.9417 26.4082 13.4159 25.5844 13.4159H23.4875V17.397H24.3862L24.461 15.9698ZM22.0645 14.768C22.0645 15.0685 21.9147 15.2938 21.5403 15.2938H20.342V14.2422H21.4654C21.8398 14.2422 22.0645 14.4675 22.0645 14.768ZM19.4433 13.4159V17.397H20.342V16.045H21.5403C22.3641 16.045 22.9632 15.5192 22.9632 14.6929C22.9632 13.9417 22.439 13.3408 21.6152 13.3408L19.4433 13.4159ZM18.0953 17.397H19.2186L17.6459 15.3689L19.2186 13.4159H18.0953L17.1217 14.6929L16.1481 13.4159H15.0247L16.5974 15.3689L15.0247 17.3219H16.1481L17.1217 16.045L18.0953 17.397ZM14.7251 14.2422V13.4159H11.5797V17.397H14.7251V16.5708H12.4784V15.7445H14.6502V14.9182H12.4784V14.1671H14.7251V14.2422ZM32.9238 7.18141L34.4965 9.58509H35.6199V5.604H34.7212V8.23302L34.4965 7.85745L33.0736 5.604H31.8753V9.58509H32.774V6.88095L32.9238 7.18141ZM29.0294 7.1063L29.329 6.28004L29.6286 7.1063L30.003 8.00768H28.655L29.0294 7.1063ZM30.6022 9.58509H31.5758L29.8532 5.604H28.655L26.9325 9.58509H27.9061L28.2805 8.75882H30.2277L30.6022 9.58509ZM26.4082 9.58509L26.7827 8.75882H26.558C25.884 8.75882 25.5095 8.30814 25.5095 7.6321V7.55699C25.5095 6.88095 25.884 6.43027 26.558 6.43027H27.5316V5.604H26.4831C25.2849 5.604 24.6108 6.43027 24.6108 7.55699V7.6321C24.6108 8.83394 25.2849 9.58509 26.4082 9.58509ZM23.0381 9.58509H23.9368V5.67912H23.0381V9.58509ZM21.0909 6.43027C21.4654 6.43027 21.6152 6.65561 21.6152 6.88095C21.6152 7.1063 21.4654 7.33164 21.0909 7.33164H19.9675V6.35515L21.0909 6.43027ZM19.9675 8.15791H20.4169L21.6152 9.58509H22.7385L21.3905 8.08279C22.0645 7.93256 22.439 7.48187 22.439 6.88095C22.439 6.12981 21.9147 5.604 21.0909 5.604H18.994V9.58509H19.8927L19.9675 8.15791ZM18.3199 6.43027V5.604H15.1745V9.58509H18.3199V8.75882H16.0732V7.93256H18.245V7.1063H16.0732V6.35515H18.3199V6.43027ZM11.5048 9.58509H12.3286L13.452 6.35515V9.58509H14.3507V5.604H12.8528L11.9541 8.30813L11.0554 5.604H9.5576V9.58509H10.4563V6.35515L11.5048 9.58509ZM6.63682 7.1063L6.93639 6.28004L7.23596 7.1063L7.61041 8.00768H6.26236L6.63682 7.1063ZM8.20955 9.58509H9.18314L7.46063 5.604H6.33726L4.61475 9.58509H5.58834L5.9628 8.75882H7.90998L8.20955 9.58509Z" fill="#006FCF"/>
</svg>
