<svg width="43" height="24" viewBox="0 0 43 24" fill="none" xmlns="http://www.w3.org/2000/svg">
<rect width="42.4615" height="24" fill="#0074C8"/>
<path d="M10.437 8.30811H8.8081C8.8081 9.64478 8.19455 10.8646 7.12813 11.6681L6.48535 12.1501L8.98341 15.5539H11.0359L8.73506 12.4204C9.8234 11.3394 10.437 9.87852 10.437 8.30811Z" fill="white"/>
<path d="M6.28109 8.30811H4.61572V15.5539H6.28109V8.30811Z" fill="white"/>
<path d="M13.0885 8.30811H11.5181V15.5539H13.0885V8.30811Z" fill="white"/>
<path d="M26.8643 10.4043C26.2653 10.4043 25.6956 10.5869 25.3158 11.1055V10.5431H23.8257V15.5538H25.3377V12.9243C25.3377 12.1646 25.849 11.7921 26.4625 11.7921C27.1199 11.7921 27.4997 12.1865 27.4997 12.917V15.5611H28.9971V12.3691C28.9971 11.2005 28.0695 10.4043 26.8643 10.4043Z" fill="white"/>
<path d="M17.8359 10.5431V10.8645C17.4122 10.5723 16.9009 10.4043 16.3458 10.4043C14.8849 10.4043 13.7017 11.5876 13.7017 13.0484C13.7017 14.5093 14.8849 15.6926 16.3458 15.6926C16.9009 15.6926 17.4122 15.5246 17.8359 15.2324V15.5538H19.3332V10.5431H17.8359ZM16.47 14.334C15.7176 14.334 15.1114 13.757 15.1114 13.0484C15.1114 12.3399 15.7176 11.7629 16.47 11.7629C17.2223 11.7629 17.8286 12.3399 17.8286 13.0484C17.8286 13.757 17.2223 14.334 16.47 14.334Z" fill="white"/>
<path d="M21.6565 11.193V10.543H20.1226V15.5537H21.6638V13.2163C21.6638 12.4275 22.5184 12.0038 23.11 12.0038C23.1173 12.0038 23.1246 12.0038 23.1246 12.0038V10.543C22.5184 10.543 21.9559 10.8059 21.6565 11.193Z" fill="white"/>
<path d="M33.6572 10.5431V10.8645C33.2335 10.5723 32.7222 10.4043 32.1671 10.4043C30.7062 10.4043 29.5229 11.5876 29.5229 13.0484C29.5229 14.5093 30.7062 15.6926 32.1671 15.6926C32.7222 15.6926 33.2335 15.5246 33.6572 15.2324V15.5538H35.1545V10.5431H33.6572ZM32.2913 14.334C31.5389 14.334 30.9327 13.757 30.9327 13.0484C30.9327 12.3399 31.5389 11.7629 32.2913 11.7629C33.0436 11.7629 33.6499 12.3399 33.6499 13.0484C33.6572 13.757 33.0436 14.334 32.2913 14.334Z" fill="white"/>
<path d="M36.3157 10.6891C36.3157 10.6161 36.2645 10.5723 36.1842 10.5723H36.0454V10.9521H36.1112V10.8133H36.1842L36.2426 10.9521H36.3157L36.2499 10.7987C36.2938 10.7768 36.3157 10.7403 36.3157 10.6891ZM36.1842 10.7476H36.1112V10.6307H36.1842C36.228 10.6307 36.2499 10.6526 36.2499 10.6891C36.2499 10.7257 36.2353 10.7476 36.1842 10.7476Z" fill="white"/>
<path d="M36.1626 10.4116C35.9654 10.4116 35.8047 10.5723 35.8047 10.7695C35.812 10.9667 35.9654 11.1274 36.1626 11.1274C36.3598 11.1274 36.5205 10.9667 36.5205 10.7695C36.5205 10.5723 36.3598 10.4116 36.1626 10.4116ZM36.1626 11.0617C36.0019 11.0617 35.8777 10.9302 35.8777 10.7695C35.8777 10.6088 36.0092 10.4774 36.1626 10.4774C36.3233 10.4774 36.4475 10.6088 36.4475 10.7695C36.4475 10.9302 36.316 11.0617 36.1626 11.0617Z" fill="white"/>
<path d="M36.7543 13.7793C36.2357 13.7793 35.812 14.2029 35.812 14.7215C35.812 15.2401 36.2357 15.6638 36.7543 15.6638C37.2729 15.6638 37.6965 15.2401 37.6965 14.7215C37.6965 14.1956 37.2729 13.7793 36.7543 13.7793Z" fill="white"/>
</svg>
