<svg width="43" height="24" viewBox="0 0 43 24" fill="none" xmlns="http://www.w3.org/2000/svg">
<rect width="42.4615" height="24" fill="white"/>
<path d="M24.4566 18.5341H17.188V5.47119H24.4566V18.5341Z" fill="#6C6BBD"/>
<path d="M17.653 12.0014C17.653 9.35152 18.8937 6.9911 20.8258 5.46995C19.4129 4.35761 17.6298 3.69369 15.6919 3.69369C11.1041 3.69369 7.38525 7.41312 7.38525 12.0014C7.38525 16.5897 11.1041 20.3091 15.6919 20.3091C17.6298 20.3091 19.4129 19.6452 20.8258 18.5328C18.8937 17.0117 17.653 14.6513 17.653 12.0014Z" fill="#EB001B"/>
<path d="M34.2584 12.0014C34.2584 16.5897 30.5395 20.3091 25.9518 20.3091C24.0139 20.3091 22.2308 19.6452 20.8174 18.5328C22.75 17.0117 23.9907 14.6513 23.9907 12.0014C23.9907 9.35152 22.75 6.9911 20.8174 5.46995C22.2308 4.35761 24.0139 3.69369 25.9518 3.69369C30.5395 3.69369 34.2584 7.41312 34.2584 12.0014Z" fill="#0099DF"/>
</svg>
