<svg width="43" height="24" viewBox="0 0 43 24" fill="none" xmlns="http://www.w3.org/2000/svg">
<rect width="42.4615" height="24" fill="white"/>
<path d="M34.0065 17.1445V16.8223H33.9225L33.8253 17.0436L33.7287 16.8223H33.6441V17.1445H33.7038V16.9016L33.7947 17.1113H33.8565L33.9473 16.901V17.1445H34.0065ZM33.4735 17.1445V16.8773H33.5813V16.8229H33.3066V16.8773H33.4144V17.1445H33.4735Z" fill="#F79410"/>
<path d="M24.4566 18.5311H17.188V5.46826H24.4566V18.5311Z" fill="#FF5F00"/>
<path d="M17.6535 11.9985C17.6535 9.3486 18.8942 6.98817 20.8263 5.46702C19.4134 4.35468 17.6303 3.69077 15.6924 3.69077C11.1046 3.69077 7.38574 7.41019 7.38574 11.9985C7.38574 16.5867 11.1046 20.3062 15.6924 20.3062C17.6303 20.3062 19.4134 19.6422 20.8263 18.5299C18.8942 17.0087 17.6535 14.6483 17.6535 11.9985Z" fill="#EB001B"/>
<path d="M34.2594 11.9985C34.2594 16.5867 30.5405 20.3062 25.9528 20.3062C24.0149 20.3062 22.2318 19.6422 20.8184 18.5299C22.751 17.0087 23.9916 14.6483 23.9916 11.9985C23.9916 9.3486 22.751 6.98817 20.8184 5.46702C22.2318 4.35468 24.0149 3.69077 25.9528 3.69077C30.5405 3.69077 34.2594 7.41019 34.2594 11.9985Z" fill="#F79E1B"/>
</svg>
