<svg width="43" height="24" viewBox="0 0 43 24" fill="none" xmlns="http://www.w3.org/2000/svg">
<rect width="42.4615" height="24" fill="white"/>
<path d="M27.6945 7.38477H25.0613C24.9064 7.38477 24.7515 7.53966 24.6741 7.69455L23.5898 14.5098C23.5898 14.6647 23.6673 14.7422 23.8222 14.7422H25.2162C25.3711 14.7422 25.4486 14.6647 25.4486 14.5098L25.7583 12.5737C25.7583 12.4188 25.9132 12.2639 26.1456 12.2639H26.9975C28.7787 12.2639 29.7856 11.412 30.0179 9.70816C30.1728 9.01114 30.0179 8.39157 29.7081 8.00434C29.2434 7.61711 28.5464 7.38477 27.6945 7.38477ZM28.0043 9.9405C27.8494 10.8699 27.1524 10.8699 26.4554 10.8699H25.9907L26.3005 9.08859C26.3005 9.01114 26.3779 8.93369 26.5328 8.93369H26.6877C27.1524 8.93369 27.6171 8.93369 27.8494 9.24348C28.0043 9.32092 28.0043 9.55326 28.0043 9.9405Z" fill="#139AD6"/>
<path d="M8.72038 7.38477H6.0872C5.93231 7.38477 5.77742 7.53966 5.69997 7.69455L4.61572 14.5098C4.61572 14.6647 4.69317 14.7422 4.84806 14.7422H6.0872C6.2421 14.7422 6.39699 14.5873 6.47443 14.4324L6.78422 12.5737C6.78422 12.4188 6.93911 12.2639 7.17145 12.2639H8.02336C9.80463 12.2639 10.8114 11.412 11.0438 9.70816C11.1987 9.01114 11.0438 8.39157 10.734 8.00434C10.2693 7.61711 9.64974 7.38477 8.72038 7.38477ZM9.03017 9.9405C8.87527 10.8699 8.17826 10.8699 7.48124 10.8699H7.09401L7.40379 9.08859C7.40379 9.01114 7.48124 8.93369 7.63613 8.93369H7.79102C8.2557 8.93369 8.72038 8.93369 8.95272 9.24348C9.03017 9.32092 9.10761 9.55326 9.03017 9.9405Z" fill="#263B80"/>
<path d="M16.6969 9.8629H15.4578C15.3804 9.8629 15.2255 9.94035 15.2255 10.0178L15.148 10.405L15.0706 10.2501C14.7608 9.8629 14.2187 9.70801 13.5991 9.70801C12.2051 9.70801 10.9659 10.7923 10.7336 12.2637C10.5787 13.0382 10.811 13.7352 11.1983 14.1999C11.5855 14.6646 12.1276 14.8195 12.8246 14.8195C13.9863 14.8195 14.6059 14.1224 14.6059 14.1224L14.5284 14.5097C14.5284 14.6646 14.6059 14.742 14.7608 14.742H15.9225C16.0774 14.742 16.2323 14.5871 16.3097 14.4322L17.0067 10.0952C16.9293 10.0178 16.7744 9.8629 16.6969 9.8629ZM14.9157 12.3412C14.7608 13.0382 14.2187 13.5803 13.4442 13.5803C13.057 13.5803 12.7472 13.4254 12.5923 13.2705C12.4374 13.0382 12.3599 12.7284 12.3599 12.3412C12.4374 11.6442 13.057 11.102 13.754 11.102C14.1412 11.102 14.3736 11.2569 14.6059 11.4118C14.8382 11.6442 14.9157 12.0314 14.9157 12.3412Z" fill="#263B80"/>
<path d="M35.5944 9.86339H34.3553C34.2778 9.86339 34.1229 9.94083 34.1229 10.0183L34.0455 10.4055L33.968 10.2506C33.6582 9.86339 33.1161 9.7085 32.4966 9.7085C31.1025 9.7085 29.8634 10.7927 29.631 12.2642C29.4761 13.0387 29.7085 13.7357 30.0957 14.2004C30.4829 14.6651 31.0251 14.82 31.7221 14.82C32.8838 14.82 33.5034 14.1229 33.5034 14.1229L33.4259 14.5102C33.4259 14.6651 33.5034 14.7425 33.6582 14.7425H34.8199C34.9748 14.7425 35.1297 14.5876 35.2072 14.4327L35.9042 10.0957C35.8267 10.0183 35.7493 9.86339 35.5944 9.86339ZM33.8131 12.3417C33.6582 13.0387 33.1161 13.5808 32.3417 13.5808C31.9544 13.5808 31.6446 13.4259 31.4897 13.271C31.3349 13.0387 31.2574 12.7289 31.2574 12.3417C31.3349 11.6447 31.9544 11.1025 32.6514 11.1025C33.0387 11.1025 33.271 11.2574 33.5034 11.4123C33.8131 11.6447 33.8906 12.0319 33.8131 12.3417Z" fill="#139AD6"/>
<path d="M23.4346 9.86328H22.118C21.9631 9.86328 21.8856 9.94073 21.8082 10.0182L20.1044 12.6514L19.3299 10.1731C19.2525 10.0182 19.175 9.94073 18.9427 9.94073H17.7035C17.5486 9.94073 17.4712 10.0956 17.4712 10.2505L18.8652 14.3552L17.5486 16.2139C17.4712 16.3688 17.5486 16.6011 17.7035 16.6011H18.9427C19.0976 16.6011 19.175 16.5237 19.2525 16.4462L23.512 10.328C23.7443 10.0956 23.5895 9.86328 23.4346 9.86328Z" fill="#263B80"/>
<path d="M37.0652 7.61692L35.981 14.5871C35.981 14.742 36.0584 14.8194 36.2133 14.8194H37.2975C37.4524 14.8194 37.6073 14.6645 37.6848 14.5096L38.769 7.69436C38.769 7.53947 38.6916 7.46202 38.5367 7.46202H37.2975C37.2201 7.38458 37.1427 7.46202 37.0652 7.61692Z" fill="#139AD6"/>
</svg>
