<svg width="43" height="24" viewBox="0 0 43 24" fill="none" xmlns="http://www.w3.org/2000/svg">
<rect x="0.000976562" width="42.4615" height="24" fill="white"/>
<path d="M0 21.2308H42.4615V24H0V21.2308Z" fill="#F7B600"/>
<path d="M0 2.76953H42.4615V0.000300383H0V2.76953Z" fill="#1A1F71"/>
<path d="M20.6298 7.54837L18.7181 16.4861H16.4058L18.3177 7.54837H20.6298ZM30.3577 13.3197L31.575 9.96315L32.2752 13.3197H30.3577ZM32.9387 16.4861H35.0768L33.2088 7.54837H31.2365C30.792 7.54837 30.4175 7.80614 30.2516 8.20356L26.7819 16.4861H29.2103L29.6925 15.1514H32.6586L32.9387 16.4861ZM26.9023 13.5681C26.9126 11.2094 23.6418 11.0787 23.6635 10.0248C23.6706 9.70451 23.976 9.36336 24.6439 9.27616C24.9751 9.23343 25.8886 9.19904 26.9244 9.67619L27.3294 7.78008C26.7731 7.57894 26.0572 7.38509 25.1667 7.38509C22.8808 7.38509 21.2727 8.59925 21.2598 10.3394C21.2452 11.6262 22.4085 12.3435 23.2831 12.7721C24.1849 13.2101 24.4872 13.4912 24.4828 13.8825C24.4766 14.4821 23.7635 14.7475 23.1 14.7576C21.9366 14.7757 21.2626 14.4432 20.7252 14.1927L20.3055 16.1521C20.8466 16.3998 21.8436 16.6153 22.8761 16.6265C25.3062 16.6265 26.8952 15.4264 26.9023 13.5681ZM17.3259 7.54837L13.5793 16.4861H11.1354L9.29152 9.35311C9.17984 8.91452 9.08239 8.75333 8.74246 8.56799C8.18644 8.26592 7.26844 7.98349 6.46143 7.8077L6.51597 7.54837H10.4506C10.9518 7.54837 11.4027 7.88187 11.5173 8.45908L12.4913 13.6315L14.8967 7.54837H17.3259Z" fill="#1A1F71"/>
</svg>
