<svg width="137" height="22" viewBox="0 0 137 22" fill="none" xmlns="http://www.w3.org/2000/svg">
<path fill-rule="evenodd" clip-rule="evenodd" d="M89.3078 1.91648C89.5715 1.91648 90.0362 1.97942 90.0362 1.56956C90.0362 1.24644 89.7693 1.205 89.4859 1.205H88.9113V1.91648H89.3078ZM90.2765 3.03551H89.9679L89.3745 2.10835H88.9098V3.03551H88.646V1.03231H89.5488C89.7466 1.03231 89.8997 1.0561 90.0559 1.13976C90.1878 1.20576 90.2749 1.37922 90.2749 1.5711C90.2749 1.98095 89.9884 2.10913 89.6587 2.10913L90.2765 3.03551ZM90.9374 2.0247C90.9356 1.61387 90.7678 1.22038 90.4707 0.929879C90.1736 0.639376 89.7711 0.475371 89.3509 0.473553C88.4694 0.473553 87.7244 1.16355 87.7244 2.0247C87.7244 2.90657 88.4694 3.61575 89.3509 3.61575C90.2105 3.61499 90.9374 2.90657 90.9374 2.0247ZM87.525 2.0247C87.5248 1.79106 87.572 1.5597 87.6639 1.34404C87.7558 1.12838 87.8906 0.932699 88.0605 0.768351C88.2303 0.604003 88.4318 0.474258 88.6534 0.386632C88.8749 0.299005 89.112 0.255242 89.3509 0.257883C90.3659 0.257883 91.18 1.0561 91.18 2.0247C91.18 3.01479 90.3659 3.83066 89.3509 3.83066C88.3171 3.83066 87.525 3.01479 87.525 2.0247ZM135.15 1.91648C135.417 1.91648 135.878 1.97942 135.878 1.56956C135.878 1.24644 135.59 1.205 135.349 1.205H134.756V1.91648H135.15ZM136.099 3.03551H135.811L135.196 2.10835H134.756V3.03551H134.513V1.03231H135.395C135.57 1.03231 135.724 1.0561 135.899 1.13976C136.056 1.20576 136.12 1.37922 136.12 1.5711C136.12 1.98095 135.835 2.10913 135.481 2.10913L136.099 3.03551ZM136.779 2.0247C136.779 1.16355 136.077 0.473553 135.174 0.473553C134.966 0.472843 134.759 0.51248 134.566 0.59018C134.373 0.667881 134.198 0.782111 134.051 0.926289C133.903 1.07047 133.786 1.24175 133.707 1.43026C133.627 1.61878 133.587 1.8208 133.588 2.0247C133.588 2.90657 134.294 3.61575 135.174 3.61575C136.077 3.61499 136.779 2.90657 136.779 2.0247ZM133.366 2.0247C133.366 1.0561 134.137 0.257883 135.174 0.257883C136.186 0.257883 137 1.0561 137 2.0247C137 3.01479 136.186 3.83066 135.174 3.83066C134.137 3.83066 133.366 3.01479 133.366 2.0247ZM26.2914 18.4495C25.6573 18.4517 25.0291 18.3312 24.4428 18.095C23.8566 17.8588 23.3239 17.5114 22.8756 17.073C22.4273 16.6346 22.0721 16.1138 21.8306 15.5406C21.5891 14.9673 21.466 14.3531 21.4683 13.7331C21.4681 13.114 21.5928 12.5009 21.8351 11.9289C22.0775 11.3569 22.4328 10.8372 22.8808 10.3996C23.3287 9.96197 23.8605 9.61499 24.4458 9.3785C25.031 9.14201 25.6582 9.02064 26.2914 9.02135C26.9244 9.02105 27.5512 9.14271 28.136 9.37939C28.7208 9.61607 29.2522 9.96313 29.6998 10.4007C30.1473 10.8383 30.5023 11.3578 30.7444 11.9296C30.9864 12.5014 31.1109 13.1143 31.1106 13.7331C31.1132 14.3528 30.9903 14.9669 30.7491 15.5399C30.5079 16.113 30.1531 16.6337 29.7051 17.0721C29.2572 17.5105 28.7249 17.8579 28.139 18.0943C27.5532 18.3307 26.9252 18.4514 26.2914 18.4495ZM8.18997 18.4495C5.52644 18.4495 3.39123 16.3626 3.39123 13.7331C3.39123 11.1289 5.52644 9.02135 8.18997 9.02135C10.8535 9.02135 13.013 11.1289 13.013 13.7331C13.0152 14.353 12.892 14.9672 12.6504 15.5403C12.4088 16.1135 12.0536 16.6342 11.6053 17.0726C11.157 17.5109 10.6245 17.8583 10.0383 18.0946C9.45216 18.3309 8.82399 18.4515 8.18997 18.4495ZM68.8733 18.4495C66.2097 18.4495 64.0753 16.3626 64.0753 13.7331C64.0753 11.1289 66.2097 9.02135 68.8733 9.02135C71.5148 9.02135 73.6751 11.1289 73.6751 13.7331C73.6778 14.3514 73.5556 14.9641 73.3155 15.5361C73.0754 16.1081 72.7222 16.6281 72.276 17.0663C71.8299 17.5045 71.2997 17.8523 70.7157 18.0896C70.1318 18.327 69.5057 18.4493 68.8733 18.4495ZM50.5763 18.4495C49.9418 18.4532 49.3129 18.3338 48.7259 18.0981C48.139 17.8624 47.6057 17.5152 47.157 17.0764C46.7084 16.6377 46.3533 16.1163 46.1123 15.5424C45.8714 14.9685 45.7493 14.3535 45.7533 13.7331C45.7515 13.1135 45.8751 12.4998 46.1169 11.9271C46.3587 11.3544 46.714 10.8341 47.1622 10.3962C47.6105 9.95827 48.1429 9.61134 48.7289 9.37539C49.3148 9.13944 49.9427 9.01912 50.5763 9.02135C51.2095 9.02094 51.8365 9.14251 52.4216 9.37911C53.0067 9.61571 53.5384 9.9627 53.9863 10.4003C54.4342 10.8378 54.7895 11.3574 55.032 11.9292C55.2745 12.5011 55.3993 13.1141 55.3994 13.7331C55.4015 14.353 55.2782 14.9671 55.0365 15.5402C54.7949 16.1133 54.4397 16.634 53.9915 17.0723C53.5432 17.5107 53.0107 17.858 52.4246 18.0944C51.8385 18.3307 51.2103 18.4514 50.5763 18.4495ZM31.1357 20.2163C29.734 21.2292 28.0352 21.7725 26.2922 21.7651C21.7541 21.7651 18.0779 18.1701 18.0779 13.7331C18.0779 9.31991 21.7541 5.72642 26.2922 5.72642C28.0961 5.72642 29.769 6.30665 31.1113 7.27526V0.667733H34.68V21.637H31.1357V20.2163ZM88.4278 10.8511C88.2284 9.53559 87.149 8.59078 85.4337 8.59078C84.531 8.59078 82.5716 8.89011 82.5716 10.0314C82.5716 11.733 85.5444 11.8826 86.2698 11.9272C91.0277 12.3577 92.4132 14.4032 92.4132 16.8131C92.4132 18.5999 91.4885 19.9339 90.1689 20.8817C89.0463 21.6776 86.7345 22 85.3239 22C82.1964 22 79.0273 20.3238 78.6081 16.5315H82.11C82.3047 18.3198 84.2225 18.9867 85.3019 18.9867C87.2597 18.9867 88.6476 18.1701 88.6476 17.2222C88.6476 15.7156 87.2173 15.3917 85.1457 15.1776C83.9823 15.0486 81.7544 14.6603 80.8313 13.9066C79.7982 13.1107 78.9166 12.205 78.9166 10.6561C78.9166 7.87852 81.1398 5.68344 85.5232 5.65964C89.1555 5.63892 91.9077 7.75034 91.9933 10.8265L88.4278 10.8511ZM13.0342 20.2163C11.6326 21.23 9.93333 21.7733 8.18997 21.7651C3.63301 21.7651 0 18.1701 0 13.7331C0 9.31991 3.63301 5.72642 8.18997 5.72642C9.99705 5.72642 11.6699 6.30665 13.0342 7.27526V5.74791H16.5566V21.637H13.0342V20.2163ZM40.7991 4.64959V0.646242H37.2548V4.64959H40.7991ZM40.7991 21.6362V5.74714H37.2548V21.6362H40.7991ZM73.6751 20.2163C72.3532 21.2056 70.6811 21.7651 68.8733 21.7651C64.3383 21.7651 60.6621 18.1701 60.6621 13.7331C60.6621 9.31991 64.3383 5.72642 68.8733 5.72642C70.6811 5.72642 72.354 6.30665 73.6751 7.27526V5.74791H77.2399V21.637H73.7183L73.6751 20.2163ZM55.4206 20.2163C54.0783 21.2056 52.3842 21.7651 50.5763 21.7651C46.0626 21.7651 42.3652 18.1701 42.3652 13.7331C42.3652 9.31991 46.0626 5.72642 50.5763 5.72642C52.3842 5.72642 54.0571 6.30665 55.4206 7.27526V0.667733H58.9437V21.637H55.4206V20.2163ZM119.805 11.9272C120.003 8.15943 118.856 4.02484 115.773 0C112.78 3.76772 111.725 8.05198 111.987 11.9272H119.805ZM112.449 14.9174C112.317 14.3555 112.207 13.7889 112.119 13.2189H119.672C119.585 13.7892 119.475 14.3558 119.342 14.9174H112.449ZM114.21 19.1825C114.695 19.9714 115.256 20.7138 115.883 21.3998C116.501 20.7313 117.051 19.9768 117.559 19.1825H114.21ZM131.585 11.9479C132.465 10.1603 133.083 8.15943 133.367 5.91983C128.239 6.35117 124.209 8.78189 121.498 11.9479H131.585ZM130.902 13.2189C130.55 13.8198 130.174 14.3579 129.78 14.9174L119.494 14.8752C119.824 14.3371 120.155 13.7331 120.531 13.2189H130.902ZM126.85 17.89C127.494 17.3756 128.098 16.814 128.655 16.2099L103.113 16.1892C103.688 16.8115 104.314 17.3874 104.984 17.9115L126.85 17.89ZM117.933 19.1825C117.782 19.8978 117.693 20.6244 117.669 21.3545C120.113 21.2478 122.645 20.5149 124.935 19.1825H117.933ZM100.869 13.2189C101.241 13.8198 101.617 14.3579 102.037 14.9174H112.275C111.987 14.3371 111.636 13.7784 111.259 13.2189H100.869ZM106.856 19.1825C109.146 20.5149 111.658 21.2478 114.101 21.3545C114.073 20.6258 113.992 19.9 113.86 19.1825H106.856ZM110.268 11.9479C107.583 8.78189 103.578 6.35117 98.4452 5.91983C98.706 8.00449 99.293 10.0376 100.186 11.9479H110.268Z" fill="#a6a6a6"/>
</svg>
