<svg width="72" height="21" viewBox="0 0 72 21" fill="none" xmlns="http://www.w3.org/2000/svg">
<path fill-rule="evenodd" clip-rule="evenodd" d="M49.767 15.3877C48.687 16.5537 47.3 17.146 45.6454 17.146C43.99 17.146 42.603 16.5537 41.5237 15.3877C40.4928 14.2769 39.9004 12.5008 39.9004 10.5165C39.9004 8.57959 40.4993 6.82783 41.5414 5.70919C42.6318 4.5431 44.0123 3.94821 45.644 3.94359C47.2784 3.94821 48.6589 4.5431 49.7487 5.70919C50.792 6.82783 51.3896 8.57959 51.3896 10.5165C51.3896 12.5008 50.7979 14.2769 49.767 15.3877ZM35.2754 10.5165C35.2754 10.6061 35.2793 10.6943 35.2819 10.7826C33.6259 9.2654 31.2316 8.70081 29.7687 8.40632C27.0622 7.83185 24.9945 7.30612 24.9945 5.36661C24.9945 3.99827 26.2119 3.00282 28.5506 3.17345C30.6877 3.32959 31.5877 4.64456 31.8345 5.91341C31.8698 6.1216 31.9654 6.27312 32.201 6.2751L36.0445 6.30804C36.0628 6.30804 36.0785 6.30606 36.0949 6.30474C35.5529 7.57689 35.2754 8.99332 35.2754 10.5165ZM28.7385 17.6329C26.8795 17.6329 24.8315 16.9681 24.3595 14.3962C24.3196 14.1504 24.2044 14.049 24.0172 14.0437L20.3014 13.9936V7.38254C20.7897 9.32008 22.407 10.6614 25.9049 11.4539C28.2462 12.0179 32.3077 12.3763 32.3077 14.7954C32.3077 16.4819 31.0739 17.6724 28.7385 17.6329ZM10.2305 17.1486C7.23272 17.1486 4.48625 14.7737 4.48625 10.5191C4.48625 7.18095 6.54545 3.94623 10.2502 3.94623C11.8551 3.94623 15.9244 4.49962 15.9244 10.5191C15.9244 16.5544 11.6758 17.1486 10.2299 17.1486H10.2305ZM55.904 8.89516C56.7569 10.0402 58.2964 10.888 60.7974 11.4546C63.1381 12.0185 67.2002 12.3769 67.2002 14.7961C67.2002 16.4826 65.9657 17.673 63.6309 17.6335C61.7727 17.6335 59.7233 16.9688 59.252 14.3968C59.2128 14.1511 59.0976 14.0496 58.9097 14.0444L55.4668 13.9982C55.8301 12.9198 56.0153 11.7517 56.0153 10.5171C56.0151 9.97455 55.9779 9.43262 55.904 8.89516ZM63.377 21C67.5 21 72.3593 19.4551 71.979 14.4443C71.5588 9.99602 66.96 8.86946 64.6612 8.40698C61.954 7.83251 59.8863 7.30678 59.8863 5.36727C59.8863 3.99893 61.1037 3.00348 63.4431 3.17411C65.5802 3.33025 66.4802 4.64522 66.7269 5.91407C66.7623 6.12226 66.8585 6.27378 67.0935 6.27576L70.937 6.3087C71.2296 6.31067 71.3205 6.15783 71.2839 5.94833C70.5312 1.31168 66.6824 0 63.1407 0C59.6042 0 55.3431 1.00006 55.0407 5.42788C55.0302 5.59917 55.0263 5.76782 55.0263 5.93318C54.4634 4.75524 53.6517 3.67349 52.6058 2.71559C50.6749 0.96317 48.2675 0.0243757 45.6421 0.00131761H45.555C44.3009 0.00131761 43.0736 0.233875 41.9066 0.695037C40.7203 1.1673 39.6288 1.85186 38.6849 2.71559C37.6946 3.6221 36.9124 4.63929 36.3534 5.7441C35.5208 1.27544 31.7363 0 28.2475 0C25.001 0 21.1431 0.845244 20.3014 4.41398V0.871596C20.3012 0.780853 20.2653 0.693886 20.2014 0.629783C20.1376 0.56568 20.0512 0.529677 19.961 0.529678H16.3414C16.2512 0.529852 16.1648 0.566022 16.1011 0.630249C16.0374 0.694476 16.0017 0.781512 16.0017 0.872255V1.82752C16.0017 1.98827 15.895 2.04427 15.7647 1.95072C14.4772 1.0106 12.5725 0.00197641 10.2803 0.00197641C8.99214 0.00197641 7.76225 0.229922 6.624 0.679226C5.48509 1.12985 4.40247 1.81566 3.40887 2.71822C2.27782 3.75386 1.41644 4.93443 0.851563 6.227C0.286691 7.51958 0 8.96367 0 10.5184C0 11.9698 0.253963 13.3309 0.754036 14.5609C1.25411 15.7908 2.01534 16.9286 3.01745 17.9432C4.01891 18.9577 5.13949 19.7285 6.34581 20.2358C7.55214 20.7411 8.88152 20.9974 10.2993 20.9974C12.7355 20.9974 14.5636 19.9532 15.7614 19.0038C15.8937 18.9024 16.0017 18.9571 16.0017 19.1231V20.1264C16.0017 20.3148 16.1548 20.469 16.342 20.469H19.9617C20.0518 20.4687 20.1381 20.4324 20.2017 20.3682C20.2654 20.3041 20.3012 20.2171 20.3014 20.1264V16.7468C22.0078 20.7852 26.3559 20.9993 28.4845 20.9993C32.0426 20.9993 36.1459 19.8464 36.9602 16.31C37.3516 16.8953 37.7981 17.4413 38.2935 17.9405C40.2336 19.9057 42.7758 20.9624 45.6486 20.9941H45.7664C47.1305 20.9941 48.4468 20.7306 49.6787 20.2094C50.9223 19.6802 52.05 18.9091 52.9972 17.9405C53.7058 17.2296 54.3109 16.4213 54.7946 15.5398C56.0847 20.7464 61.054 20.9993 63.377 20.9993V21Z" fill="#a6a6a6"/>
</svg>
