<svg width="94" height="21" viewBox="0 0 94 21" fill="none" xmlns="http://www.w3.org/2000/svg">
<path d="M0 20.5749V0H7.48301C9.24866 0 10.5939 0.510121 11.6029 1.44534C12.6118 2.38057 13.1163 3.65587 13.1163 5.10121C13.1163 7.48178 11.9392 9.01215 9.66905 9.86235V9.94737C10.8462 10.2024 11.771 10.8826 12.5277 11.8178C13.2844 12.753 13.6208 13.8583 13.6208 15.1336C13.6208 18.7895 11.1825 20.6599 6.22182 20.6599H0V20.5749ZM2.27013 10.7126V18.6194H6.47406C9.75313 18.6194 11.4347 17.3441 11.4347 14.8785C11.4347 13.6032 10.9302 12.583 10.0054 11.8178C9.0805 11.0526 7.73524 10.7126 6.13775 10.7126H2.27013ZM2.27013 1.87045V8.75708H6.22182C7.81932 8.75708 8.99642 8.417 9.83721 7.65182C10.5939 7.05668 10.9302 6.20648 10.9302 5.27125C10.9302 2.97571 9.66905 1.87045 7.06261 1.87045H2.27013ZM27.3256 16.5789L28.9231 17.4291C28.3345 18.5344 27.6619 19.2996 26.9893 19.8097C25.9803 20.4899 24.7191 20.915 23.2898 20.915C21.5242 20.915 20.0107 20.3198 18.9177 19.1296C17.5725 17.7692 16.9839 15.8138 16.9839 13.2632C16.9839 10.8826 17.4884 9.01215 18.5814 7.65182C19.6744 6.2915 21.1038 5.61134 22.9535 5.61134C24.551 5.61134 25.8962 6.12146 26.9052 7.22672C27.9982 8.417 28.5027 10.1174 28.5027 12.3279V13.6883H18.9177C18.9177 15.3036 19.3381 16.664 20.1789 17.6842C21.0197 18.7045 22.0286 19.2146 23.2898 19.2146C25.0555 19.0445 26.4007 18.1943 27.3256 16.5789ZM18.9177 11.7328H26.4007C26.4007 10.3725 26.0644 9.26721 25.4758 8.417C24.8873 7.5668 23.9624 7.1417 22.9535 7.1417C21.7764 7.1417 20.8515 7.5668 20.1789 8.33198C19.4222 9.26721 19.0859 10.3725 18.9177 11.7328ZM31.7818 20.5749V5.69636H33.7996V8.67206H33.8837C34.4723 7.5668 35.1449 6.80162 35.7335 6.37652C36.4902 5.8664 37.4991 5.52632 38.5921 5.52632V7.5668C37.415 7.5668 36.4061 7.9919 35.6494 8.8421C34.9767 9.60729 34.3041 10.7126 33.7996 12.3279V20.5749H31.7818ZM39.9374 18.0243L41.5349 16.834C42.6279 18.3644 43.9732 19.1296 45.7388 19.1296C46.7478 19.1296 47.5886 18.8745 48.093 18.3644C48.5975 17.9393 48.8497 17.3441 48.8497 16.664C48.8497 15.6437 48.093 14.8785 46.5796 14.3684C45.2343 13.8583 43.805 13.4332 42.4597 12.9231C40.9463 12.1579 40.2737 11.0526 40.3578 9.52227C40.3578 8.24696 40.8623 7.22672 41.703 6.54656C42.5438 5.8664 43.7209 5.52632 45.1503 5.52632C46.0751 5.52632 47.0841 5.78138 48.0089 6.2915C48.9338 6.80162 49.6905 7.39676 50.195 8.16194L48.7657 9.43725C47.6726 8.07692 46.4114 7.39676 44.9821 7.39676C43.2165 7.39676 42.3757 8.16194 42.3757 9.60729C42.3757 10.4575 43.1324 11.1377 44.5617 11.6478C47.1682 12.498 48.5134 13.0081 48.6816 13.0931C50.1109 13.9433 50.8676 15.1336 50.8676 16.664C50.8676 18.0243 50.3631 19.1296 49.2701 19.8947C48.3453 20.5749 47.1682 21 45.7388 21C43.2165 20.83 41.2826 19.8947 39.9374 18.0243ZM54.2308 0H56.2487V7.73684H56.3327C57.678 6.20648 59.1073 5.4413 60.7048 5.4413C61.8819 5.4413 62.8909 5.78138 63.6476 6.37652C64.4884 7.1417 64.9088 8.24696 64.9088 9.77733V20.5749H62.8909V9.86235C62.8909 8.07692 62.1342 7.22672 60.5367 7.22672C59.1073 7.22672 57.7621 7.9919 56.3327 9.43725V20.4899H54.3148L54.2308 0ZM69.7853 20.5749V0H71.8032V13.2632L77.7728 5.69636H80.2111L75.9231 11.2227L80.7996 20.5749H78.3614L74.4937 13.0081L71.8032 16.0688V20.5749H69.7853ZM84.9195 9.52227L83.1538 8.58704C84.3309 6.46154 86.0966 5.4413 88.619 5.4413C90.0483 5.4413 91.2254 5.78138 92.0662 6.46154C93.1592 7.22672 93.6637 8.417 93.6637 9.94737V17.4291C93.6637 18.7045 93.7478 19.7247 94 20.6599H91.898L91.6458 18.6194C90.2165 20.1498 88.619 21 86.7692 21C85.5921 21 84.5832 20.6599 83.8265 19.9798C82.9857 19.2146 82.5653 18.1943 82.5653 16.919C82.5653 15.3036 83.2379 14.0283 84.5832 13.0931C85.9284 12.1579 88.2826 11.3927 91.4776 10.8826V9.94737C91.4776 8.16194 90.4687 7.22672 88.4508 7.22672C86.7692 7.22672 85.508 7.9919 84.9195 9.52227ZM91.6458 16.5789V12.498C87.0215 13.3482 84.7513 14.7085 84.7513 16.749C84.7513 17.4291 85.0036 17.9393 85.508 18.3644C86.0125 18.7895 86.6011 19.0445 87.1896 19.0445C87.8623 19.0445 88.703 18.7895 89.5438 18.3644C90.3005 17.9393 91.0572 17.3441 91.6458 16.5789Z" fill="#a6a6a6"/>
</svg>
