<svg width="125" height="22" viewBox="0 0 125 22" fill="none" xmlns="http://www.w3.org/2000/svg">
<path d="M16.1399 3.63845C16.1399 3.63845 13.7021 1.60769 10.5918 1.60769C10.5918 1.60769 6.89307 1.60769 4.28716 4.31538C4.28716 4.31538 1.68124 7.02306 1.68124 10.7461C1.68124 10.7461 1.68124 14.4692 4.28716 17.1769C4.28716 17.1769 6.89307 19.7999 10.5918 19.7999C10.5918 19.7999 13.7021 19.8 16.1399 17.8538L17.3167 19.0384C17.3167 19.0384 14.3746 21.4923 10.5918 21.4923C10.5918 21.4923 6.22058 21.4923 3.11029 18.2769C3.11029 18.2769 0 15.1461 0 10.7461C0 10.7461 0 6.34615 3.11029 3.21539C3.11029 3.21539 6.22058 0 10.5918 0C10.5918 0 14.3746 8.8123e-06 17.3167 2.36923L16.1399 3.63845Z" fill="#a6a6a6"/>
<path d="M24.6301 7.61543C21.772 7.61543 19.7545 9.64619 19.7545 9.64619C17.737 11.677 17.7371 14.5539 17.7371 14.5539C17.7371 17.4308 19.7545 19.4615 19.7545 19.4615C21.772 21.4923 24.6301 21.4923 24.6301 21.4923C27.9085 21.4923 30.0941 18.7 30.0941 18.7V21.1538H31.6073V8.03849H30.0941V10.3231C27.9926 7.61543 24.6301 7.61543 24.6301 7.61543ZM24.6301 9.1385C26.8157 9.1385 28.4129 10.6616 28.4129 10.6616C30.0101 12.2693 30.0101 14.5539 30.0101 14.5539C30.0101 16.7539 28.4129 18.3615 28.4129 18.3615C26.8157 19.9692 24.6301 19.9692 24.6301 19.9692C22.3605 19.9692 20.8473 18.3615 20.8473 18.3615C19.2502 16.7539 19.2502 14.5539 19.2502 14.5539C19.2502 12.2693 20.8473 10.6616 20.8473 10.6616C22.3605 9.1385 24.6301 9.1385 24.6301 9.1385Z" fill="#a6a6a6"/>
<path d="M53.2952 2.03075C53.2952 2.03075 52.3706 2.03075 52.3706 1.09999C52.3706 1.09999 52.3705 0.084598 53.2952 0.084598C53.2952 0.084598 54.304 0.0846055 54.304 1.09999C54.304 1.09999 54.304 2.03075 53.2952 2.03075Z" fill="#a6a6a6"/>
<path d="M36.1466 0.084598V21.1538H34.5494V0.084598H36.1466Z" fill="#a6a6a6"/>
<path d="M44.1325 18.2769L48.7559 8.03849H50.4371L44.1325 22L37.6597 8.03849H39.425L44.1325 18.2769Z" fill="#a6a6a6"/>
<path d="M58.423 9.30773C58.423 9.30773 59.6839 7.61543 62.1217 7.61543C62.1217 7.61543 64.3073 7.61543 65.8204 9.1385C65.8204 9.1385 67.3335 10.6616 67.3335 12.8616V21.1538H65.8204V12.8616C65.8204 12.8616 65.8204 11.2539 64.7276 10.1539C64.7276 10.1539 63.7189 9.05388 62.1217 9.05388C62.1217 9.05388 60.6086 9.05389 59.5158 10.0693C59.5158 10.0693 58.423 11.1693 58.423 12.8616V21.1538H56.9099V8.03849H58.423V9.30773Z" fill="#a6a6a6"/>
<path d="M54.0518 8.03849V21.1538H52.5387V8.03849H54.0518Z" fill="#a6a6a6"/>
<path d="M87.4243 0.169221L79.1022 9.22304L87.3403 21.1538H85.4069L78.0094 10.4077L76.4963 12.0153V21.1538H74.9832V0.084598H76.4963V9.64612L85.2387 0.169221H87.4243Z" fill="#a6a6a6"/>
<path d="M91.2912 0.084598V21.1538H89.694V0.084598H91.2912Z" fill="#a6a6a6"/>
<path d="M100.622 7.61543C97.764 7.61543 95.7465 9.64619 95.7465 9.64619C93.8131 11.5923 93.8131 14.5539 93.8131 14.5539C93.8131 17.4308 95.7465 19.3769 95.7465 19.3769C97.764 21.4077 100.622 21.4077 100.622 21.4077C104.993 21.4077 106.843 17.5154 106.843 17.5154L105.498 16.9231C103.985 19.8846 100.622 19.8846 100.622 19.8846C98.4365 19.8846 96.9233 18.3615 96.9233 18.3615C95.3262 16.8385 95.3262 14.6385 95.3262 14.6385H107.515V14.5539C107.515 11.5923 105.498 9.64619 105.498 9.64619C103.48 7.61543 100.622 7.61543 100.622 7.61543ZM100.622 9.05388C102.471 9.05388 103.9 10.2385 103.9 10.2385C105.33 11.3385 105.834 13.0308 105.834 13.0308H95.4943C95.9987 11.3385 97.3437 10.2385 97.3437 10.2385C98.8568 9.05388 100.622 9.05388 100.622 9.05388Z" fill="#a6a6a6"/>
<path d="M109.869 1.09999C109.869 1.09999 109.869 0.084598 110.794 0.084598C110.794 0.084598 111.718 0.0846055 111.718 1.09999C111.718 1.09999 111.718 2.03075 110.794 2.03075C110.794 2.03075 109.869 2.03075 109.869 1.09999Z" fill="#a6a6a6"/>
<path d="M116.089 8.03849V9.30773C116.089 9.30773 117.266 7.61543 119.788 7.61543C119.788 7.61543 121.974 7.61543 123.487 9.1385C123.487 9.1385 125 10.6616 125 12.8616V21.1538H123.403V12.8616C123.403 12.8616 123.403 11.2539 122.394 10.1539C122.394 10.1539 121.301 9.05388 119.788 9.05388C119.788 9.05388 118.191 9.05389 117.182 10.0693C117.182 10.0693 116.089 11.1693 116.089 12.8616V21.1538H114.492V8.03849H116.089Z" fill="#a6a6a6"/>
<path d="M111.55 8.03849V21.1538H110.037V8.03849H111.55Z" fill="#a6a6a6"/>
</svg>
