<svg width="91" height="56" viewBox="0 0 91 56" fill="none" xmlns="http://www.w3.org/2000/svg">
<path fill-rule="evenodd" clip-rule="evenodd" d="M89.5649 47.0046H89.8501C89.996 47.0046 90.154 47.0328 90.154 47.2165C90.154 47.4357 89.9799 47.4454 89.7903 47.4454H89.5649V47.0046ZM89.3502 48.2143H89.5649V47.6179H89.793L90.1701 48.2143H90.4012L90.0051 47.6025C90.2107 47.5815 90.3694 47.476 90.3694 47.2262C90.3694 46.9597 90.215 46.8306 89.8849 46.8306H89.3499V48.2143H89.3502ZM88.8336 47.517C88.8336 46.9512 89.2577 46.5132 89.8115 46.5132C90.36 46.5132 90.7852 46.9509 90.7852 47.517C90.7852 48.0963 90.3597 48.5341 89.8115 48.5341C89.2577 48.5341 88.8336 48.0963 88.8336 47.517ZM88.6179 47.517C88.6179 48.1973 89.1627 48.7084 89.8115 48.7084C90.4583 48.7084 91 48.1973 91 47.517C91 46.8488 90.4579 46.3394 89.8115 46.3394C89.1627 46.3394 88.6179 46.8488 88.6179 47.517ZM75.3498 45.7567V47.7355H70.3906V48.3643V49.1095V49.9711H70.9585H73.1601H73.7971C74.9552 49.9711 75.8934 50.9085 75.8934 52.0664V52.8115V53.3924V53.9045C75.8934 55.0623 74.9552 55.9997 73.7971 55.9997H68.0355V54.0212H73.7276V53.3924V52.8115V51.9496H73.1601H70.9585H70.3209C69.163 51.9496 68.2245 51.0122 68.2245 49.8544V49.1095V48.3643V47.852C68.2245 46.696 69.163 45.7567 70.3209 45.7567H75.3498ZM86.716 56H81.6871C80.5292 56 79.5907 55.0626 79.5907 53.9048V52.5548V49.202V47.852C79.5907 46.696 80.5292 45.7567 81.6871 45.7567H86.716V47.7355H81.7568V49.202V50.0172H86.716V51.996H81.7568V52.5545V54.0212H86.716V56ZM52.7563 56H47.7274C46.5702 56 45.6313 55.0626 45.6313 53.9048V52.5548V49.202V47.852C45.6313 46.696 46.5702 45.7567 47.7274 45.7567H52.7563V47.7355H47.7978V49.202V50.0172H52.7563V51.996H47.7978V52.5545V54.0212H52.7563V56ZM23.8274 45.7567H24.9225H28.6022C29.76 45.7567 30.6985 46.696 30.6985 47.852V56H28.5324V47.7355H24.9225V56H22.7564V45.7567H23.8274ZM58.8121 50.0175H62.6532V49.6219V48.1327V47.7355H58.8121V50.0175ZM64.819 48.1327V49.6219V49.9011C64.819 50.9731 64.0146 51.856 62.9769 51.9809L65.0077 56H62.5695L60.798 51.9963H58.8121V56H56.6463V45.7567H57.6949H58.8124H62.7236C63.8811 45.7567 64.8196 46.696 64.8196 47.852V48.1327H64.819ZM35.6602 45.7567L38.0823 54.278L40.6445 45.7567H43.1134L39.8061 56H36.4055L33.2378 45.7567H35.6602ZM0 47.852C0 46.696 0.938817 45.7567 2.09603 45.7567H7.47656V47.7355H2.16641V54.0212H7.47686V55.9997H2.09634C0.93912 55.9997 0.000303745 55.0623 0.000303745 53.9045V47.852H0ZM10.7841 47.852C10.7841 46.696 11.7229 45.7567 12.8804 45.7567H17.3522C18.5103 45.7567 19.4488 46.696 19.4488 47.852V53.9048C19.4488 55.0626 18.5103 56 17.3522 56H12.8804C11.7229 56 10.7841 55.0626 10.7841 53.9048V47.852ZM12.9505 47.7359H17.283V54.0215H12.9505V47.7359ZM44.0561 7.56564L46.8416 16.1348H55.8564L48.5634 21.4297L51.3492 30.0003L44.0561 24.7039L36.7631 30.0003L39.5486 21.4297L32.2559 16.1348H41.2703L44.0561 7.56564ZM60.8611 19.671C60.8611 28.9474 53.3372 36.4664 44.0558 36.4664C34.7744 36.4664 27.2503 28.9471 27.2503 19.671C27.2503 10.3948 34.7747 2.87406 44.0558 2.87406C53.3369 2.87406 60.8611 10.3948 60.8611 19.671ZM44.0561 0C33.1865 0 24.375 8.80622 24.375 19.6713C24.375 30.5348 33.1865 39.341 44.0561 39.341C54.9258 39.341 63.737 30.5348 63.737 19.6713C63.7367 8.80592 54.9258 0 44.0561 0Z" fill="#a6a6a6"/>
</svg>
