<svg width="94" height="24" viewBox="0 0 94 24" fill="none" xmlns="http://www.w3.org/2000/svg">
<path d="M15.8068 20.4078H0V23.106H15.8068V20.4078Z" fill="#a6a6a6"/>
<path d="M24.5101 12.9346V10.2348C22.1817 10.0217 19.8535 9.24425 19.8535 6.51576C19.8535 3.53296 22.7098 2.64252 25.2743 2.64252C27.9206 2.64252 30.008 3.63781 30.7167 5.79074C30.8712 6.25509 30.9514 6.79564 30.9684 7.04687C30.9653 7.04524 33.8171 7.0358 33.8171 7.0358C33.8171 6.70512 33.7229 5.71454 33.3508 4.69059C32.2329 1.61221 29.0926 0 25.3391 0C21.7262 0 17.0435 1.63452 17.0435 6.48401C17.0436 11.3145 20.7506 12.8171 24.5101 12.9346Z" fill="#a6a6a6"/>
<path d="M35.7778 23.1441H38.4072L38.4118 0.553251H35.7794L35.7778 23.1441Z" fill="#a6a6a6"/>
<path d="M15.8068 10.2921H0V12.9905H15.8068V10.2921Z" fill="#a6a6a6"/>
<path d="M15.8068 0.553251H0V3.25145H15.8068V0.553251Z" fill="#a6a6a6"/>
<path d="M45.8535 0.553251H40.6968V3.24999C40.6968 3.24999 44.1306 3.25634 45.8535 3.28173C47.8685 3.31348 49.3012 4.84315 49.3012 6.7639C49.3012 8.7133 47.5936 10.2461 45.8567 10.2715C44.0518 10.2985 40.7015 10.2938 40.7015 10.2938L40.697 12.9872H45.8398C49.1423 13.062 51.9276 10.2174 51.9276 6.77025C51.9274 3.3327 49.3321 0.489753 45.8535 0.553251Z" fill="#a6a6a6"/>
<path d="M86.6722 5.51411H84.08V23.1441H86.6722V5.51411Z" fill="#a6a6a6"/>
<path d="M94 0.553251H76.751V3.25145H94V0.553251Z" fill="#a6a6a6"/>
<path d="M75.3181 0.553251H72.6981V23.1441H75.3181V0.553251Z" fill="#a6a6a6"/>
<path d="M66.5177 14.752H63.4252L68.5434 23.1887H71.6374L66.5177 14.752Z" fill="#a6a6a6"/>
<path d="M56.102 0.553251H53.4822V23.1441H56.102V0.553251Z" fill="#a6a6a6"/>
<path d="M70.5815 6.77187C70.5815 3.33579 67.9861 0.493009 64.506 0.553414H58.3935V3.25308C58.3935 3.25308 62.766 3.25633 64.506 3.28483C66.5208 3.31658 67.9538 4.84624 67.9538 6.76536C67.9538 8.71314 66.246 10.2459 64.5109 10.2713C62.7045 10.2999 58.3907 10.2983 58.3907 10.2983L58.3939 12.9916H64.4924C67.7946 13.0634 70.5815 10.2205 70.5815 6.77187Z" fill="#a6a6a6"/>
<path d="M34.4299 16.1928C33.9527 12.2016 30.4434 10.7659 26.812 10.4258L26.7997 13.124C29.0292 13.358 31.2617 13.9731 31.7357 16.1941C31.7959 16.4756 31.8283 16.784 31.8283 17.1179C31.8283 20.1071 28.6556 21.2362 25.8517 21.2362C22.7299 21.2362 20.9142 20.4473 19.98 17.9418C19.7639 17.36 19.6868 16.6697 19.6605 16.1946C19.6498 16.0083 19.645 15.8559 19.645 15.7507H16.7763C16.7763 15.8697 16.7795 16.021 16.7856 16.1946C16.8119 16.8147 16.9013 17.729 17.1608 18.543C18.3883 22.429 21.4745 24 25.8455 24C30.4851 24 34.4854 21.6929 34.4854 17.1503C34.4854 16.8147 34.4653 16.4984 34.4297 16.1947" fill="#a6a6a6"/>
</svg>
