<svg width="118" height="20" viewBox="0 0 118 20" fill="none" xmlns="http://www.w3.org/2000/svg">
<path d="M115.228 0.165688L112.457 0.156234V3.16201L115.228 3.14708V19.8393H118V0.165688H115.228ZM109.019 4.94776C109.019 2.32262 107.796 0 104.913 0C102.602 0 100.754 1.93203 100.754 4.28401V5.83093H103.525V4.2253C103.525 3.31326 104.067 2.81521 104.885 2.81521C106.243 2.81521 106.243 4.0009 106.243 4.99652C106.243 6.07473 106.243 6.62603 105.755 7.5923L100.754 17.1798V19.8343H109.019V17.0141H104.019L108.095 9.02677C108.966 7.348 109.019 6.85043 109.019 4.94776ZM82.9382 8.95363H81.3616V2.82018H82.8031C84.8438 2.82018 85.1678 3.8984 85.1678 5.88914C85.1678 7.84606 84.8728 8.95363 82.9382 8.95363ZM87.9437 5.94288C87.9437 2.12757 86.338 0.165688 83.0497 0.165688H78.5906V19.8393H81.3616V11.4419H83.0206L85.6032 19.8443H88.5385L85.5499 10.8613C87.3149 9.86566 87.9437 8.20679 87.9437 5.94288ZM66.0506 19.8393H74.3159V17.0191H68.8266V11.2469H73.6097V8.5924H68.8266V2.82018H74.3159V0.165688H66.0506V19.8393ZM56.7414 13.9009H56.6881L54.4876 0.165688H51.5524L55.4937 19.8393H57.9407L61.9111 0.165688H58.9758L56.7414 13.9009ZM39.728 19.8393H47.9928V17.0191H42.4991V11.2469H47.2822V8.5924H42.4991V2.82018H47.9884V0.165688H39.728V19.8393ZM30.2496 8.95363H28.673V2.82018H30.114C32.1551 2.82018 32.4791 3.8984 32.4791 5.88914C32.4742 7.84606 32.1793 8.95363 30.2496 8.95363ZM35.2502 5.94288C35.2502 2.12757 33.6445 0.165688 30.3561 0.165688H25.897V19.8393H28.668V11.4419H30.327L32.9092 19.8443H35.8449L32.8559 10.8613C34.6263 9.86566 35.2502 8.20679 35.2502 5.94288ZM18.6674 15.199C18.6674 16.5554 17.7965 17.1898 16.7909 17.1898C15.7849 17.1898 14.9145 16.5554 14.9145 15.199V4.80595C14.9145 3.4496 15.7849 2.81521 16.7909 2.81521C17.7965 2.81521 18.6674 3.4496 18.6674 4.80595V15.199ZM16.7909 0C14.5323 0 12.1434 1.60016 12.1434 4.80595V15.194C12.1434 18.3998 14.5372 20 16.7909 20C19.0491 20 21.4384 18.3998 21.4384 15.194V4.80595C21.4384 1.60016 19.0491 0 16.7909 0ZM0 19.8393H2.77103V11.4419H7.55414V8.78744H2.77103V2.82018H8.25984V0.165688H0V19.8393Z" fill="#a6a6a6"/>
</svg>
