<svg width="106" height="20" viewBox="0 0 106 20" fill="none" xmlns="http://www.w3.org/2000/svg">
<path fill-rule="evenodd" clip-rule="evenodd" d="M20.3166 9.69866V9.57847H12.9475V9.69866C14.9041 9.81885 15.6538 9.93903 15.6538 12.5042V17.3141C15.6538 18.5966 13.3643 19.2783 11.2407 19.2783C6.24427 19.2783 3.0386 15.751 3.0386 10.3402C3.0386 3.2863 7.15983 0.76119 10.699 0.76119C14.9873 0.76119 16.6942 3.6068 17.5688 5.85147H17.9017L17.6514 0H17.3613C17.07 0.801254 16.1122 0.961504 15.7376 0.961504C15.3631 0.961504 14.9463 0.841314 14.4053 0.681644C13.4891 0.401205 12.1984 0 10.2835 0C3.83052 0 0 4.9701 0 9.7393C0 13.547 0.916164 15.2703 2.49819 16.9128C4.37153 18.8771 7.45235 19.9994 10.9499 19.9994C14.1556 19.9994 17.9029 18.437 18.1942 18.0752V12.1431C18.193 9.9791 19.0682 9.81885 20.3166 9.69866ZM80.2696 8.53626C77.8969 7.21361 75.6484 5.93102 75.6484 3.76706C75.6484 1.8034 77.3142 0.801253 78.9373 0.801253C82.1435 0.801253 84.2256 3.40649 84.8082 5.89154H85.1827L84.5585 0H84.2666C84.1007 0.681647 83.6833 1.00215 83.0181 1.00215C82.6846 1.00215 82.2268 0.881958 81.6858 0.681644C80.8528 0.360562 79.854 0 78.7714 0C76.1906 0 73.4421 1.52296 73.4421 4.84991C73.4421 7.65546 75.2738 8.89798 78.1043 10.461C82.7256 13.0662 83.1839 14.1085 83.1839 15.8718C83.1839 17.5951 81.8516 19.3584 79.3118 19.3584C75.149 19.3584 73.5253 15.6314 72.8999 14.1485H72.5676L73.4415 19.9605H73.7322C73.816 19.4786 74.1906 18.9979 74.857 18.9979C75.2726 18.9979 75.731 19.1587 76.272 19.3584C77.146 19.6394 78.2286 20 79.6031 20C83.725 20 85.889 17.4348 85.889 14.8697C85.8896 11.7024 83.0175 10.0993 80.2696 8.53626ZM100.379 8.53626C98.0054 7.21361 95.7581 5.93102 95.7581 3.76706C95.7581 1.8034 97.4228 0.801253 99.088 0.801253C102.294 0.801253 104.334 3.40649 104.958 5.89154H105.291L104.667 0H104.376C104.209 0.681647 103.793 1.00215 103.127 1.00215C102.794 1.00215 102.336 0.881958 101.796 0.681644C100.963 0.360562 99.9626 0 98.88 0C96.3414 0 93.5519 1.52296 93.5519 4.84991C93.5519 7.65546 95.4246 8.89798 98.2141 10.461C102.835 13.0662 103.335 14.1085 103.335 15.8718C103.335 17.5951 102.002 19.3584 99.4216 19.3584C95.2997 19.3584 93.6339 15.6314 93.0096 14.1485H92.7189L93.5519 19.9605H93.8426C93.9264 19.4786 94.342 18.9979 95.009 18.9979C95.3836 18.9979 95.8408 19.1587 96.424 19.3584C97.2569 19.6394 98.3396 20 99.7551 20C103.835 20 106 17.4348 106 14.8697C105.999 11.7024 103.169 10.0993 100.379 8.53626ZM42.5078 4.56831C42.5078 1.44226 43.0905 0.880797 45.3806 0.600358V0.440107H38.7189V0.600358C40.842 0.760609 41.5917 1.44226 41.5917 4.56831V12.5443C41.5917 15.1089 41.2587 16.0709 40.842 16.6719C39.8848 18.2355 37.9692 19.1169 35.6381 19.1169C30.1007 19.1169 30.1007 14.7489 30.1007 12.9048V3.44597C30.1007 1.28142 30.5591 0.800672 32.8902 0.600358V0.440107H24.6466V0.600358C26.8534 0.760609 27.3944 1.16182 27.3944 3.44597V12.6639C27.3944 14.4673 27.3944 19.9988 34.7636 19.9988C42.5078 19.9988 42.5078 14.5881 42.5078 12.3033V4.56831ZM67.2382 15.0293H66.8215C65.4481 17.9957 63.8245 18.8765 59.9523 18.8765C55.4137 18.8765 55.1224 18.8765 55.1224 17.4342V9.89897H55.3721L60.0772 9.93903C62.658 9.9791 63.2823 10.4598 63.6574 12.7846H63.9493V6.33165H63.6574C63.3251 8.41607 62.8667 9.1372 60.0772 9.1372H55.1224V2.32422C55.1224 1.12175 55.7467 1.12176 56.3709 1.12176H60.535C63.9903 1.12176 64.9065 1.68322 65.4059 4.24781H65.7394L65.6556 0.440107H49.7931V0.600358C51.5832 0.760609 52.4572 1.00099 52.4572 3.44597V16.5517C52.4572 18.9171 51.6248 19.2777 49.7931 19.3979V19.5976H65.9891L67.2382 15.0293Z" fill="#a6a6a6"/>
</svg>
