<svg width="64" height="42" viewBox="0 0 64 42" fill="none" xmlns="http://www.w3.org/2000/svg">
<path d="M44.9768 1.27397C47.3015 0.138208 48.4534 0.287253 48.4794 1.43847C48.5104 2.93396 48.2882 4.92268 48.128 6.36166C47.2652 14.1827 45.8239 20.5736 45.7155 28.6039C49.5124 18.8253 52.6946 12.029 56.7964 3.65853C58.0983 0.991335 58.93 1.48986 59.9993 1.01703C64.163 -0.827848 64.3181 0.302709 63.7755 2.55879C61.7557 10.9149 56.5845 37.2245 55.7943 41.2757C55.5669 42.4479 54.2858 41.951 53.9551 41.4926C52.4726 39.4524 50.7988 39.4205 50.9847 38.0638C51.9146 31.3095 55.2621 14.3631 56.1352 10.3701C51.6872 19.4415 47.0741 30.7818 44.7029 37.2118C44.2018 38.5772 43.2874 38.477 42.7192 37.478C41.9185 36.0746 40.3635 35.3581 40.1052 33.6997C39.2942 28.4272 41.0351 18.3772 41.2778 12.0192C38.8551 18.9646 34.7895 32.4489 33.0072 38.5412C32.2737 41.0619 29.825 40.6507 30.4758 38.1938C33.1827 27.9697 39.0152 9.88701 41.5362 3.38613C42.1305 1.85462 43.6853 1.906 44.9768 1.27397Z" fill="#a6a6a6"/>
<path d="M30.2126 0.0199786C29.4274 -0.170124 27.1492 1.05297 25.7492 1.29446C25.305 1.37155 24.8813 1.83916 24.7315 2.17328C22.4894 7.2969 20.4799 12.181 18.739 16.6304C16.5125 17.0086 13.9089 17.5066 10.9953 18.1577C13.0823 12.8321 15.1901 7.57945 17.2461 2.52779C18.2586 0.0404623 15.593 -0.195905 14.5598 2.32224C13.2166 5.59586 10.7008 11.7293 7.9163 18.8782C5.87058 19.3772 3.70094 19.9476 1.43305 20.5993C-0.214945 21.0725 -0.282018 21.5093 0.430898 22.4925C0.82348 23.0399 1.63454 22.9847 2.00645 23.3748C2.96735 24.3857 3.55111 25.5948 5.27127 25.7779C3.73697 29.8608 2.2027 34.0712 0.813088 38.1254C-0.0599487 40.6702 2.42484 41.1908 3.3806 38.4979C4.92004 34.1569 6.54216 29.7635 8.21074 25.3831C9.60036 25.0618 12.9634 24.3413 16.0681 23.6712C13.6039 30.3899 11.9817 35.4925 11.3671 37.9762C11.2535 38.4541 11.4446 38.7193 11.5479 38.9141C12.3796 40.1181 13.17 40.1675 14.2394 41.6562C14.5287 42.0622 15.4999 42.2811 15.8305 41.2816C18.1138 34.4204 20.4643 27.9828 22.6546 22.2116C23.5638 22.0138 25.2014 21.6207 26.2036 20.1329C27.9858 17.4924 28.4972 18.0279 28.9261 17.2252C29.4634 16.2175 29.1068 15.2713 27.2059 15.5051C27.2059 15.5051 26.4878 15.556 25.1601 15.7065C27.2678 10.308 29.112 5.72909 30.4397 2.23976C30.8945 1.05809 30.9513 0.194719 30.2126 0.0199786Z" fill="#a6a6a6"/>
<path d="M27.1027 35.0342C27.5935 36.2681 29.1278 35.8945 28.544 34.4053C27.9499 32.8881 26.4725 28.3211 26.0849 26.8497C25.5581 24.8671 27.8414 25.4093 26.6842 26.7055C25.6924 27.82 25.0311 28.2666 23.1972 30.386C21.4253 32.4318 21.9058 35.0867 23.8017 35.6731C25.9403 36.3349 27.826 33.9906 28.9934 32.2706C30.1247 30.605 29.0295 29.6281 27.8879 30.6127C27.1543 31.2458 26.3071 32.2181 25.4495 32.7423C24.7521 33.1642 24.2045 32.7109 25.1344 31.4375C26.2141 29.9632 27.4229 28.7278 28.3218 27.3345C30.1557 24.4952 26.5292 22.8585 24.9691 24.7028C24.1321 25.6859 24.344 26.6511 24.5713 27.4794C24.9381 28.8063 26.302 33.0419 27.1027 35.0342Z" fill="#a6a6a6"/>
</svg>
