<svg width="90" height="22" viewBox="0 0 90 22" fill="none" xmlns="http://www.w3.org/2000/svg">
<path d="M66.3375 0.536585V1.03484L66.525 1.07317L66.8625 1.34146C67.35 1.9547 67.35 3.4878 67.35 3.4878V18.5122C67.35 20.0453 66.8625 20.6585 66.8625 20.6585L66.525 20.9268L66.3375 20.9652V21.4251H72.375V20.9652L71.8875 20.6585C71.3625 20.0453 71.3625 18.5122 71.3625 18.5122V12.7247H73.2C76.875 12.7247 79.05 11.1916 79.05 11.1916C81.375 9.54355 81.375 6.51568 81.375 6.51568C81.375 3.37282 79.05 1.87805 79.05 1.87805C76.9875 0.536585 73.2 0.536585 73.2 0.536585H66.3375ZM71.3625 2.10801H72.9C75.1125 2.10801 76.275 3.41115 76.275 3.41115C77.2875 4.56098 77.2875 6.51568 77.2875 6.51568C77.2875 8.43206 76.275 9.69686 76.275 9.69686C75.1125 11.1533 72.9 11.1533 72.9 11.1533H71.3625V2.10801Z" fill="#a6a6a6"/>
<path d="M86.1 0.689895C86.1 0.689895 86.7 0 87.7875 0C87.7875 0 88.8375 0 89.4375 0.689895C89.4375 0.689895 90 1.34146 90 2.41463L89.25 8.20209C89.25 8.20209 88.4625 13.453 88.35 15.5226L87.7875 15.4843L87.1875 15.5226C87.1875 15.5226 87.1125 13.453 86.2875 8.20209L85.5375 2.41463C85.5375 2.41463 85.5375 1.34146 86.1 0.689895Z" fill="#a6a6a6"/>
<path d="M89.2875 18.2822C89.2875 18.2822 89.8875 18.8955 89.8875 19.8153C89.8875 19.8153 89.8875 20.6969 89.2875 21.3484C89.2875 21.3484 88.65 22 87.7875 22C87.7875 22 86.8875 22 86.25 21.3484C86.25 21.3484 85.65 20.6969 85.65 19.8153C85.65 19.8153 85.65 18.8955 86.25 18.2822C86.25 18.2822 86.8875 17.6307 87.7875 17.6307C87.7875 17.6307 88.65 17.6307 89.2875 18.2822Z" fill="#a6a6a6"/>
<path d="M52.125 0C47.5125 0 44.4375 3.10453 44.4375 3.10453C41.4 6.24739 41.4 11 41.4 11C41.4 15.7143 44.4375 18.8571 44.4375 18.8571C47.475 22 52.125 22 52.125 22C56.6625 22 59.7375 18.8955 59.7375 18.8955C62.85 15.7526 62.85 11 62.85 11C62.85 6.20906 59.775 3.10453 59.775 3.10453C56.7375 0 52.125 0 52.125 0ZM52.125 1.5331C55.0125 1.5331 56.7 4.10105 56.7 4.10105C58.425 6.63066 58.425 11 58.425 11C58.425 15.4077 56.7375 17.899 56.7375 17.899C55.0875 20.4286 52.125 20.4286 52.125 20.4286C49.2 20.4286 47.5125 17.899 47.5125 17.899C45.7875 15.331 45.7875 11 45.7875 11C45.7875 6.63066 47.475 4.10105 47.475 4.10105C49.2 1.5331 52.125 1.5331 52.125 1.5331Z" fill="#a6a6a6"/>
<path d="M27.1125 0C22.5 0 19.4625 3.10453 19.4625 3.10453C16.3875 6.24739 16.3875 11 16.3875 11C16.3875 15.7143 19.4625 18.8571 19.4625 18.8571C22.5 22 27.1125 22 27.1125 22C31.6875 22 34.7625 18.8955 34.7625 18.8955C37.8375 15.7526 37.8375 11 37.8375 11C37.8375 6.20906 34.8 3.10453 34.8 3.10453C31.7625 0 27.1125 0 27.1125 0ZM27.1125 1.5331C30 1.5331 31.725 4.10105 31.725 4.10105C33.45 6.63066 33.45 11 33.45 11C33.45 15.4077 31.7625 17.899 31.7625 17.899C30.075 20.4286 27.1125 20.4286 27.1125 20.4286C24.225 20.4286 22.5375 17.899 22.5375 17.899C20.8125 15.331 20.8125 11 20.8125 11C20.8125 6.63066 22.5 4.10105 22.5 4.10105C24.1875 1.5331 27.1125 1.5331 27.1125 1.5331Z" fill="#a6a6a6"/>
<path d="M12.375 1.34146C12.375 1.34146 11.8875 1.9547 11.8875 3.4878V16.0592C11.8875 16.0592 11.8875 19.0871 9.9 20.5819C9.9 20.5819 8.1 22 4.9125 22L2.325 21.5784C2.325 21.5784 0.9375 21.1568 0 20.3902L1.125 18.0523C1.125 18.0523 2.4375 20.3136 4.9125 20.3136C4.9125 20.3136 6.1125 20.3136 6.8625 19.5854C6.8625 19.5854 7.7625 18.7422 7.7625 17.1324V3.4878C7.7625 3.4878 7.7625 1.9547 7.275 1.34146L6.9 1.07317L6.75 1.03484V0.536585H12.9V1.03484L12.75 1.07317C12.75 1.07317 12.525 1.14983 12.375 1.34146Z" fill="#a6a6a6"/>
</svg>
