<svg viewBox="0 0 99 16" fill="none" xmlns="http://www.w3.org/2000/svg">
<path d="M99 8.06191C99 3.52209 94.7583 0 89.5506 0C84.5065 0 80.076 3.35964 80.076 7.81604C80.076 12.0204 83.5559 15.388 88.2431 15.9236V13.3788C85.177 12.888 82.8592 10.662 82.8592 7.98376C82.8592 4.94726 85.8385 2.48153 89.5145 2.48153C93.1905 2.48153 96.1707 4.94726 96.1707 7.98376C96.1707 10.6418 93.8899 12.8529 90.8582 13.3666V15.9157C95.3574 15.3844 99 12.1416 99 8.06191ZM68.973 13.5316C66.0813 13.5316 63.6189 12.0108 62.7017 9.87959H59.7414C60.7209 13.551 64.5677 16 69.1374 16C70.1974 16 71.4191 15.899 72.4321 15.6531C74.7201 15.1035 77.2178 13.659 77.2178 11.3794V7.3322H68.9441L68.935 9.87959H74.5719V11.0361C74.5719 12.3137 72.6092 13.0531 71.4065 13.3121C70.7604 13.4517 69.929 13.5316 69.2612 13.5316H68.973ZM74.5782 4.65924C73.3231 3.39389 71.3875 2.58339 69.217 2.58339C65.7542 2.58339 62.8915 4.65046 62.4342 7.3322H59.5336C59.9122 3.16997 64.2948 0.10186 69.2531 0.10186C72.2035 0.10186 74.8511 1.16876 76.6358 2.88546L74.5782 4.65924ZM43.4497 0.43642H40.7695V15.6602H43.4045V4.28429L54.2039 15.6602H56.1666V13.8091L43.4497 0.43642ZM56.1666 0.43642H53.5307V7.83009L56.1666 10.4003V0.437298V0.43642ZM33.0217 10.9395L35.4525 15.6602H38.6215L30.6713 0.437298H27.8149L27.8131 0.441688L31.7936 8.51413H26.5046L27.8863 5.88332L26.4468 3.02245L19.7481 15.6602H22.7094L25.2151 10.9412L33.0226 10.9403L33.0217 10.9395ZM2.6567 0.437298H0V15.6602H2.63411V5.19401L8.6153 14.487L10.1388 12.1161L2.6576 0.437298H2.6567ZM10.0286 7.58158L11.5449 9.91823L14.5947 5.19401V15.6593H17.2225V0.437298H14.5414L10.0286 7.58158Z" fill="#a6a6a6"/>
</svg>
