<svg width="86" height="20" viewBox="0 0 86 20" fill="none" xmlns="http://www.w3.org/2000/svg">
<path d="M22.5562 4.67147C22.2395 3.75545 21.7742 2.82638 21.1254 2.10619C20.9834 1.94953 20.7977 1.74935 20.6361 1.61228C20.5749 1.56003 20.4351 1.44909 20.3543 1.44909C20.1356 1.32361 19.9186 1.19523 19.7034 1.06397C18.941 0.726721 17.9406 0.511316 17.117 0.37436C15.387 0.0849171 13.4232 0 11.6669 0C9.88658 0 7.9556 0.0936808 6.19715 0.385119C5.36926 0.522195 4.37973 0.7376 3.60863 1.07268C3.42084 1.18159 3.14779 1.33812 2.95987 1.44909C2.87689 1.44909 2.73927 1.558 2.67592 1.61228C2.51431 1.74935 2.33079 1.94735 2.18877 2.10619C1.54 2.83291 1.07473 3.7511 0.757988 4.67147C0.487122 5.45476 0.305877 6.28157 0.190043 7.09973C0.0546101 8.05485 0 9.03838 0 10.0001C0 10.9596 0.0546101 11.9365 0.192228 12.8874C0.31237 13.7164 0.498044 14.5497 0.76891 15.3417C1.08783 16.2621 1.55093 17.1803 2.20185 17.9092C2.34162 18.0659 2.52511 18.2617 2.68245 18.3987C2.74361 18.451 2.88123 18.5619 2.95987 18.5619C3.15428 18.6771 3.41204 18.8273 3.60863 18.9383C4.38631 19.2776 5.37145 19.491 6.20814 19.6279C7.94911 19.9152 9.90409 20 11.667 20C13.4341 20 15.3892 19.9151 17.1301 19.6279C17.9602 19.491 18.9322 19.2755 19.7033 18.9383L20.3542 18.5619C20.4372 18.5619 20.5748 18.4487 20.636 18.3964C20.7976 18.2573 20.9833 18.0548 21.1253 17.8959C21.7719 17.1714 22.2372 16.2445 22.5561 15.3285C22.8313 14.5409 23.0148 13.7097 23.135 12.8851C23.2725 11.9364 23.3272 10.9594 23.3272 9.99991C23.3272 9.04038 23.2725 8.06138 23.135 7.11261C23.017 6.2881 22.8314 5.45697 22.5562 4.67147ZM18.065 13.2029C17.8749 13.7534 17.5954 14.2929 17.2087 14.7259C17.1257 14.8172 17.0164 14.9347 16.9225 15.0131C16.8853 15.0457 16.8044 15.1109 16.7543 15.1109C16.6603 15.172 16.4833 15.2893 16.3916 15.3524C15.9417 15.5831 15.3911 15.7245 14.8931 15.8138C13.873 16.0008 12.7043 16.0531 11.6667 16.0531C10.627 16.0531 9.44512 16.0009 8.42069 15.8138C7.92046 15.7246 7.37873 15.581 6.92441 15.3524C6.80869 15.2785 6.67539 15.1871 6.56183 15.1109C6.51162 15.1109 6.42855 15.0436 6.38926 15.0108C6.29314 14.9303 6.18174 14.8107 6.09873 14.7149C5.71428 14.284 5.43904 13.7248 5.25118 13.1809C4.91042 12.1887 4.79901 11.0485 4.79901 9.99979C4.79901 8.94452 4.91697 7.80875 5.26429 6.81005C5.4456 6.26168 5.71865 5.71344 6.10966 5.28698C6.19048 5.19569 6.2997 5.07605 6.39357 4.99766C6.43076 4.96502 6.51159 4.90186 6.5618 4.90186C6.68718 4.81902 6.8117 4.73488 6.93533 4.64947C7.37876 4.42318 7.94234 4.27958 8.43165 4.1882C9.44736 3.99878 10.6335 3.94668 11.6667 3.94668C12.7196 3.94668 13.8731 4.00534 14.9062 4.19907C15.3933 4.29046 15.9635 4.43406 16.4047 4.66252C16.4747 4.71039 16.6843 4.85194 16.7542 4.90186C16.8044 4.90186 16.8875 4.96714 16.9246 4.99977C17.0207 5.08028 17.1342 5.20212 17.2173 5.29568C17.6061 5.73308 17.8857 6.26839 18.0758 6.82099C18.4188 7.80881 18.5279 8.95552 18.5279 9.99979C18.528 11.0619 18.4102 12.1998 18.065 13.2029ZM80.812 0.317729L74.7153 8.70545L68.4418 0.317729H63.1904L72.3933 13.1593V19.6063H76.9718V13.1593L86 0.317729H80.812ZM84.0078 17.598C83.9531 17.4544 83.8375 17.3195 83.7217 17.215C83.6431 17.1715 83.5535 17.1301 83.4661 17.1062C83.1625 17.0257 82.7584 17.0083 82.4438 17.0083C82.1095 17.0083 81.7339 17.0322 81.4106 17.1171C81.3253 17.1389 81.2358 17.1781 81.1571 17.215C81.0763 17.2824 80.9976 17.3652 80.9496 17.4565C80.7835 17.7372 80.7354 18.1201 80.7354 18.4443C80.7354 18.7294 80.7747 19.0253 80.8796 19.2908C80.9343 19.4322 81.0457 19.5649 81.1571 19.6715C81.2357 19.7173 81.3208 19.7586 81.4105 19.7825C81.7229 19.863 82.1204 19.8804 82.4438 19.8804C82.7736 19.8804 83.1602 19.8565 83.4792 19.7695C83.56 19.7499 83.6495 19.7107 83.7216 19.6715C83.8046 19.6063 83.8898 19.5236 83.94 19.4301C84.1126 19.1494 84.165 18.773 84.165 18.4444C84.1652 18.1572 84.1171 17.8678 84.0078 17.598ZM83.8657 19.0102C83.8265 19.1537 83.7609 19.2973 83.6647 19.4105C83.6276 19.4475 83.5774 19.4867 83.5338 19.5193C83.4748 19.5606 83.407 19.5932 83.3349 19.6064C83.0685 19.6782 82.7212 19.6955 82.4437 19.6955C82.1357 19.6955 81.7294 19.6716 81.4432 19.5606C81.4058 19.5454 81.3693 19.528 81.3339 19.5084C81.2685 19.454 81.1854 19.3756 81.1461 19.3017C81.0064 19.0601 80.9714 18.723 80.9692 18.4444C80.9714 18.2595 80.9866 18.0594 81.0325 17.8786C81.0697 17.7372 81.1308 17.5958 81.2226 17.4804C81.2488 17.4457 81.3143 17.3999 81.3493 17.376C81.4106 17.3347 81.4827 17.3086 81.5547 17.2934C81.819 17.2216 82.1684 17.2063 82.4438 17.2063C82.7212 17.2063 83.0773 17.2216 83.3459 17.2934C83.4289 17.3107 83.5054 17.3521 83.5731 17.4043C83.6385 17.4522 83.7041 17.5154 83.7434 17.5893C83.8875 17.8373 83.9312 18.1593 83.9312 18.4444C83.9313 18.6315 83.916 18.8295 83.8657 19.0102Z" fill="#a6a6a6"/>
<path d="M82.8958 18.477C82.9505 18.4574 82.9942 18.416 83.0204 18.3638C83.051 18.2986 83.0597 18.2115 83.0618 18.1376C83.0597 18.0549 83.051 17.9614 83.0204 17.8874C82.9941 17.8287 82.9527 17.7765 82.8958 17.7482C82.7583 17.6809 82.5551 17.6656 82.4 17.6656H81.8386V19.2561H82.1247V18.6209H82.3891C82.4437 18.6209 82.6928 18.6209 82.7408 18.6404C82.7822 18.6622 82.7845 18.8035 82.7845 18.8493V19.2561H83.0619V18.8754C83.0598 18.7927 83.0575 18.6773 83.0379 18.5967C83.0225 18.5356 82.9571 18.4943 82.8958 18.477ZM82.6972 18.3465C82.6798 18.3552 82.5989 18.3596 82.5792 18.3596C82.5267 18.364 82.4656 18.3683 82.4131 18.3683H82.1247V17.9157H82.3999C82.4524 17.9157 82.6075 17.9177 82.6577 17.9309C82.6861 17.9353 82.7145 17.9482 82.7298 17.9722C82.7757 18.0005 82.7844 18.0962 82.7844 18.1484C82.7845 18.2225 82.7627 18.3139 82.6972 18.3465ZM67.5265 15.209V19.6193H51.4667V0.306847H56.0889V15.209H67.5265ZM47.1394 0.287204H42.5828V12.6111L31.3199 0.287204H26.5733V19.6063H31.2086V7.0279L42.5828 19.6063H47.1394V0.287204Z" fill="#a6a6a6"/>
</svg>
