<svg width="132" height="22" viewBox="0 0 132 22" fill="none" xmlns="http://www.w3.org/2000/svg">
<path fill-rule="evenodd" clip-rule="evenodd" d="M93.6524 7.24121C96.1438 7.31531 98.6266 7.57492 101.081 8.01795C106.008 8.90658 110.781 10.5252 115.252 12.8228L103.363 5.76352L93.6524 7.24121Z" fill="#a6a6a6"/>
<path fill-rule="evenodd" clip-rule="evenodd" d="M70.8905 3.01966C71.0063 3.18425 71.1495 3.33152 71.3111 3.4499C71.6273 3.68502 72.0081 3.81165 72.399 3.81165C72.7899 3.81165 73.1708 3.68502 73.487 3.4499C73.6486 3.33079 73.7918 3.18425 73.9075 3.01966C74.0788 2.77906 74.1921 2.5004 74.2381 2.20646C74.2841 1.91251 74.2614 1.6116 74.1721 1.3283C74.0504 0.939744 73.8103 0.601261 73.487 0.362431C73.1709 0.126895 72.79 0 72.399 0C72.008 0 71.6271 0.126895 71.3111 0.362431C71.1494 0.482266 71.0074 0.627752 70.8905 0.793393C70.7192 1.03387 70.6059 1.3124 70.56 1.60623C70.514 1.90006 70.5366 2.20085 70.626 2.48403C70.6852 2.67316 70.7734 2.85508 70.8905 3.01966ZM70.868 1.40988C70.9618 1.11174 71.153 0.802776 71.462 0.574663C71.6645 0.424081 71.8988 0.324377 72.1459 0.283619C72.393 0.242861 72.646 0.262196 72.8844 0.340055C73.1286 0.421214 73.3506 0.56041 73.5321 0.746238C73.7136 0.932065 73.8495 1.15924 73.9287 1.40915C74.0299 1.73191 74.0299 2.07898 73.9287 2.40173C73.8495 2.65178 73.7136 2.87907 73.5319 3.06492C73.3503 3.25077 73.1281 3.38988 72.8837 3.47084C72.5678 3.57443 72.2281 3.57443 71.9122 3.47084C71.6678 3.38999 71.4457 3.25091 71.2642 3.06503C71.0826 2.87916 70.9468 2.65182 70.868 2.40173C70.7671 2.07917 70.7671 1.73244 70.868 1.40988ZM15.5109 2.94098C15.2325 2.44175 14.8794 1.99017 14.4646 1.60262C14.0911 1.25532 13.6693 0.96678 13.2129 0.746469C12.7529 0.524852 12.2456 0.365318 11.6381 0.264255C11.0306 0.163192 10.3223 0.151643 9.6167 0.151643H0.0119944L0 17.868H4.51272V4.33276H9.93702C10.0584 4.33276 10.1741 4.38835 10.2863 4.41217C10.3978 4.43671 10.5022 4.45693 10.6094 4.48797C10.9424 4.59047 11.2395 4.70886 11.528 5.08279C11.5859 5.15931 11.6402 5.24594 11.691 5.34483C11.7425 5.44373 11.7898 5.55562 11.8314 5.68484C11.8731 5.81405 11.9098 5.96059 11.9352 6.12807C11.9645 6.32729 11.9775 6.52868 11.974 6.73012C11.9705 7.00234 11.9503 7.27407 11.9133 7.54367C11.8759 7.80283 11.8216 8.01289 11.7602 8.19408C11.7063 8.35545 11.6383 8.51153 11.557 8.66042C11.4903 8.78195 11.4126 8.89676 11.3248 9.00331C10.7964 9.60103 10.294 9.67321 9.74088 9.69054L5.59081 9.68909V13.9669L8.51533 13.9684C8.96689 13.9633 9.45584 14.0269 9.92221 14.2694C10.1409 14.3842 10.3434 14.5372 10.517 14.7163C10.8691 15.0671 11.0638 15.5515 11.1668 15.9961C11.2225 16.2149 11.2994 16.4134 11.2994 16.6198V22H15.7289V15.5897C15.7289 15.0332 15.6217 14.4766 15.4926 14.0406C15.3627 13.6046 15.1934 13.2884 14.9733 13.0206C14.753 12.7539 14.4823 12.5356 14.1774 12.3788C13.8678 12.2214 13.531 12.1274 13.1861 12.1023C13.5903 11.9539 13.9726 11.7491 14.322 11.4938C14.6628 11.244 14.957 10.9517 15.2117 10.6109C15.4664 10.2702 15.6824 9.88111 15.906 9.30938C16.129 8.73766 16.3611 7.98402 16.4549 7.22893C16.5488 6.47385 16.5043 5.71804 16.3272 4.9774C16.1485 4.26322 15.8738 3.57788 15.5109 2.94098Z" fill="#a6a6a6"/>
<path fill-rule="evenodd" clip-rule="evenodd" d="M71.9418 1.97655H72.3609C72.5154 1.98377 72.6114 1.95417 72.7342 2.10432C72.785 2.196 72.7878 2.29851 72.8047 2.45588C72.8132 2.56993 72.8118 2.63201 72.8421 2.71142H73.0954C73.0689 2.67444 73.0497 2.63251 73.039 2.58798C73.0319 2.57427 73.0213 2.44577 73.01 2.33532C72.9924 2.16785 72.9769 1.99604 72.8238 1.91663C72.7999 1.90364 72.7752 1.89254 72.7497 1.88343C72.8929 1.84012 73.0531 1.6712 73.0587 1.56652C73.0848 1.43081 73.0862 1.1962 72.8633 1.04388C72.7723 0.992631 72.7638 0.998405 72.6798 0.985411C72.6097 0.979393 72.5393 0.976742 72.4689 0.977469H71.7245V2.71214H71.9425V1.97655H71.9418ZM71.9418 1.17238H72.4407C72.5521 1.17094 72.6474 1.1731 72.7299 1.2128C72.9268 1.35285 72.8626 1.56508 72.785 1.67913C72.6968 1.76937 72.6622 1.77948 72.5331 1.79536C72.4766 1.80041 72.3913 1.80258 72.3073 1.80258H71.9418V1.17238ZM36.3953 4.29956C35.833 4.39196 35.3052 4.5421 34.7725 4.75361C34.2398 4.96513 33.7036 5.23944 33.1991 5.62564C32.6715 6.03519 32.2103 6.52729 31.8325 7.08383C31.4363 7.66426 31.1327 8.30532 30.9329 8.9831C30.7311 9.66672 30.6366 10.3908 30.6549 11.1047C30.6733 11.8186 30.8052 12.5232 31.0423 13.1722C31.2793 13.8226 31.6215 14.4188 31.8882 14.8238C32.1549 15.2288 32.3461 15.4432 32.5373 15.6381C32.7285 15.8323 32.919 16.007 33.1293 16.1781C33.3396 16.3491 33.5703 16.5181 33.9477 16.731C34.3252 16.944 34.8501 17.2017 35.3715 17.3951C36.4355 17.8008 37.5362 17.8903 38.6693 17.868H44.7335V13.9417H38.658C38.1225 13.9489 37.6187 13.9121 37.1213 13.7742C36.8734 13.7095 36.6322 13.6205 36.4009 13.5085C36.0116 13.3162 35.6792 13.0215 35.4379 12.6546C35.3126 12.4651 35.2125 12.2595 35.1401 12.0431C34.9785 11.5703 34.9277 10.9971 35.083 10.4709C35.1571 10.2052 35.2749 9.94103 35.4294 9.70498C35.7166 9.24803 36.209 8.88204 36.643 8.71167C37.0486 8.55214 37.3295 8.54852 37.6561 8.51676C37.8184 8.50377 37.9899 8.48428 38.1613 8.48428C38.9833 8.48644 39.8081 8.47562 40.6272 8.49222L40.6138 8.52182L40.1954 9.24009C39.7827 9.95114 38.9431 11.3703 38.1296 12.7888C39.523 12.804 40.9172 12.8004 42.3107 12.8054L44.7342 8.44097V4.19994H38.1493C37.5545 4.19994 36.9583 4.20715 36.3953 4.29956ZM73.2591 6.88749C72.8203 6.2679 72.2883 5.72335 71.6829 5.27409C71.085 4.83298 70.4228 4.49118 69.7207 4.26129C68.681 3.92314 67.5783 3.83861 66.501 4.01447C65.4236 4.19033 64.4014 4.62171 63.5161 5.27409C62.304 6.16907 61.4043 7.4382 60.9493 8.89503C60.7307 9.59686 60.6198 10.3291 60.6205 11.0657C60.6192 12.1968 60.8812 13.312 61.3847 14.319C61.8882 15.326 62.6188 16.1958 63.5161 16.8566C64.704 17.7352 66.1327 18.2077 67.5984 18.2065C69.065 18.2086 70.4946 17.7361 71.6829 16.8566C72.4265 16.3082 73.0573 15.6153 73.539 14.8173C74.0208 14.0194 74.3441 13.1321 74.4904 12.2063C74.6368 11.2804 74.6034 10.3341 74.3921 9.42151C74.1809 8.50887 73.7958 7.64779 73.2591 6.88749ZM69.9063 12.7672C69.7285 13.0191 69.5084 13.2436 69.2628 13.4263C69.0186 13.6058 68.7484 13.7452 68.462 13.8392C67.5942 14.1128 66.7052 13.9835 65.9347 13.4263C65.4392 13.0618 65.0718 12.5436 64.887 11.9486C64.7505 11.5155 64.716 11.0555 64.7862 10.6061C64.8565 10.1568 65.0295 9.73075 65.2913 9.36281C65.6484 8.85664 66.1545 8.48073 66.7355 8.2901C67.159 8.15179 67.6084 8.11717 68.0473 8.18901C68.4863 8.26086 68.9026 8.43716 69.2628 8.70373C69.7563 9.07015 70.1229 9.58766 70.3099 10.1814C70.5773 11.07 70.451 11.9789 69.9063 12.7672ZM22.2447 4.29956C21.6831 4.39196 21.1546 4.5421 20.6226 4.75361C20.0907 4.96513 19.5537 5.23944 19.0493 5.62564C18.5214 6.03517 18.0599 6.52727 17.6819 7.08383C16.8784 8.26035 16.4658 9.66998 16.505 11.1047C16.5219 11.811 16.6528 12.5096 16.8924 13.1722C17.1294 13.8226 17.4716 14.4188 17.7383 14.8238C18.005 15.2288 18.1962 15.4432 18.3867 15.6381C18.5772 15.833 18.7684 16.007 18.978 16.1781C19.1882 16.3491 19.419 16.5181 19.7964 16.731C20.1739 16.944 20.6988 17.2017 21.2202 17.3951C21.7416 17.5886 22.2595 17.7171 22.8099 17.7936C23.3602 17.8701 23.9416 17.8644 24.5215 17.8644H30.5554V13.9438L24.506 13.9525C23.9705 13.954 23.4667 13.9085 22.97 13.7742C22.722 13.7092 22.4805 13.6203 22.2489 13.5085C22.048 13.4092 21.8613 13.2819 21.6944 13.1303C21.3709 12.8368 21.1277 12.4621 20.9888 12.0431C20.8287 11.5811 20.7729 10.9813 20.9296 10.4341C21.0043 10.1641 21.1236 9.90927 21.2788 9.67754C21.5674 9.22781 22.0577 8.85749 22.4924 8.68785C22.8981 8.52831 23.1789 8.52543 23.5055 8.49366C23.6678 8.48067 23.8393 8.46046 24.01 8.46046L26.2614 8.46335L24.0552 12.7795H28.165L30.5766 8.41281L30.5808 4.20066H23.9959C23.4018 4.19994 22.8063 4.20715 22.2447 4.29956ZM86.4043 9.63784C86.7733 9.20327 87.0548 8.70229 87.2326 8.15727C87.4104 7.61225 87.4527 7.02392 87.4527 6.44136V4.3934H83.5214C83.5447 4.99111 83.5066 5.59388 83.4219 6.06382C83.3379 6.53305 83.2109 6.87088 83.0388 7.17696C82.8673 7.47926 82.6539 7.75451 82.4052 7.99412C81.8965 8.48933 81.2975 8.75932 80.709 8.7622L79.5265 8.76798L79.5047 0.969533L75.404 0.976026L75.4082 17.868H79.5301V12.8625H81.0583C81.3631 12.8625 81.6658 12.9469 81.9459 13.0675C82.2267 13.188 82.4849 13.3584 82.6846 13.5829C82.8829 13.8081 83.0226 14.0861 83.1242 14.3438C83.2272 14.6008 83.2921 14.8368 83.3485 15.205C83.405 15.5731 83.4699 16.0755 83.4713 16.578L83.4741 17.8672H87.4069L87.4111 15.34C87.4125 14.8419 87.3737 14.3423 87.3158 13.941C87.2594 13.5396 87.1797 13.2357 87.0929 12.9758C87.0061 12.7159 86.9109 12.4994 86.8093 12.3102C86.6337 11.9762 86.4018 11.6765 86.1242 11.4252C85.9958 11.3119 85.861 11.2108 85.6846 11.0917C85.5082 10.9726 85.2902 10.8354 85.0687 10.7048C85.5754 10.4381 86.0285 10.0762 86.4043 9.63784ZM59.474 8.65536C59.3942 8.37821 59.2957 8.10709 59.1791 7.84397C58.8601 7.15169 58.4403 6.49839 57.5796 5.8256C57.3057 5.6167 57.0152 5.43173 56.711 5.27265C56.345 5.0823 55.9644 4.92296 55.573 4.7962C55.139 4.65399 54.6459 4.53055 54.0744 4.44465C53.5029 4.35875 52.8538 4.30677 52.2047 4.30677H50.8084V8.54492L53.0732 8.5608C53.2983 8.56224 53.5233 8.58751 53.7364 8.63659C53.9502 8.68496 54.1534 8.75715 54.3432 8.85172C54.7296 9.04236 55.0606 9.33301 55.3035 9.69487C55.6816 10.263 55.8192 10.9408 55.6837 11.605C55.5988 12.0108 55.4087 12.3858 55.1334 12.6907C54.8483 13.0051 54.4907 13.2416 54.0934 13.3786C53.8803 13.4522 53.644 13.5021 53.3893 13.588C53.1346 13.6746 52.8947 13.9402 52.5955 13.9402H49.767V0.976026H45.7051V17.868H51.5203C52.5596 17.8709 53.529 17.7907 54.4899 17.5518C55.0241 17.4294 55.5401 17.2352 56.0245 16.9743C56.6407 16.6339 57.2067 16.2062 57.7059 15.7038C58.2252 15.1783 58.6576 14.5719 58.9857 13.9114C59.3138 13.2508 59.5389 12.5369 59.6398 11.7984C59.7407 11.0607 59.7174 10.2998 59.6722 9.76922C59.6264 9.24008 59.5572 8.93978 59.474 8.65536ZM114.316 11.322C116.207 10.4681 118.124 9.67577 120.063 8.94628C123.963 7.48233 127.95 6.27364 132 5.32751C126.771 5.32804 121.548 5.69151 116.366 6.41538C113.804 6.77414 111.254 7.22244 108.721 7.75952C109.424 8.1681 110.121 8.58607 110.776 8.99176C111.43 9.39746 112.043 9.79016 112.628 10.1749C113.195 10.55 113.758 10.9324 114.316 11.322ZM91.8032 15.802C92.6301 15.8438 93.4556 15.9037 94.2338 15.9766C95.012 16.0496 95.743 16.1383 96.4344 16.2351C97.1047 16.3293 97.7728 16.4391 98.4382 16.5643C100.134 14.8192 102.061 13.3258 104.162 12.1276C105.216 11.5254 106.31 10.9995 107.435 10.5539C105.935 9.99851 104.397 9.55224 102.835 9.21843C101.475 9.64867 100.146 10.185 98.8608 10.8239C97.5753 11.4628 96.3307 12.2034 95.1496 13.0364C93.968 13.8712 92.8493 14.7956 91.8032 15.802ZM106.52 17.8218C107.518 16.3385 108.731 15.02 110.119 13.9121C110.798 13.3685 111.517 12.8791 112.27 12.4481C111.807 12.2371 111.341 12.034 110.871 11.8388C110.039 11.4917 109.194 11.1753 108.339 10.8903C107.293 11.2775 106.286 11.7646 105.33 12.3449C104.37 12.9274 103.466 13.6007 102.629 14.356C101.79 15.1134 101.022 15.9491 100.335 16.8523C101.071 16.9375 101.805 17.032 102.516 17.1345C103.907 17.3338 105.212 17.5583 106.52 17.8218ZM129.644 6.76693V8.75426H129.893V7.1322L130.436 8.75426H130.685L131.214 7.14808V8.75426H131.477V6.76693H131.105L130.561 8.43663L130.017 6.76693H129.644ZM127.847 6.76693V7.02175H128.484V8.75498H128.763V7.02175H129.401V6.76693H127.847Z" fill="#a6a6a6"/>
</svg>
