<svg width="123" height="31" viewBox="0 0 123 31" fill="none" xmlns="http://www.w3.org/2000/svg">
<path d="M7.96867 14.8803V18.0811C7.96867 18.1617 7.96867 18.1617 7.88798 18.1617C7.80728 18.1617 7.80728 18.1617 7.72659 18.0811C7.5652 17.7792 7.4845 17.4571 7.4845 17.0746C7.4038 16.2895 7.4845 15.444 7.78711 14.7394C7.78711 14.6588 7.8678 14.6588 7.8678 14.6588C7.96867 14.7998 7.96867 14.8803 7.96867 14.8803ZM9.05806 5.07638C9.44136 5.07638 9.76415 5.15691 10.1474 5.31796C10.4501 7.02911 9.98606 8.35777 9.76415 8.98184C9.60276 9.36433 9.46154 9.84748 9.21945 10.23C9.21945 10.3105 9.13876 10.3105 9.13876 10.3105C9.05806 10.3105 8.97737 10.23 8.97737 10.1494V5.07638H9.05806ZM7.42398 23.9192C6.6372 23.7581 5.93111 23.4562 5.2452 23.0536C1.33147 20.4969 0.302608 15.0413 1.71478 10.9144C2.42086 8.80066 3.83303 6.86806 5.76972 5.84137C6.47581 5.45887 7.26259 5.2173 7.9485 5.13678V11.8405C7.8678 12.082 7.78711 12.384 7.64589 12.6256C7.5652 12.7866 7.4038 13.0081 7.26259 13.1691C7.18189 13.3302 7.0205 13.4107 6.95998 13.5516C6.65737 13.9341 6.33459 14.3367 6.03198 14.7998C5.72937 15.2628 5.48729 15.8063 5.40659 16.3499C5.3259 16.5109 5.3259 16.7324 5.2452 16.8934C4.94259 18.6046 5.62851 20.7183 7.58537 21.0203H7.74676C7.74676 21.0203 7.82746 21.0203 7.82746 21.1008V21.3424C7.80728 22.1275 7.64589 23.0536 7.42398 23.9192ZM9.82467 4.04969C9.58258 3.96916 9.27997 3.96916 9.03789 3.96916V2.9626C9.03789 2.88208 9.03789 2.88208 9.11858 2.80155C9.19928 2.80155 9.19928 2.80155 9.27997 2.88208C9.27997 2.9626 9.36067 3.04313 9.36067 3.04313C9.44136 3.12365 9.52206 3.2847 9.52206 3.3451C9.68345 3.6672 9.76415 3.90877 9.82467 4.04969ZM15.1506 10.2098C14.1419 10.7534 13.5165 11.8405 13.4358 12.9276C13.3551 14.8803 14.9892 16.0479 16.4013 16.9739C16.482 17.0545 16.6434 17.135 16.704 17.2155C17.2486 17.5175 17.9547 18.0811 18.1968 18.5442C18.2775 18.7052 18.3582 18.9267 18.2775 19.1682C18.1968 19.7118 17.6521 20.0943 17.1074 20.0943C16.8048 20.0943 16.482 20.0137 16.24 19.8527C15.5339 19.5507 14.9892 19.0676 14.6059 18.4435C14.3638 18.061 14.1419 17.5779 13.9805 17.1148H13.4358L13.5972 21.0807C12.4271 22.5704 10.793 23.738 8.75545 23.7984C8.83615 22.8724 8.91684 22.0873 8.91684 21.7652V21.3827V20.8391C8.91684 20.7586 8.91684 20.7586 8.99754 20.6781C9.70362 20.517 10.4097 20.1345 10.9544 19.6715C11.7412 19.0474 12.2052 18.1818 12.4473 17.2558C12.528 16.7927 12.528 16.3297 12.4473 15.8466C12.3666 15.5446 12.1447 15.2225 11.9026 14.9809C11.6 14.679 11.1965 14.4374 10.7325 14.3569C10.5711 14.3569 10.4299 14.2763 10.2685 14.2763C10.0264 14.2763 9.80449 14.2763 9.56241 14.3569C9.32032 14.4374 9.1791 14.5984 9.1791 14.7394C9.1791 14.9004 9.2598 15.0413 9.42119 15.2024C9.50189 15.2829 9.58258 15.2829 9.66328 15.2829C9.74397 15.3634 9.90536 15.3634 9.96589 15.444C10.1273 15.605 10.208 15.7459 10.2685 15.907C10.3492 16.1486 10.3492 16.4505 10.2685 16.6921C10.1878 16.9941 10.0264 17.2356 9.80449 17.4772C9.6431 17.6383 9.1791 18.0208 9.01771 17.8597C8.93702 17.8597 8.93702 17.7792 8.93702 17.7792V13.1691C9.23963 12.6256 9.40102 12.082 9.7238 11.5385C9.96588 11.0755 10.1878 10.6729 10.4299 10.2904C11.3579 8.74026 11.8421 7.33108 11.9833 6.08294C12.8507 6.70701 13.4761 7.33108 14.0814 8.17659C14.5252 8.96171 14.9085 9.58577 15.1506 10.2098ZM15.3725 20.7989C16.5426 21.1814 17.632 21.4229 18.7213 21.0404C19.1046 20.8794 19.5081 20.6579 19.8107 20.3358C20.5168 19.6313 20.9001 18.7052 20.9001 17.759C20.9001 16.2693 20.1133 15.5043 19.0239 14.6387C18.2372 14.0146 17.0671 13.3906 16.361 12.686C15.9777 12.3035 15.6549 11.7599 16.1189 11.2768C16.4215 11.0352 16.9057 10.9748 17.2083 11.0352C17.5109 11.1157 17.8337 11.2768 18.1363 11.4177C18.9231 11.8807 19.3871 12.9678 19.7704 13.7529H20.3151L20.1537 9.86761H19.609C19.609 9.86761 19.3064 10.4112 18.9836 10.4112C18.8222 10.4112 18.6003 10.3306 18.3582 10.1696C18.1968 10.0891 18.1161 10.0891 17.9749 10.0085C17.4302 9.76695 16.7241 9.76695 16.0987 9.84748C15.2313 7.67331 13.7586 5.88163 11.9631 4.85494C11.8017 3.9893 11.4991 3.22431 11.0351 2.35867C10.8737 2.11709 10.793 1.97617 10.6518 1.7346C10.3088 1.33198 9.27997 -0.0772093 8.59406 0.00331556C8.43267 0.00331556 8.35198 0.00331555 8.29145 0.0838404C8.23093 0.164365 8.13006 0.164365 8.13006 0.24489C8.13006 0.325415 8.04937 0.40594 8.04937 0.486465V3.9893C3.51025 4.37179 0 8.96171 0 14.5783C0 19.7923 3.12695 24.1608 7.18189 25.0063C7.0205 25.4693 6.87928 25.8719 6.71789 26.2544L6.5565 26.6369C6.31442 27.1805 6.01181 27.5629 5.76972 27.8045L5.52764 28.0461C5.36625 28.1266 5.22503 28.2877 5.06364 28.3481C4.90225 28.4286 4.76103 28.5091 4.59964 28.5091H4.35755C4.19616 28.5091 4.11547 28.4286 4.05494 28.2675C3.97425 28.187 3.97425 28.026 3.97425 27.885C4.05494 27.724 4.13564 27.5831 4.21634 27.5026C4.37773 27.3415 4.59964 27.261 4.84173 27.261H5.38642C5.46711 27.261 5.54781 27.261 5.62851 27.1805C5.7899 27.0999 5.7899 26.9389 5.7899 26.8785C5.7899 26.798 5.7899 26.798 5.7092 26.7174C5.62851 26.6369 5.62851 26.5564 5.54781 26.5564C5.30572 26.4759 5.08381 26.3953 4.84173 26.3953C4.53912 26.3953 4.29703 26.3953 3.97425 26.4759C3.67164 26.5564 3.34886 26.6369 3.10677 26.7778L2.86469 26.9389C2.56208 27.0999 2.31999 27.3214 2.1586 27.5629C1.91652 27.8649 1.85599 28.2675 1.85599 28.5695C1.7753 30.9047 4.74086 31.4483 6.23372 30.6632C8.10989 29.7371 8.49319 27.0798 8.73528 25.0465C11.4789 25.0063 13.8998 23.2951 15.3725 20.7989ZM98.0248 11.1359C98.1055 11.1359 98.1862 11.2164 98.2669 11.2164C98.3475 11.2969 98.4282 11.2969 98.5089 11.3775C98.5896 11.458 98.5896 11.5385 98.6703 11.6794C98.6703 11.8405 98.751 11.921 98.751 12.0619V18.4435C98.751 18.7455 98.751 19.2286 98.6703 19.5306C98.6703 19.6111 98.5896 19.6916 98.5896 19.6916C98.4282 19.8527 98.3475 19.9332 98.2063 19.9936C97.9642 20.0741 97.823 20.0741 97.5809 20.0741V20.9398H103.431V20.0741C103.129 20.0741 102.564 19.9936 102.423 19.7722C102.342 19.6916 102.342 19.6111 102.261 19.5306C102.261 19.3695 102.181 19.289 102.181 19.1481C102.181 18.9065 102.1 18.6851 102.181 18.4435V10.1293H97.5809V10.995C97.6415 11.0755 97.8028 11.0755 98.0248 11.1359ZM109.746 11.1359C110.048 11.2164 110.129 11.3775 110.129 11.3775C110.29 11.619 110.371 12.384 110.371 12.8672V18.0811C110.21 18.3227 110.129 18.4636 109.988 18.6247C109.826 18.8663 109.605 19.0877 109.362 19.2488C109.12 19.4098 108.898 19.4903 108.656 19.4903C108.495 19.4903 108.354 19.4098 108.192 19.3293C107.95 19.1682 107.89 18.8663 107.809 18.5442V18.1617V10.2904H103.351V11.156C103.512 11.156 103.653 11.2365 103.895 11.2365C104.057 11.3171 104.198 11.3976 104.279 11.4781C104.44 11.7197 104.521 12.4847 104.521 12.9678V16.8531C104.521 17.4772 104.521 18.0208 104.601 18.6448C104.601 18.9468 104.682 19.1884 104.763 19.4299C104.924 19.9735 105.308 20.4365 105.691 20.7586C106.155 21.1411 106.7 21.3021 107.325 21.3021C108.334 21.3021 109.12 21.0002 109.826 20.2956C110.069 20.1345 110.21 19.9131 110.371 19.752V21.0002H114.83V20.2151C114.668 20.2151 114.527 20.1345 114.285 20.1345C114.123 20.054 113.982 19.9735 113.902 19.893C113.74 19.6514 113.66 18.8864 113.66 18.4032V10.1494H109.282V11.0151C109.423 11.0755 109.584 11.0755 109.746 11.1359ZM82.4909 15.2628V18.2221C82.4102 18.3026 82.3295 18.3831 82.1883 18.4636C81.8857 18.6247 81.5629 18.7656 81.2603 18.7656C80.7156 18.7656 80.2516 18.3831 80.2516 17.759C80.2516 17.3766 80.413 16.9739 80.6349 16.672C81.0182 16.1284 81.6436 15.7459 82.1883 15.4238L82.4909 15.2628ZM82.4909 19.4702C82.4909 19.6312 82.5716 19.7722 82.6523 20.0137C82.733 20.2553 82.8944 20.4768 83.1163 20.6378C83.3584 20.7989 83.4996 20.9398 83.8224 20.9398C84.125 21.0203 84.3671 21.0203 84.6091 21.0203C85.8599 21.0203 86.7072 20.3962 87.3326 19.3897L86.7879 18.9267C86.6265 19.0877 86.4046 19.3897 86.0818 19.3092C85.9204 19.2286 85.8398 19.0676 85.7792 18.7656V14.0952V13.1691C85.7792 12.8672 85.7792 12.6256 85.6985 12.3035C85.6985 12.223 85.6178 12.0015 85.6178 11.921C85.5371 11.619 85.3758 11.3775 85.1538 11.1359C84.6898 10.5923 84.0645 10.1293 83.3584 9.96827C82.8944 9.88774 82.4909 9.80722 82.0269 9.80722C81.1594 9.80722 80.3928 9.96827 79.606 10.1897C79.3034 10.2702 78.9806 10.4313 78.678 10.5722C78.2947 10.8138 78.0527 11.0352 77.8106 11.2768C77.5685 11.5184 77.5079 11.7398 77.3466 11.9814V12.082C76.9633 12.9477 77.2659 13.7127 77.8913 14.1757C78.5166 14.6387 79.5253 14.5582 80.1507 14.0146C80.6954 13.4711 80.6954 12.6055 80.1507 12.0619C79.8481 11.7599 79.7674 11.5184 79.9893 11.2768C80.07 11.1963 80.2314 11.1157 80.3726 11.0352C80.998 10.7936 82.2488 10.7333 82.4707 11.6593V13.9945C81.7646 14.2965 81.1392 14.6186 80.4332 15.0011C79.8078 15.303 79.2631 15.6251 78.6377 16.0076C77.7097 16.6317 76.9229 17.5577 76.9229 18.8059C76.9229 19.4299 77.165 19.9735 77.5483 20.356C78.0123 20.7385 78.4763 20.98 79.1017 20.98C79.4043 20.98 79.7271 20.8995 80.0297 20.819C80.3323 20.7385 80.6551 20.5774 80.9577 20.4365C81.4822 20.2553 82.0269 19.8728 82.4909 19.4702ZM73.2916 10.1293V10.995H73.5942C74.2196 11.0755 74.5222 11.2969 74.381 11.921C74.3003 12.5451 73.8363 13.4711 73.7556 13.7932L72.5855 16.5914L70.9515 12.847C70.7094 12.1424 70.084 11.2969 71.1128 11.0554H71.5768V10.1897H65.8071V11.0755C66.1097 11.156 66.4325 11.2365 66.6746 11.458C66.836 11.619 66.9167 11.6996 66.9772 11.8405C67.0579 12.0015 67.1386 12.1424 67.2193 12.3035C67.3807 12.6055 67.5219 12.9276 67.6833 13.2295L71.1935 21.2417H71.8189L75.2485 12.9879C75.4099 12.6055 75.6318 12.2834 75.7932 11.9009C75.8739 11.8203 75.8739 11.7398 75.9546 11.6593L76.1967 11.4177C76.2774 11.3372 76.4387 11.2567 76.4993 11.1761C76.6607 11.0956 76.8019 11.0956 76.9633 11.0151V10.1494H73.2916V10.1293ZM60.9654 11.1359C61.0461 11.1359 61.1268 11.2164 61.2075 11.2164C61.2882 11.2969 61.3689 11.2969 61.4496 11.3775C61.5303 11.458 61.5303 11.5385 61.611 11.6794C61.611 11.8405 61.6916 11.921 61.6916 12.0619V18.4435C61.6916 18.7455 61.6916 19.2286 61.611 19.5306C61.611 19.6111 61.5303 19.6916 61.5303 19.6916C61.3689 19.8527 61.2882 19.9332 61.147 19.9936C60.9049 20.0741 60.7637 20.0741 60.5216 20.0741V20.9398H66.372V20.0741C66.0694 20.0741 65.5852 19.9936 65.3633 19.7722C65.2826 19.6916 65.2826 19.6111 65.2019 19.5306C65.2019 19.3695 65.1212 19.289 65.1212 19.1481C65.1212 18.9065 65.0405 18.6851 65.1212 18.4435V10.1293H60.5216V10.995C60.5619 11.0755 60.7233 11.0755 60.9654 11.1359ZM55.1755 12.6256V18.0006C55.0948 18.1617 55.0141 18.3026 54.8729 18.4636C54.7115 18.6247 54.6308 18.7656 54.4896 18.9267C54.3282 19.0877 54.187 19.1682 54.0256 19.3092C53.723 19.4702 53.4002 19.5507 53.0976 19.4702C52.9362 19.4702 52.8555 19.3897 52.795 19.3092C52.5529 19.1481 52.4924 19.0072 52.331 18.7656C52.1696 18.524 52.0889 18.3026 52.0284 17.9805C51.9477 17.7389 51.9477 17.5175 51.867 17.2759C51.867 17.0343 51.7863 16.8129 51.7863 16.5713C51.7863 16.0278 51.7056 15.6453 51.7056 15.0816V13.914C51.7863 13.2094 51.867 12.5853 52.1696 11.8807C52.2503 11.6392 52.4117 11.4982 52.5529 11.3372C52.8555 11.0956 53.4204 11.0956 53.723 11.2567C54.4694 11.458 54.9536 12.082 55.1755 12.6256ZM54.2475 6.32452C54.6308 6.32452 54.7115 6.48557 54.7922 6.48557C54.9536 6.56609 55.0948 6.72714 55.1755 6.94858C55.2562 7.19016 55.2562 8.11619 55.2562 8.35777V11.0151L54.8729 10.6326C54.6308 10.391 54.4089 10.2501 54.1668 10.0891C53.7835 9.84748 53.2388 9.84748 52.7546 9.84748C51.9678 9.84748 51.2012 10.0891 50.4952 10.5521C50.1119 10.7936 49.8698 11.0956 49.5672 11.4177C49.2646 11.8002 49.0225 12.2028 48.8611 12.5853C48.3971 13.5919 48.2357 14.6186 48.2357 15.7057C48.2357 17.2558 48.619 18.9065 49.7286 20.0741C50.4346 20.8593 51.3626 21.2417 52.452 21.2417C53.1581 21.2417 53.7835 21.0002 54.3282 20.6177C54.6308 20.3761 54.9536 20.0741 55.2562 19.752V21.0002H59.8558V20.1345C58.8471 20.054 58.605 19.8326 58.5244 18.8059V5.37835H53.6826V6.24399C53.8642 6.24399 54.0861 6.24399 54.2475 6.32452ZM43.636 15.2628V18.2221C43.5554 18.3026 43.4747 18.3831 43.3334 18.4636C43.0308 18.6247 42.708 18.7656 42.4054 18.7656C41.8607 18.7656 41.3968 18.3831 41.3968 17.759C41.3968 17.3766 41.5581 16.9739 41.7801 16.672C42.1634 16.1284 42.7887 15.7459 43.3334 15.4238L43.636 15.2628ZM43.7167 19.4702C43.7167 19.6312 43.7974 19.7722 43.8781 20.0137C43.9588 20.2553 44.1202 20.4768 44.3421 20.6378C44.564 20.7989 44.7254 20.9398 45.0482 20.9398C45.3508 21.0203 45.5929 21.0203 45.835 21.0203C47.0858 21.0203 47.9331 20.3962 48.5585 19.3897L48.0138 18.9267C47.8524 19.0877 47.5498 19.3897 47.3077 19.3092C47.1463 19.2286 47.0656 19.0676 47.0051 18.7656V14.0952V13.1691C47.0051 12.8672 47.0051 12.6256 46.9244 12.3035C46.9244 12.223 46.8437 12.0015 46.8437 11.921C46.763 11.619 46.6016 11.3775 46.3797 11.1359C45.9157 10.5923 45.2903 10.1293 44.5842 9.96827C44.1202 9.88774 43.7167 9.80722 43.2527 9.80722C42.3853 9.80722 41.6994 9.96827 40.8319 10.1897C40.5293 10.2702 40.2065 10.4313 39.9039 10.5722C39.6013 10.8138 39.2785 11.0352 39.0364 11.2768C38.875 11.5184 38.7338 11.7398 38.5724 11.9814V12.082C38.1891 12.9477 38.4917 13.7127 39.1171 14.1757C39.7425 14.6387 40.7512 14.5582 41.3766 14.0146C41.9213 13.4711 41.8406 12.6055 41.3766 12.0619C41.074 11.7599 40.9933 11.5184 41.2152 11.2768C41.2959 11.1963 41.4573 11.1157 41.5985 11.0352C42.2239 10.7936 43.4747 10.7333 43.6966 11.6593V13.9945C42.9905 14.2965 42.3651 14.6186 41.659 15.0011C41.0336 15.303 40.4889 15.6251 39.8635 16.0076C38.9355 16.6317 38.1488 17.5577 38.1488 18.8059C38.1488 19.4299 38.3908 19.9735 38.7741 20.356C39.1575 20.7385 39.7021 20.98 40.3275 20.98C40.6301 20.98 40.9529 20.8995 41.2555 20.819C41.5581 20.7385 41.8809 20.5774 42.1835 20.4365C42.6879 20.2553 43.1519 19.8728 43.7167 19.4702ZM120.66 10.2098C120.498 10.1293 120.418 10.1293 120.277 10.0488C119.651 9.80722 118.864 9.74682 118.178 9.88774C116.686 10.1897 115.758 11.5184 115.677 12.9276C115.596 14.8803 117.23 16.0479 118.642 16.9739C118.723 17.0545 118.804 17.135 118.945 17.2155C119.49 17.5175 120.196 18.0811 120.438 18.5442C120.519 18.7052 120.599 18.9267 120.519 19.1682C120.438 19.7118 119.893 20.0943 119.349 20.0943C119.046 20.0943 118.723 20.0137 118.481 19.8527C117.775 19.5507 117.23 19.0676 116.847 18.4435C116.605 18.061 116.383 17.5779 116.222 17.1148H115.677L115.838 21.0807H116.383C116.625 20.4566 116.847 20.4566 117.392 20.6177C118.562 21.0002 119.651 21.3223 120.821 20.8593C121.205 20.6982 121.608 20.4768 121.911 20.1547C122.617 19.4501 123 18.524 123 17.5779C123 16.0882 122.213 15.3232 121.124 14.4575C120.337 13.8335 119.167 13.2094 118.461 12.5048C118.078 12.1223 117.755 11.5788 118.219 11.0956C118.521 10.854 119.006 10.7936 119.308 10.854C119.611 10.9346 119.934 11.0956 120.236 11.2365C121.023 11.6996 121.487 12.7866 121.87 13.5718H122.415L122.254 9.74682H121.709C121.709 9.74682 121.406 10.2904 121.083 10.2904C121.124 10.4514 120.902 10.3709 120.66 10.2098ZM102.241 6.86806C102.241 6.40504 102.08 6.00242 101.777 5.61992C101.071 4.91533 99.9816 4.83481 99.1948 5.45887C98.4888 6.16347 98.4081 7.33108 99.1142 8.03567C99.8202 8.82079 100.99 8.82079 101.696 8.11619C102.019 7.87462 102.241 7.4116 102.241 6.86806ZM87.958 11.0755C88.2001 11.156 88.3413 11.2365 88.3413 11.2365C88.5027 11.3171 88.5834 11.4781 88.6439 11.619C88.6439 11.6996 88.7246 11.7801 88.7246 11.8606V17.6181C88.7246 18.0811 88.7246 19.1682 88.6439 19.5709C88.5632 19.8728 88.4018 20.0339 87.9378 20.1144C87.8571 20.1144 87.6957 20.1144 87.5545 20.1949V20.8995H93.405V20.1949C93.2436 20.1949 93.0216 20.1949 92.7796 20.1144C92.2349 20.0339 92.0735 19.7319 92.0735 19.3293V17.7792V17.0746C92.0735 15.7459 91.9928 14.3569 92.5375 13.1087C92.6989 12.7262 93.0015 12.3236 93.3243 12.2431C93.7076 12.082 93.8689 12.2431 94.111 12.4847C94.4943 12.7866 94.8978 13.1087 95.3618 13.1087C96.2293 13.1087 96.6933 12.4041 96.774 11.619C96.9354 10.5319 96.3907 9.74682 95.2206 9.74682C93.7277 9.82735 92.7997 10.7534 92.0937 11.921V10.0488H87.6352V10.9144C87.6554 11.0755 87.7966 11.0755 87.958 11.0755ZM29.1109 11.0755C29.353 11.156 29.4942 11.2365 29.4942 11.2365C29.6556 11.3171 29.7363 11.4781 29.7968 11.619C29.7968 11.6996 29.8775 11.7801 29.8775 11.8606V17.4571C29.8775 17.9201 29.8775 19.0072 29.7968 19.4098C29.7161 19.7118 29.5547 19.8728 29.0907 19.9533C28.9293 19.9533 28.8486 19.9533 28.7074 20.0339V20.819H34.5578V20.0339C34.3964 20.0339 34.1745 20.0339 33.9324 19.9533C33.3877 19.8728 33.2263 19.5709 33.2263 19.1682V17.6181V16.9135C33.2263 15.5849 33.1456 14.2562 33.6903 13.0282C33.8517 12.6457 34.1543 12.2431 34.4771 12.1626C34.8604 12.0015 35.0218 12.1626 35.2639 12.4041C35.6472 12.7061 36.0507 13.0282 36.5147 13.0282C37.3822 13.0282 37.8462 12.3236 37.9268 11.5385C38.0075 10.4514 37.5435 9.6663 36.3735 9.6663C34.8806 9.74682 33.9526 10.6729 33.2465 11.8405V9.96827H28.7881V10.8339C28.8083 11.0755 28.9495 11.0755 29.1109 11.0755ZM23.4218 8.80066L22.3325 9.88774C21.8685 10.2702 21.465 10.5923 21.001 10.9748V11.4378H22.4132V16.8934C22.4132 17.598 22.4132 18.2221 22.4938 18.8461C22.8772 21.3424 25.9234 21.5638 27.5575 20.3358C28.0215 20.0339 28.3443 19.5507 28.5662 19.0072L27.7794 18.3831C27.6987 18.5442 27.5373 18.7656 27.3961 19.0072C27.2347 19.1682 27.154 19.2488 27.0128 19.3092C26.4681 19.6916 25.9234 19.3897 25.762 18.7656C25.6813 18.3026 25.6813 17.6785 25.6813 17.2759V11.3573H28.1829V10.0287H25.6813V6.16347H25.1366C24.6726 7.25055 24.1078 7.95514 23.4218 8.80066ZM65.101 6.86806C65.101 6.40504 64.9396 6.00242 64.637 5.61992C63.9309 4.91533 62.8416 4.83481 62.0548 5.45887C61.3487 6.16347 61.268 7.33108 61.9741 8.03567C62.6802 8.82079 63.8503 8.82079 64.5563 8.11619C64.9396 7.87462 65.101 7.4116 65.101 6.86806Z" fill="#a6a6a6"/>
</svg>
