<svg width="101" height="18" viewBox="0 0 101 18" fill="none" xmlns="http://www.w3.org/2000/svg">
<path fill-rule="evenodd" clip-rule="evenodd" d="M6.06528 17.7201H4.16067V2.08716H0V0.281532H10.2718V2.08716H6.06528V17.7201ZM20.2268 1.80563C24.1812 1.80563 27.2902 5.05718 27.2902 9.00136C27.2902 12.9199 24.1353 16.1955 20.2268 16.1955C16.3171 16.1955 13.1628 12.9199 13.1628 9.00136C13.1628 5.05718 16.2713 1.80563 20.2268 1.80563ZM20.2268 0C15.3119 0 11.2582 4.04203 11.2582 9.02378C11.2582 14.0279 15.3114 18 20.2268 18C25.1416 18 29.1949 14.0279 29.1949 9.02378C29.1954 4.04203 25.1416 0 20.2268 0ZM33.741 2.08716H34.4525C36.7032 2.08716 38.9781 2.29544 38.9781 5.13645C38.9781 7.63197 37.1626 8.27813 35.0264 8.27813H33.741V2.08716ZM33.741 10.0838H35.1419C36.5898 10.0838 38.082 9.8979 39.2508 8.92647C40.3164 8.02503 40.8838 6.59167 40.8838 5.18237C40.8838 3.63422 40.2247 2.10903 38.956 1.20758C37.6917 0.327451 36.1514 0.280985 34.6593 0.280985H31.8353V17.7196H33.741V10.0838ZM51.0903 3.69763C50.4042 2.49771 49.5787 1.80563 48.113 1.80563C46.5777 1.80563 45.248 2.91262 45.248 4.50451C45.248 6.00346 46.7834 6.69499 47.9521 7.22471L49.0983 7.73147C51.3435 8.72421 53.226 9.85307 53.226 12.6208C53.226 15.6657 50.8166 18 47.8156 18C45.045 18 43.0011 16.1955 42.4532 13.4977L44.3195 12.9669C44.5683 14.7424 45.9137 16.1955 47.7702 16.1955C49.6257 16.1955 51.3219 14.7648 51.3219 12.8056C51.3219 10.7758 49.7407 10.0838 48.1357 9.34631L47.0819 8.88493C45.0688 7.96325 43.3439 6.92459 43.3439 4.43508C43.3439 1.73566 45.5935 0 48.1595 0C50.0835 0 51.7068 0.994927 52.6133 2.70489L51.0903 3.69763ZM66.8072 7.35536V0.280439H68.7123V17.7201H66.8072V9.16044H57.9584V17.7201H56.0532V0.280439H57.9584V7.35536H66.8072ZM80.3667 1.80563C84.3217 1.80563 87.4313 5.05718 87.4313 9.00136C87.4313 12.9199 84.2763 16.1955 80.3667 16.1955C76.4571 16.1955 73.3032 12.9199 73.3032 9.00136C73.3032 5.05718 76.4117 1.80563 80.3667 1.80563ZM80.3667 0C75.4519 0 71.3981 4.04203 71.3981 9.02378C71.3981 14.0279 75.4524 18 80.3667 18C85.2821 18 89.3353 14.0279 89.3353 9.02378C89.3353 4.04203 85.2826 0 80.3667 0ZM93.8566 2.08716H94.5682C96.8215 2.08716 99.0948 2.29544 99.0948 5.13645C99.0948 7.63197 97.2804 8.27813 95.1431 8.27813H93.8566V2.08716ZM93.8566 10.0838H95.2592C96.7071 10.0838 98.2008 9.8979 99.368 8.92647C100.433 8.02503 101 6.59167 101 5.18237C101 3.63422 100.342 2.10903 99.0727 1.20758C97.8084 0.327451 96.2703 0.280985 94.776 0.280985H91.9526V17.7196H93.8566V10.0838Z" fill="#a6a6a6"/>
</svg>
