<svg width="96" height="33" viewBox="0 0 96 33" fill="none" xmlns="http://www.w3.org/2000/svg">
<path d="M43.0138 32.9999C43.4675 33.0014 43.9183 32.9772 44.3662 32.9275C44.814 32.8777 45.1836 32.7939 45.4748 32.6759C45.5857 32.6304 45.6618 32.5807 45.703 32.5267C45.7443 32.4727 45.7817 32.3803 45.8153 32.2495C45.8897 31.9621 45.9613 31.6032 46.03 31.1729C46.0987 30.7427 46.1354 30.4818 46.1403 30.3905C46.139 30.3372 46.1261 30.2903 46.1016 30.2498C46.0771 30.2093 46.0487 30.188 46.0165 30.1858C45.972 30.1848 45.941 30.1997 45.9236 30.2306C45.9062 30.2615 45.8907 30.3148 45.8772 30.3905C45.8533 30.5401 45.7966 30.7355 45.7069 30.9768C45.6173 31.2181 45.4986 31.4262 45.3509 31.6014C45.0842 31.891 44.7702 32.0793 44.4087 32.1664C44.0473 32.2534 43.6133 32.2925 43.1067 32.2836C41.6292 32.2385 40.4478 31.7105 39.5623 30.6996C38.6769 29.6888 38.2229 28.4657 38.2003 27.0306C38.1884 26.2951 38.2664 25.6086 38.4344 24.9712C38.6024 24.3338 38.932 23.7582 39.423 23.2444C39.6513 22.9861 40.0034 22.7565 40.4794 22.5558C40.9553 22.355 41.6247 22.2492 42.4876 22.2381C43.0973 22.2438 43.6345 22.322 44.0992 22.4726C44.5638 22.6233 44.9192 22.8123 45.1652 23.0397C45.3448 23.1992 45.4847 23.4089 45.585 23.6686C45.6853 23.9283 45.7362 24.202 45.7379 24.4894C45.7366 24.5917 45.743 24.6685 45.7572 24.7197C45.7714 24.7708 45.8011 24.7964 45.8462 24.7964C45.8856 24.7975 45.9191 24.774 45.9468 24.726C45.9746 24.6781 45.9926 24.5992 46.001 24.4894C46.0081 24.3679 46.0132 24.1547 46.0165 23.8498C46.0197 23.545 46.0248 23.2636 46.0319 23.0056C46.048 22.7476 46.0622 22.5601 46.0745 22.4428C46.0867 22.3256 46.0932 22.2403 46.0938 22.187C46.0955 22.1433 46.0845 22.107 46.061 22.0782C46.0374 22.0495 45.9916 22.0345 45.9236 22.0334C45.7011 22.0231 45.4767 21.9969 45.2503 21.9546C45.0239 21.9123 44.7841 21.8647 44.5306 21.8117C44.1908 21.7524 43.8451 21.7091 43.4936 21.6817C43.1422 21.6544 42.8274 21.6408 42.5495 21.6412C41.5138 21.6515 40.6638 21.8014 39.9996 22.091C39.3353 22.3806 38.8026 22.748 38.4015 23.1932C37.8095 23.8644 37.4032 24.5644 37.1827 25.2932C36.9621 26.0219 36.8576 26.6409 36.8692 27.15C36.8551 27.8546 36.9647 28.5859 37.1981 29.3438C37.4316 30.1017 37.874 30.803 38.5253 31.4479C39.0519 31.9603 39.6781 32.3469 40.4039 32.6077C41.1298 32.8685 41.9997 32.9992 43.0138 32.9999Z" fill="#a6a6a6"/>
<path d="M49.7869 28.6631C49.7887 29.3662 49.7851 29.9874 49.7762 30.5268C49.7672 31.0662 49.7421 31.4876 49.7008 31.7912C49.6724 32.0047 49.6344 32.1768 49.5867 32.3075C49.539 32.4382 49.4449 32.5211 49.3046 32.5562C49.2335 32.5739 49.156 32.5894 49.0721 32.6029C48.9881 32.6164 48.9106 32.6234 48.8395 32.6241C48.7968 32.6259 48.7659 32.6394 48.7469 32.6645C48.7279 32.6897 48.7186 32.7159 48.7189 32.7432C48.7218 32.8253 48.8022 32.865 48.9601 32.8622C49.2249 32.8601 49.5307 32.8515 49.8774 32.8367C50.2241 32.8218 50.4178 32.8133 50.4588 32.8111C50.5147 32.8133 50.7301 32.8218 51.1047 32.8367C51.4794 32.8515 51.8842 32.8601 52.3192 32.8622C52.4046 32.8615 52.4663 32.8501 52.5043 32.8282C52.5423 32.8062 52.561 32.7779 52.5603 32.7432C52.5617 32.7159 52.5546 32.6897 52.5388 32.6645C52.523 32.6394 52.49 32.6259 52.4397 32.6241C52.3643 32.6234 52.261 32.6164 52.1297 32.6029C51.9983 32.5894 51.8777 32.5739 51.7679 32.5562C51.5425 32.5211 51.3904 32.4382 51.3114 32.3075C51.2325 32.1768 51.1837 32.0047 51.165 31.7912C51.132 31.4883 51.1119 31.0697 51.1047 30.5353C51.0975 30.0008 51.0947 29.3825 51.0961 28.6802V28.3402C51.0961 28.258 51.1306 28.2183 51.1995 28.2211L52.5101 28.2551C52.5596 28.2544 52.5983 28.2601 52.6263 28.2722C52.6543 28.2842 52.6845 28.3069 52.7168 28.3402C52.8883 28.5502 53.1223 28.8526 53.4187 29.2475C53.7151 29.6424 54.0266 30.0426 54.3532 30.4481C54.7753 30.9914 55.1456 31.4391 55.4643 31.7912C55.783 32.1432 56.1016 32.4038 56.4203 32.5731C56.5997 32.6744 56.8093 32.7481 57.0491 32.7942C57.2888 32.8402 57.619 32.8629 58.0396 32.8622H58.987C59.1226 32.8625 59.2174 32.8533 59.2712 32.8345C59.325 32.8158 59.3509 32.7853 59.3487 32.7432C59.3484 32.7159 59.3362 32.6897 59.3121 32.6645C59.2881 32.6394 59.2543 32.6259 59.2109 32.6241C59.1693 32.6252 59.1061 32.6231 59.0215 32.6178C58.9368 32.6125 58.8219 32.5976 58.6769 32.5731C58.4914 32.56 58.2639 32.4885 57.9944 32.3585C57.7248 32.2285 57.3896 31.9658 56.9888 31.5701C56.5499 31.1158 56.0668 30.571 55.5397 29.936C55.0125 29.301 54.439 28.5991 53.8192 27.8302C54.5147 27.2391 55.6201 26.6745 55.8979 26.1365C56.1756 25.5985 56.3091 25.0638 56.2983 24.5321C56.2782 24.0282 56.1505 23.6082 55.915 23.2721C55.6796 22.936 55.4571 22.6987 55.2476 22.5602C54.8435 22.296 54.3941 22.1232 53.8996 22.0417C53.4051 21.9602 52.9127 21.9234 52.4225 21.9312C52.1498 21.9326 51.7952 21.9382 51.3588 21.9481C50.9224 21.9581 50.6454 21.9637 50.5277 21.9651C50.4584 21.9637 50.2352 21.9581 49.858 21.9481C49.4808 21.9382 49.1069 21.9326 48.7362 21.9312C48.6507 21.9308 48.589 21.94 48.551 21.9588C48.5129 21.9776 48.4943 22.008 48.495 22.0502C48.4968 22.0775 48.5104 22.1037 48.5359 22.1288C48.5614 22.154 48.5879 22.1674 48.6156 22.1691C48.6898 22.1695 48.7781 22.1731 48.8804 22.1798C48.9827 22.1866 49.0667 22.1943 49.1324 22.2032C49.3746 22.2354 49.5361 22.3154 49.6168 22.4433C49.6976 22.5711 49.7428 22.7575 49.7525 23.0022C49.769 23.1924 49.779 23.4877 49.7826 23.8883C49.7862 24.2889 49.7877 25.0305 49.7869 26.1132V28.6631ZM51.0961 22.6962C51.0968 22.654 51.1083 22.6193 51.1306 22.5921C51.1528 22.5648 51.1815 22.5428 51.2167 22.5262C51.3017 22.5078 51.446 22.4893 51.6495 22.4709C51.853 22.4525 52.0705 22.4426 52.3019 22.4411C53.1194 22.4468 53.7582 22.6948 54.2183 23.1849C54.6784 23.6751 54.9124 24.3735 54.9203 25.2802C54.9145 25.8344 54.8269 26.2984 54.6576 26.672C54.4882 27.0457 53.6527 27.3184 53.3886 27.4901C53.2055 27.6049 53.0161 27.6772 52.8201 27.7069C52.4932 27.7844 52.1824 27.7333 51.867 27.6793C51.5476 27.6372 51.3251 27.5854 51.1995 27.5242C51.165 27.4994 51.1392 27.4724 51.122 27.4434C51.1047 27.4144 51.0961 27.379 51.0961 27.3372V22.6962Z" fill="#a6a6a6"/>
<path d="M20.3144 32.9496C20.7834 32.9517 21.2406 32.8965 21.686 32.7839C22.1314 32.6713 22.5412 32.4885 22.9155 32.2356C23.4965 31.7972 23.8891 31.3098 24.0933 30.7736C24.2975 30.2374 24.393 29.7841 24.3797 29.4136C24.402 28.751 24.2369 28.1128 23.8845 27.499C23.532 26.8853 22.8588 26.1918 21.8647 25.4186L21.3824 25.0447C20.5713 24.4284 20.0144 23.9142 19.7115 23.5019C19.4086 23.0897 19.265 22.6519 19.2808 22.1886C19.2948 21.5636 19.4994 21.0798 19.8945 20.7373C20.2896 20.3948 20.7913 20.2213 21.3996 20.2167C22.1762 20.2425 22.7202 20.3693 23.0318 20.597C23.3433 20.8248 23.517 20.9983 23.5529 21.1176C23.6063 21.2221 23.6544 21.3617 23.6971 21.5363C23.7398 21.7109 23.7664 21.8547 23.7768 21.9676C23.7836 22.0364 23.7958 22.0902 23.8134 22.1292C23.831 22.1681 23.8647 22.188 23.9146 22.1886C23.9573 22.1894 23.9882 22.1582 24.0072 22.0952C24.0262 22.0321 24.0355 21.9329 24.0352 21.7976C24.038 21.2221 24.0495 20.7879 24.0696 20.495C24.0897 20.2022 24.1012 20.0357 24.1041 19.9957C24.1055 19.9535 24.094 19.9231 24.0696 19.9043C24.0452 19.8855 23.9993 19.8763 23.9318 19.8766C23.8669 19.8774 23.7901 19.8717 23.7014 19.8597C23.6128 19.8476 23.4886 19.8249 23.3289 19.7916C23.1158 19.7399 22.8789 19.6988 22.6184 19.6684C22.3578 19.6379 22.0606 19.6223 21.7269 19.6216C20.6212 19.6355 19.7534 19.9181 19.1236 20.4695C18.4938 21.021 18.173 21.7584 18.1611 22.6817C18.1403 23.2487 18.2853 23.8232 18.5961 24.405C18.9069 24.9869 19.5083 25.6421 20.4005 26.3706L21.1757 26.9997C21.9063 27.5819 22.4217 28.0962 22.7217 28.5424C23.0217 28.9887 23.1667 29.4944 23.1567 30.0596C23.1574 30.6298 22.9535 31.1427 22.5451 31.5981C22.1367 32.0536 21.5195 32.2944 20.6933 32.3206C20.0983 32.327 19.5615 32.1953 19.0827 31.9254C18.604 31.6555 18.291 31.2093 18.1439 30.5867C18.1191 30.4659 18.1041 30.3504 18.0987 30.2403C18.0933 30.1301 18.0912 30.0359 18.0922 29.9576C18.0937 29.8903 18.0865 29.8421 18.0707 29.8131C18.0549 29.7841 18.0219 29.7699 17.9717 29.7707C17.9293 29.7703 17.8977 29.7922 17.8769 29.8365C17.8561 29.8808 17.8417 29.9495 17.8338 30.0427C17.8227 30.1836 17.8062 30.4117 17.7843 30.7269C17.7624 31.0421 17.7502 31.4147 17.7477 31.8446C17.7434 32.0649 17.7563 32.2151 17.7865 32.2951C17.8166 32.3752 17.8898 32.4403 18.0061 32.4906C18.3607 32.6585 18.7325 32.7775 19.1215 32.8476C19.5105 32.9177 19.9081 32.9517 20.3144 32.9496Z" fill="#a6a6a6"/>
<path d="M28.7599 28.5126C28.7617 29.2157 28.7581 29.8369 28.7492 30.3763C28.7402 30.9157 28.7151 31.3371 28.6738 31.6406C28.6454 31.8553 28.6074 32.0295 28.5596 32.1634C28.5119 32.2972 28.4179 32.378 28.2776 32.4057C28.2065 32.4159 28.129 32.4293 28.045 32.446C27.9611 32.4626 27.8835 32.4719 27.8125 32.4736C27.7698 32.4754 27.7389 32.4889 27.7199 32.514C27.7009 32.5392 27.6915 32.5654 27.6919 32.5926C27.6948 32.6748 27.7751 32.7144 27.9331 32.7116C28.0569 32.7113 28.1968 32.7077 28.353 32.701C28.5091 32.6943 28.6619 32.6865 28.8116 32.6777C28.9799 32.6695 29.1256 32.6645 29.2487 32.6627C29.3718 32.661 29.4443 32.6603 29.4662 32.6606C29.5767 32.6599 29.7346 32.6613 29.9399 32.6649C30.1452 32.6684 30.4064 32.6783 30.7237 32.6946C31.0337 32.7042 31.4084 32.7148 31.8476 32.7265C32.2869 32.7382 33.1604 32.7446 33.7288 32.7456C34.0138 32.7534 34.2147 32.7378 34.3317 32.6989C34.4487 32.6599 34.5291 32.5508 34.5729 32.3716C34.6192 32.1861 34.6644 31.9282 34.7086 31.5981C34.7527 31.2681 34.7764 31.0612 34.7796 30.9776C34.7807 30.9238 34.7742 30.8742 34.7603 30.8289C34.7463 30.7836 34.7183 30.7594 34.6763 30.7566C34.6343 30.7552 34.602 30.7708 34.5794 30.8034C34.5568 30.836 34.5374 30.894 34.5212 30.9776C34.4796 31.2617 34.4035 31.4798 34.293 31.6321C34.1824 31.7844 34.0289 31.9006 33.8322 31.9806C33.6204 32.0539 32.9982 32.0985 32.7047 32.1145C32.4111 32.1304 32.1584 32.1368 31.9467 32.1336C31.2178 32.146 30.7334 32.0745 30.4933 31.919C30.2532 31.7635 30.1348 31.4497 30.138 30.9776C30.1305 30.7793 30.1283 30.394 30.1315 29.8216C30.1348 29.2493 30.1369 28.813 30.138 28.5126V27.3056C30.1369 27.2791 30.1434 27.2557 30.1574 27.2355C30.1714 27.2153 30.1993 27.2047 30.2413 27.2036C30.424 27.2033 30.7864 27.2082 31.3287 27.2185C31.871 27.2288 32.2722 27.2465 32.5324 27.2717C32.8177 27.3071 33.0136 27.3637 33.1202 27.4416C33.2268 27.5195 33.2893 27.6102 33.3076 27.7136C33.3406 27.8068 33.3606 27.8925 33.3678 27.9708C33.375 28.049 33.3779 28.122 33.3765 28.1896C33.3765 28.2775 33.4109 28.3228 33.4798 28.3256C33.5308 28.3218 33.5667 28.2913 33.5875 28.2343C33.6083 28.1773 33.6183 28.117 33.6176 28.0536C33.6183 27.9881 33.6255 27.8557 33.6392 27.6563C33.6528 27.4569 33.6686 27.2776 33.6865 27.1186C33.7066 26.8824 33.731 26.7004 33.7597 26.5725C33.7884 26.4446 33.8042 26.3604 33.8071 26.3197C33.8042 26.2375 33.7755 26.1978 33.721 26.2006C33.6955 26.202 33.6646 26.2205 33.6284 26.2559C33.5921 26.2913 33.5483 26.3352 33.497 26.3876C33.4209 26.4609 33.3233 26.5098 33.2042 26.5342C33.085 26.5587 32.9358 26.5778 32.7563 26.5917C32.6201 26.6028 32.3643 26.6107 31.9888 26.6155C31.6133 26.6204 31.2465 26.6233 30.8883 26.6244C30.53 26.6254 30.3086 26.6258 30.2241 26.6256C30.1828 26.6256 30.1577 26.6129 30.1487 26.5874C30.1398 26.5619 30.1362 26.5236 30.138 26.4726V22.5457C30.1373 22.4947 30.143 22.4564 30.1552 22.4309C30.1674 22.4054 30.1904 22.3926 30.2241 22.3926C30.3005 22.3926 30.496 22.3946 30.8104 22.3983C31.1249 22.4021 31.4441 22.4078 31.7681 22.4153C32.092 22.4229 32.3066 22.4323 32.4118 22.4437C32.8123 22.4918 33.4532 22.5485 33.5953 22.6136C33.7374 22.6788 33.8279 22.7695 33.8666 22.8856C33.9004 22.9749 33.9233 23.0684 33.9355 23.1661C33.9477 23.2639 33.9535 23.3404 33.9528 23.3957C33.9499 23.5175 33.9901 23.5798 34.0733 23.5827C34.1081 23.5805 34.1376 23.5635 34.1616 23.5316C34.1857 23.4998 34.2022 23.4658 34.2112 23.4296C34.2287 23.3241 34.2453 23.1612 34.2607 22.9409C34.2761 22.7206 34.2883 22.5662 34.2973 22.4776C34.3174 22.2772 34.3418 22.1256 34.3705 22.0229C34.3992 21.9202 34.415 21.8451 34.4179 21.7976C34.4182 21.7622 34.4132 21.7311 34.4028 21.7041C34.3924 21.6772 34.3744 21.6631 34.349 21.6616C34.3145 21.6634 34.28 21.6726 34.2456 21.6893C34.2111 21.7059 34.1767 21.7194 34.1423 21.7297C34.0791 21.7396 33.9858 21.7538 33.8623 21.7722C33.7389 21.7906 33.6025 21.8048 33.4532 21.8147C33.302 21.82 32.5764 21.8225 32.0156 21.8222C31.4548 21.8219 30.9074 21.8206 30.3734 21.8184L29.4662 21.8147C29.3983 21.8133 29.1809 21.8076 28.8137 21.7976C28.4466 21.7877 28.0784 21.7821 27.7091 21.7806C27.6237 21.7803 27.562 21.7895 27.5239 21.8083C27.4859 21.8271 27.4672 21.8575 27.468 21.8996C27.4698 21.9269 27.4834 21.9531 27.5089 21.9783C27.5344 22.0034 27.5609 22.0169 27.5885 22.0186C27.6628 22.019 27.7511 22.0225 27.8534 22.0292C27.9557 22.036 28.0396 22.0438 28.1053 22.0526C28.3476 22.0849 28.5091 22.1649 28.5898 22.2928C28.6705 22.4206 28.7158 22.607 28.7255 22.8517C28.742 23.0419 28.752 23.3372 28.7556 23.7378C28.7592 24.1383 28.7606 24.88 28.7599 25.9626V28.5126Z" fill="#a6a6a6"/>
<path d="M61.3433 28.5126C61.3451 29.2157 61.3415 29.8369 61.3325 30.3763C61.3235 30.9157 61.2984 31.3371 61.2571 31.6406C61.2288 31.8553 61.1908 32.0295 61.143 32.1634C61.0953 32.2972 61.0013 32.378 60.8609 32.4057C60.7899 32.4159 60.7124 32.4293 60.6284 32.446C60.5444 32.4626 60.4669 32.4719 60.3958 32.4736C60.3531 32.4754 60.3223 32.4889 60.3032 32.514C60.2842 32.5392 60.2749 32.5654 60.2753 32.5926C60.2781 32.6748 60.3585 32.7144 60.5164 32.7116C60.6402 32.7113 60.7802 32.7077 60.9363 32.701C61.0924 32.6943 61.2453 32.6865 61.3949 32.6777C61.5632 32.6695 61.709 32.6645 61.8321 32.6627C61.9551 32.661 62.0276 32.6603 62.0495 32.6606C62.1601 32.6599 62.318 32.6613 62.5232 32.6649C62.7285 32.6684 62.9898 32.6783 63.307 32.6946C63.6171 32.7042 63.9917 32.7148 64.431 32.7265C64.8703 32.7382 65.7848 32.7446 66.3533 32.7456C66.6382 32.7534 66.8392 32.7378 66.9562 32.6989C67.0732 32.6599 67.1535 32.5508 67.1973 32.3716C67.2436 32.1861 67.2888 31.9282 67.333 31.5981C67.3771 31.2681 67.4008 31.0612 67.404 30.9776C67.4051 30.9238 67.3987 30.8742 67.3847 30.8289C67.3707 30.7836 67.3427 30.7594 67.3007 30.7566C67.2587 30.7552 67.2264 30.7708 67.2038 30.8034C67.1812 30.836 67.1618 30.894 67.1457 30.9776C67.104 31.2617 67.028 31.4798 66.9174 31.6321C66.8069 31.7844 66.6533 31.9006 66.4566 31.9806C66.2449 32.0539 65.5816 32.0985 65.288 32.1145C64.9944 32.1304 64.7418 32.1368 64.5301 32.1336C63.8012 32.146 63.3167 32.0745 63.0766 31.919C62.8365 31.7635 62.7181 31.4497 62.7213 30.9776C62.7138 30.7793 62.7116 30.394 62.7149 29.8216C62.7181 29.2493 62.7203 28.813 62.7213 28.5126V27.3056C62.7203 27.2791 62.7267 27.2557 62.7407 27.2355C62.7547 27.2153 62.7827 27.2047 62.8247 27.2036C63.0074 27.2033 63.3698 27.2082 63.9121 27.2185C64.4543 27.2288 64.8556 27.2465 65.1157 27.2717C65.401 27.3071 65.597 27.3637 65.7036 27.4416C65.8102 27.5195 65.8726 27.6102 65.8909 27.7136C65.9239 27.8068 65.944 27.8925 65.9512 27.9708C65.9584 28.049 65.9612 28.122 65.9598 28.1896C65.9598 28.2775 65.9943 28.3228 66.0632 28.3256C66.1141 28.3218 66.15 28.2913 66.1709 28.2343C66.1917 28.1773 66.2017 28.117 66.201 28.0536C66.2017 27.9881 66.2089 27.8557 66.2225 27.6563C66.2362 27.4569 66.2519 27.2776 66.2699 27.1186C66.29 26.8824 66.3144 26.7004 66.3431 26.5725C66.3718 26.4446 66.3876 26.3604 66.3905 26.3197C66.3876 26.2375 66.3589 26.1978 66.3043 26.2006C66.2789 26.202 66.248 26.2205 66.2117 26.2559C66.1755 26.2913 66.1317 26.3352 66.0804 26.3876C66.0043 26.4609 65.9067 26.5098 65.7876 26.5342C65.6684 26.5587 65.5191 26.5778 65.3397 26.5917C65.2035 26.6028 64.9476 26.6107 64.5722 26.6155C64.1967 26.6204 63.8299 26.6233 63.4716 26.6244C63.1134 26.6254 62.892 26.6258 62.8075 26.6256C62.7662 26.6256 62.7411 26.6129 62.7321 26.5874C62.7231 26.5619 62.7195 26.5236 62.7213 26.4726V22.5457C62.7206 22.4947 62.7264 22.4564 62.7386 22.4309C62.7508 22.4054 62.7737 22.3926 62.8075 22.3926C62.8839 22.3926 63.0794 22.3946 63.3938 22.3983C63.7082 22.4021 64.0274 22.4078 64.3514 22.4153C64.6754 22.4229 64.89 22.4323 64.9952 22.4437C65.3957 22.4918 65.9544 22.5485 66.0966 22.6136C66.2387 22.6788 66.3291 22.7695 66.3679 22.8856C66.4016 22.9749 66.4246 23.0684 66.4368 23.1661C66.449 23.2639 66.4547 23.3404 66.454 23.3957C66.4511 23.5175 66.4913 23.5798 66.5746 23.5827C66.6094 23.5805 66.6388 23.5635 66.6628 23.5316C66.6869 23.4998 66.7034 23.4658 66.7124 23.4296C66.73 23.3241 66.7465 23.1612 66.7619 22.9409C66.7773 22.7206 66.7895 22.5662 66.7985 22.4776C66.8186 22.2772 66.843 22.1256 66.8717 22.0229C66.9004 21.9202 66.9162 21.8451 66.9191 21.7976C66.9194 21.7622 66.9144 21.7311 66.904 21.7041C66.8936 21.6772 66.8757 21.6631 66.8502 21.6616C66.8157 21.6634 66.7813 21.6726 66.7469 21.6893C66.7124 21.7059 66.6779 21.7194 66.6435 21.7297C66.5803 21.7396 66.487 21.7538 66.3636 21.7722C66.2401 21.7906 66.1037 21.8048 65.9544 21.8147C65.8032 21.82 65.1598 21.8225 64.599 21.8222C64.0382 21.8219 63.4908 21.8206 62.9568 21.8184L62.0495 21.8147C61.9817 21.8133 61.7642 21.8076 61.3971 21.7976C61.03 21.7877 60.6618 21.7821 60.2925 21.7806C60.2071 21.7803 60.1454 21.7895 60.1073 21.8083C60.0693 21.8271 60.0506 21.8575 60.0513 21.8996C60.0531 21.9269 60.0667 21.9531 60.0922 21.9783C60.1177 22.0034 60.1443 22.0169 60.1719 22.0186C60.2462 22.019 60.3345 22.0225 60.4368 22.0292C60.539 22.036 60.623 22.0438 60.6887 22.0526C60.9309 22.0849 61.0924 22.1649 61.1732 22.2928C61.2539 22.4206 61.2991 22.607 61.3088 22.8517C61.3253 23.0419 61.3354 23.3372 61.339 23.7378C61.3426 24.1383 61.344 24.88 61.3433 25.9626V28.5126Z" fill="#a6a6a6"/>
<path d="M74.6614 22.4437L76.5563 22.4776C77.2622 22.4982 77.7409 22.5804 77.9925 22.7242C78.244 22.868 78.374 23.0521 78.3822 23.2767L78.3994 23.4296C78.4077 23.5295 78.4213 23.5975 78.4404 23.6337C78.4594 23.6698 78.4859 23.6868 78.52 23.6847C78.5559 23.6843 78.5875 23.668 78.6148 23.6358C78.642 23.6036 78.6564 23.5575 78.6578 23.4977C78.66 23.3822 78.6686 23.1414 78.6837 22.7752C78.6987 22.409 78.7074 22.1001 78.7095 21.8486C78.7109 21.8044 78.7081 21.7654 78.7009 21.7318C78.6937 21.6981 78.6736 21.6804 78.6406 21.6787C78.6065 21.6794 78.5541 21.6864 78.4834 21.6999C78.4127 21.7134 78.3216 21.7289 78.21 21.7466C78.0904 21.7644 77.9419 21.7799 77.7642 21.7934C77.5866 21.8069 77.3734 21.814 77.1247 21.8147H71.4057C71.3077 21.815 71.1419 21.81 70.9083 21.7997C70.6747 21.7895 70.4443 21.7718 70.2171 21.7466C70.0147 21.7173 69.864 21.6826 69.7649 21.6425C69.6659 21.6025 69.5927 21.5805 69.5453 21.5766C69.5184 21.5827 69.4904 21.6174 69.4613 21.6808C69.4323 21.7442 69.4086 21.8001 69.3903 21.8486C69.3691 21.9563 69.3124 22.2127 69.2202 22.6179C69.1279 23.023 69.0755 23.288 69.063 23.4127C69.0651 23.4548 69.078 23.4853 69.1017 23.504C69.1254 23.5228 69.147 23.532 69.1663 23.5316C69.2008 23.5334 69.2309 23.5256 69.2568 23.5083C69.2826 23.4909 69.3042 23.4534 69.3214 23.3957C69.3433 23.3479 69.3684 23.2905 69.3967 23.2235C69.4251 23.1566 69.4804 23.061 69.5625 22.9366C69.6652 22.7698 69.8303 22.653 70.0578 22.586C70.2853 22.5191 70.6313 22.483 71.0956 22.4776L73.2833 22.4437V28.5126C73.2848 29.2157 73.2819 29.8369 73.2747 30.3763C73.2675 30.9157 73.2474 31.3371 73.2144 31.6406C73.1925 31.8549 73.1502 32.0298 73.0874 32.1655C73.0246 32.3011 72.9176 32.3869 72.7666 32.4226C72.6962 32.4403 72.6216 32.4559 72.5426 32.4694C72.4637 32.4828 72.389 32.4899 72.3187 32.4906C72.276 32.4917 72.2451 32.5023 72.2261 32.5225C72.2071 32.5427 72.1977 32.5661 72.1981 32.5926C72.1974 32.6348 72.2161 32.6652 72.2541 32.684C72.2921 32.7028 72.3538 32.712 72.4393 32.7116C72.6962 32.7095 73.0049 32.701 73.3652 32.6861C73.7255 32.6713 73.9394 32.6627 74.0068 32.6606C74.0711 32.6627 74.2914 32.6713 74.6679 32.6861C75.0443 32.701 75.4499 32.7095 75.8845 32.7116C75.9699 32.7109 76.0316 32.6996 76.0696 32.6777C76.1077 32.6557 76.1263 32.6274 76.1256 32.5926C76.127 32.5654 76.1198 32.5392 76.1041 32.514C76.0883 32.4889 76.0553 32.4754 76.0051 32.4736C75.929 32.4729 75.8227 32.4659 75.6863 32.4524C75.55 32.4389 75.4265 32.4234 75.316 32.4057C75.0913 32.3706 74.942 32.2877 74.8681 32.157C74.7942 32.0263 74.7483 31.8542 74.7303 31.6406C74.6973 31.3371 74.6772 30.9157 74.67 30.3763C74.6628 29.8369 74.66 29.2157 74.6614 28.5126V22.4437Z" fill="#a6a6a6"/>
<path d="M17.1836 5.71054C17.1833 4.62787 17.184 3.88624 17.1858 3.48567C17.1876 3.08512 17.1926 2.78977 17.2009 2.59957C17.2123 2.34847 17.254 2.16214 17.3258 2.04066C17.3975 1.91919 17.5339 1.83917 17.7349 1.80055C17.8196 1.78427 17.8913 1.77434 17.9502 1.77078C18.009 1.76725 18.0636 1.76583 18.1138 1.76653C18.1415 1.76477 18.168 1.75131 18.1935 1.72615C18.219 1.70102 18.2326 1.6748 18.2344 1.64751C18.2351 1.60538 18.2165 1.57498 18.1784 1.55619C18.1404 1.53743 18.0787 1.52821 17.9932 1.52855C17.7309 1.52997 17.4288 1.53562 17.0868 1.54553C16.7447 1.55545 16.5416 1.5611 16.4774 1.56251C16.407 1.5611 16.2032 1.55545 15.8659 1.54553C15.5285 1.53562 15.2213 1.52992 14.9443 1.52849C14.8589 1.52816 14.7971 1.53738 14.7591 1.55614C14.721 1.57494 14.7024 1.60538 14.7031 1.64751C14.7038 1.6748 14.7153 1.70102 14.7375 1.72615C14.7598 1.75131 14.7885 1.76477 14.8237 1.76653C14.8775 1.76654 14.9464 1.77083 15.0304 1.77932C15.1144 1.78783 15.2005 1.80054 15.2888 1.81753C15.4499 1.84907 15.5669 1.92626 15.6398 2.04915C15.7126 2.17204 15.7564 2.35556 15.7711 2.59957C15.7876 2.78977 15.7977 3.08512 15.8013 3.48567C15.8048 3.88624 15.8063 4.62787 15.8056 5.71054V8.26054C15.8063 8.96356 15.8005 9.58476 15.7883 10.1242C15.7761 10.6636 15.7532 11.085 15.7194 11.3885C15.6986 11.6021 15.6627 11.7742 15.6118 11.9049C15.5608 12.0356 15.4646 12.1185 15.3232 12.1535C15.2522 12.1713 15.1747 12.1868 15.0907 12.2003C15.0067 12.2138 14.9292 12.2208 14.8581 12.2215C14.8154 12.2233 14.7846 12.2368 14.7655 12.2619C14.7465 12.2871 14.7372 12.3133 14.7375 12.3405C14.7404 12.4227 14.8208 12.4623 14.9787 12.4595C15.2393 12.4574 15.5364 12.4489 15.8702 12.434C16.2039 12.4192 16.4063 12.4106 16.4774 12.4085C16.5337 12.4106 16.7526 12.4192 17.1341 12.434C17.5156 12.4489 17.9283 12.4574 18.3722 12.4595C18.4576 12.4588 18.5194 12.4475 18.5574 12.4256C18.5954 12.4036 18.6141 12.3753 18.6134 12.3405C18.6137 12.3133 18.6044 12.2871 18.5854 12.2619C18.5664 12.2368 18.5355 12.2233 18.4928 12.2215C18.4178 12.2208 18.3137 12.2138 18.1806 12.2003C18.0474 12.1868 17.9218 12.1713 17.8038 12.1535C17.5881 12.1185 17.4467 12.0356 17.3796 11.9049C17.3125 11.7742 17.2701 11.6021 17.2525 11.3885C17.2195 11.085 17.1994 10.6636 17.1922 10.1242C17.1851 9.58476 17.1822 8.96356 17.1836 8.26054V5.71054ZM37.8307 2.19157L39.7255 2.22553C40.4314 2.24608 40.9102 2.32827 41.1617 2.47206C41.4133 2.61586 41.5432 2.80002 41.5515 3.02455L41.5687 3.17753C41.5769 3.27741 41.5906 3.34545 41.6096 3.38156C41.6286 3.4177 41.6552 3.43468 41.6893 3.43255C41.7252 3.43221 41.7567 3.41591 41.784 3.38368C41.8113 3.35146 41.8257 3.30542 41.8271 3.24556C41.8292 3.13011 41.8378 2.88927 41.8529 2.52305C41.868 2.15686 41.8766 1.84798 41.8788 1.59652C41.8802 1.55226 41.8773 1.51334 41.8702 1.47968C41.863 1.44604 41.8429 1.42834 41.8099 1.42656C41.7758 1.42727 41.7234 1.43434 41.6527 1.44779C41.582 1.46126 41.4908 1.47683 41.3792 1.49453C41.2597 1.51226 41.1111 1.52784 40.9335 1.54128C40.7558 1.55475 40.5427 1.56187 40.294 1.56256H34.575C34.477 1.56293 34.3112 1.55793 34.0776 1.54765C33.844 1.5374 33.6135 1.5197 33.3864 1.49453C33.184 1.46515 33.0332 1.43046 32.9342 1.39042C32.8351 1.35042 32.7619 1.32843 32.7146 1.32452C32.6876 1.33056 32.6597 1.3653 32.6306 1.42868C32.6015 1.4921 32.5778 1.54801 32.5595 1.59652C32.5384 1.7042 32.4817 1.96062 32.3894 2.36577C32.2972 2.77094 32.2448 3.0359 32.2322 3.16055C32.2344 3.20271 32.2473 3.23317 32.271 3.25193C32.2947 3.27071 32.3162 3.27988 32.3356 3.27952C32.37 3.2813 32.4002 3.27353 32.426 3.25617C32.4519 3.23882 32.4734 3.20131 32.4906 3.14357C32.5125 3.09576 32.5376 3.03838 32.566 2.97144C32.5943 2.90451 32.6496 2.80885 32.7318 2.68452C32.8344 2.51772 32.9995 2.40089 33.227 2.33394C33.4546 2.26701 33.8005 2.23085 34.2649 2.22553L36.4526 2.19157V8.26054C36.454 8.96356 36.4512 9.58476 36.444 10.1242C36.4368 10.6636 36.4167 11.085 36.3837 11.3885C36.3618 11.6028 36.3194 11.7777 36.2566 11.9134C36.1938 12.049 36.0869 12.1348 35.9358 12.1705C35.8655 12.1882 35.7908 12.2038 35.7119 12.2173C35.6329 12.2307 35.5583 12.2378 35.4879 12.2385C35.4452 12.2396 35.4144 12.2502 35.3953 12.2704C35.3763 12.2906 35.367 12.314 35.3674 12.3405C35.3666 12.3827 35.3853 12.4131 35.4233 12.4319C35.4614 12.4507 35.5231 12.4599 35.6085 12.4595C35.8655 12.4574 36.1741 12.4489 36.5344 12.434C36.8947 12.4192 37.1086 12.4106 37.1761 12.4085C37.2403 12.4106 37.4607 12.4192 37.8371 12.434C38.2136 12.4489 38.6191 12.4574 39.0537 12.4595C39.1391 12.4588 39.2008 12.4475 39.2389 12.4256C39.2769 12.4036 39.2956 12.3753 39.2949 12.3405C39.2963 12.3133 39.2891 12.2871 39.2733 12.2619C39.2575 12.2368 39.2245 12.2233 39.1743 12.2215C39.0982 12.2208 38.992 12.2138 38.8556 12.2003C38.7192 12.1868 38.5958 12.1713 38.4853 12.1535C38.2606 12.1185 38.1113 12.0356 38.0374 11.9049C37.9635 11.7742 37.9175 11.6021 37.8996 11.3885C37.8666 11.085 37.8465 10.6636 37.8393 10.1242C37.8321 9.58476 37.8292 8.96356 37.8307 8.26054V2.19157ZM43.0138 6.9685C43.0101 7.85744 43.2146 8.73349 43.6275 9.59659C44.0404 10.4597 44.684 11.1783 45.5581 11.7525C46.4323 12.3266 47.5594 12.6246 48.9395 12.6465C50.7906 12.6026 52.2605 12.0232 53.3494 10.9083C54.4382 9.79335 54.9951 8.40647 55.0203 6.74755C54.9837 5.04898 54.4109 3.72437 53.302 2.77377C52.193 1.82321 50.7676 1.34012 49.0256 1.32452C47.6336 1.35108 46.494 1.66636 45.6066 2.27026C44.7193 2.87419 44.0645 3.60747 43.6422 4.47016C43.22 5.33286 43.0105 6.16564 43.0138 6.9685ZM44.5813 6.57754C44.6047 5.0054 45.0145 3.82743 45.8108 3.04365C46.6072 2.25989 47.6501 1.86817 48.9395 1.86852C50.1758 1.87208 51.2302 2.31976 52.1026 3.21154C52.975 4.10334 53.4308 5.41802 53.4699 7.15555C53.4445 8.53255 53.191 9.57518 52.7094 10.2835C52.2278 10.9918 51.6707 11.4679 51.0379 11.7115C50.4051 11.9552 49.8492 12.0685 49.3702 12.0515C47.9723 12.0338 46.8318 11.5422 45.9487 10.5768C45.0655 9.61133 44.6097 8.27825 44.5813 6.57754ZM58.0971 8.26054C58.0989 8.96356 58.0953 9.58476 58.0864 10.1242C58.0774 10.6636 58.0523 11.085 58.011 11.3885C57.9826 11.6021 57.9446 11.7742 57.8969 11.9049C57.8492 12.0356 57.7551 12.1185 57.6148 12.1535C57.5437 12.1713 57.4662 12.1868 57.3823 12.2003C57.2983 12.2138 57.2207 12.2208 57.1497 12.2215C57.107 12.2233 57.0761 12.2368 57.0571 12.2619C57.0381 12.2871 57.0288 12.3133 57.0291 12.3405C57.032 12.4227 57.1124 12.4623 57.2703 12.4595C57.5351 12.4574 57.8409 12.4489 58.1876 12.434C58.5342 12.4192 58.728 12.4106 58.769 12.4085C58.8249 12.4106 59.0403 12.4192 59.4149 12.434C59.7896 12.4489 60.1944 12.4574 60.6294 12.4595C60.7148 12.4588 60.7765 12.4475 60.8145 12.4256C60.8526 12.4036 60.8712 12.3753 60.8705 12.3405C60.8719 12.3133 60.8648 12.2871 60.849 12.2619C60.8332 12.2368 60.8002 12.2233 60.7499 12.2215C60.6746 12.2208 60.5712 12.2138 60.4399 12.2003C60.3085 12.1868 60.1879 12.1713 60.0781 12.1535C59.8528 12.1185 59.7006 12.0356 59.6216 11.9049C59.5427 11.7742 59.4939 11.6021 59.4752 11.3885C59.4422 11.0857 59.4221 10.6671 59.4149 10.1326C59.4077 9.59822 59.4049 8.97983 59.4063 8.27751V7.93754C59.4063 7.85538 59.4408 7.81569 59.5097 7.81852L60.8203 7.85253C60.8698 7.85184 60.9085 7.85748 60.9365 7.86951C60.9645 7.88156 60.9947 7.90425 61.027 7.93754C61.1985 8.14756 61.4325 8.45002 61.7289 8.84492C62.0253 9.23982 62.3368 9.64001 62.6634 10.0455C63.0854 10.5888 63.4558 11.0365 63.7745 11.3885C64.0932 11.7406 64.4118 12.0012 64.7305 12.1705C64.91 12.2718 65.1195 12.3455 65.3593 12.3915C65.599 12.4376 65.9292 12.4602 66.3498 12.4595H67.2972C67.4328 12.4599 67.5276 12.4507 67.5814 12.4319C67.6353 12.4131 67.6611 12.3827 67.6589 12.3405C67.6586 12.3133 67.6464 12.2871 67.6223 12.2619C67.5983 12.2368 67.5645 12.2233 67.5211 12.2215C67.4795 12.2226 67.4163 12.2205 67.3317 12.2152C67.247 12.2098 67.1321 12.195 66.9871 12.1705C66.8016 12.1574 66.5741 12.0859 66.3046 11.9559C66.035 11.8259 65.6999 11.5631 65.299 11.1675C64.8601 10.7131 64.377 10.1684 63.8499 9.53341C63.3227 8.89839 62.7492 8.19645 62.1294 7.42755C62.8249 6.83645 63.9303 6.27187 64.208 5.73389C64.4858 5.19592 64.6193 4.66114 64.6085 4.12953C64.5884 3.62556 64.4607 3.2055 64.2253 2.86939C63.9898 2.5333 63.7673 2.29605 63.5578 2.15756C63.1537 1.89336 62.7043 1.72049 62.2098 1.63902C61.7153 1.55758 61.2229 1.52077 60.7327 1.52855C60.46 1.52997 60.1054 1.53562 59.669 1.54553C59.2326 1.55545 58.9556 1.5611 58.8379 1.56251C58.7686 1.5611 58.5454 1.55545 58.1682 1.54553C57.791 1.53562 57.4171 1.52992 57.0464 1.52849C56.9609 1.52816 56.8992 1.53738 56.8612 1.55614C56.8231 1.57494 56.8045 1.60538 56.8052 1.64751C56.807 1.6748 56.8206 1.70102 56.8461 1.72615C56.8716 1.75131 56.8981 1.76477 56.9258 1.76653C57.0001 1.7669 57.0883 1.77042 57.1906 1.77715C57.2929 1.78389 57.3769 1.7917 57.4425 1.80055C57.6848 1.83278 57.8463 1.91281 57.927 2.04066C58.0078 2.16852 58.053 2.35486 58.0627 2.59957C58.0792 2.78977 58.0893 3.08512 58.0928 3.48567C58.0964 3.88624 58.0978 4.62787 58.0971 5.71054V8.26054ZM59.4063 2.29356C59.407 2.25142 59.4185 2.21672 59.4408 2.18945C59.463 2.16218 59.4917 2.1402 59.5269 2.12354C59.6119 2.10514 59.7562 2.08673 59.9597 2.0683C60.1632 2.0499 60.3806 2.03997 60.6121 2.03854C61.4296 2.04422 62.0684 2.29212 62.5285 2.78226C62.9886 3.27244 63.2226 3.97091 63.2305 4.87756C63.2247 5.43184 63.1372 5.89576 62.9678 6.2694C62.7984 6.64305 61.9629 6.91576 61.6988 7.08753C61.5157 7.20228 61.3263 7.27453 61.1303 7.30429C60.8033 7.38177 60.4925 7.33065 60.1772 7.27664C59.8578 7.2345 59.6353 7.18281 59.5097 7.12154C59.4752 7.09675 59.4493 7.06983 59.4321 7.04078C59.4149 7.01174 59.4063 6.97635 59.4063 6.93455V2.29356ZM71.3584 5.71054C71.358 4.62787 71.3588 3.88624 71.3606 3.48567C71.3623 3.08512 71.3674 2.78977 71.3756 2.59957C71.3871 2.34847 71.4287 2.16214 71.5005 2.04066C71.5723 1.91919 71.7086 1.83917 71.9096 1.80055C71.9943 1.78427 72.0661 1.77434 72.125 1.77078C72.1838 1.76725 72.2383 1.76583 72.2886 1.76653C72.3162 1.76477 72.3428 1.75131 72.3683 1.72615C72.3937 1.70102 72.4074 1.6748 72.4092 1.64751C72.4099 1.60538 72.3912 1.57498 72.3532 1.55619C72.3152 1.53743 72.2534 1.52821 72.168 1.52855C71.9057 1.52997 71.6035 1.53562 71.2615 1.54553C70.9195 1.55545 70.7164 1.5611 70.6521 1.56251C70.5818 1.5611 70.378 1.55545 70.0406 1.54553C69.7033 1.53562 69.3961 1.52992 69.119 1.52849C69.0336 1.52816 68.9719 1.53738 68.9338 1.55614C68.8958 1.57494 68.8771 1.60538 68.8779 1.64751C68.8786 1.6748 68.8901 1.70102 68.9123 1.72615C68.9346 1.75131 68.9633 1.76477 68.9984 1.76653C69.0523 1.76654 69.1212 1.77083 69.2052 1.77932C69.2891 1.78783 69.3753 1.80054 69.4635 1.81753C69.6247 1.84907 69.7417 1.92626 69.8145 2.04915C69.8874 2.17204 69.9312 2.35556 69.9459 2.59957C69.9624 2.78977 69.9724 3.08512 69.976 3.48567C69.9796 3.88624 69.981 4.62787 69.9803 5.71054V8.26054C69.981 8.96356 69.9753 9.58476 69.9631 10.1242C69.9509 10.6636 69.9279 11.085 69.8942 11.3885C69.8734 11.6021 69.8375 11.7742 69.7865 11.9049C69.7356 12.0356 69.6394 12.1185 69.498 12.1535C69.4269 12.1713 69.3494 12.1868 69.2654 12.2003C69.1815 12.2138 69.1039 12.2208 69.0329 12.2215C68.9902 12.2233 68.9593 12.2368 68.9403 12.2619C68.9213 12.2871 68.9119 12.3133 68.9123 12.3405C68.9152 12.4227 68.9956 12.4623 69.1535 12.4595C69.414 12.4574 69.7112 12.4489 70.0449 12.434C70.3787 12.4192 70.5811 12.4106 70.6521 12.4085C70.7085 12.4106 70.9274 12.4192 71.3089 12.434C71.6904 12.4489 72.1031 12.4574 72.547 12.4595C72.6324 12.4588 72.6941 12.4475 72.7322 12.4256C72.7702 12.4036 72.7889 12.3753 72.7881 12.3405C72.7885 12.3133 72.7792 12.2871 72.7602 12.2619C72.7411 12.2368 72.7103 12.2233 72.6676 12.2215C72.5926 12.2208 72.4885 12.2138 72.3553 12.2003C72.2222 12.1868 72.0966 12.1713 71.9785 12.1535C71.7628 12.1185 71.6214 12.0356 71.5543 11.9049C71.4872 11.7742 71.4449 11.6021 71.4273 11.3885C71.3943 11.085 71.3742 10.6636 71.367 10.1242C71.3598 9.58476 71.3569 8.96356 71.3584 8.26054V5.71054ZM76.2695 10.8615C76.1314 11.2313 75.9685 11.533 75.7808 11.7668C75.5931 12.0005 75.3311 12.1408 74.9948 12.1875C74.9299 12.1964 74.8531 12.2042 74.7645 12.2109C74.6758 12.2176 74.6033 12.2212 74.547 12.2215C74.5111 12.2222 74.4795 12.2336 74.4522 12.2555C74.425 12.2775 74.4106 12.3058 74.4092 12.3405C74.412 12.4227 74.5097 12.4623 74.702 12.4595C75.0275 12.4574 75.3412 12.4489 75.643 12.434C75.9448 12.4192 76.1422 12.4106 76.2351 12.4085C76.3446 12.4106 76.5477 12.4192 76.8445 12.434C77.1413 12.4489 77.3918 12.4574 77.596 12.4595C77.6656 12.4599 77.7201 12.4507 77.7596 12.4319C77.7991 12.4131 77.8192 12.3827 77.8199 12.3405C77.821 12.3058 77.8102 12.2775 77.7876 12.2555C77.765 12.2336 77.7241 12.2222 77.6649 12.2215H77.527C77.3925 12.2233 77.274 12.1943 77.1718 12.1344C77.0695 12.0745 77.0157 11.9732 77.0103 11.8305C77.011 11.7009 77.0311 11.5522 77.0706 11.3843C77.1101 11.2164 77.1646 11.0421 77.2342 10.8615L78.0955 8.54952C78.13 8.46735 78.1816 8.42772 78.2505 8.43055H81.7474C81.7887 8.42984 81.8181 8.43549 81.8357 8.44753C81.8533 8.45957 81.8698 8.48227 81.8852 8.51556L83.2461 11.8305C83.2909 11.9488 83.2916 12.0395 83.2482 12.1025C83.2048 12.1655 83.1581 12.2052 83.1083 12.2215C83.0738 12.2364 83.048 12.2492 83.0308 12.2598C83.0135 12.2704 83.0049 12.2916 83.0049 12.3235C83.0089 12.3639 83.0612 12.3894 83.1621 12.4C83.2629 12.4107 83.3885 12.4192 83.5389 12.4256C84.0844 12.4418 84.5868 12.4517 85.0462 12.4553C85.5055 12.4588 85.8012 12.4602 85.9333 12.4595C86.023 12.4599 86.102 12.4507 86.1702 12.4319C86.2383 12.4131 86.2742 12.3827 86.2778 12.3405C86.2753 12.2984 86.2545 12.2679 86.2154 12.2492C86.1762 12.2304 86.1339 12.2212 86.0883 12.2215C86.0094 12.2222 85.9175 12.2166 85.8127 12.2045C85.7079 12.1925 85.5988 12.1698 85.4855 12.1365C85.3229 12.1068 85.1355 11.992 84.9234 11.7923C84.7113 11.5926 84.468 11.1803 84.1935 10.5556C83.9514 9.98353 83.6442 9.24695 83.2719 8.34581C82.8996 7.44469 82.5192 6.52163 82.1307 5.57666C81.7422 4.63171 81.4027 3.80746 81.1122 3.10395C80.8217 2.40045 80.6372 1.96036 80.5588 1.78357C80.4856 1.62031 80.4253 1.49207 80.3779 1.39891C80.3306 1.30577 80.2703 1.25833 80.1971 1.25655C80.1486 1.25019 80.0991 1.28418 80.0485 1.35853C79.9979 1.43292 79.9268 1.58591 79.8353 1.81753L76.2695 10.8615ZM78.4572 7.83555C78.4056 7.83555 78.3883 7.80151 78.4056 7.73351L79.8181 3.77253C79.9042 3.55153 79.9903 3.55153 80.0765 3.77253L81.5751 7.73351C81.5848 7.76751 81.587 7.79304 81.5816 7.81003C81.5762 7.82703 81.5568 7.83555 81.5235 7.83555H78.4572ZM92.1753 12.6465C92.5977 12.6508 93.0233 12.6168 93.4522 12.5445C93.881 12.4723 94.2593 12.3363 94.5869 12.1365C95.1206 11.782 95.4916 11.3903 95.7001 10.9614C95.9086 10.5325 96.0084 10.1026 95.9994 9.67153C96.0113 9.06096 95.8282 8.48013 95.4504 7.92905C95.0725 7.37797 94.4286 6.7971 93.5189 6.18652L93.0883 5.89754C92.3508 5.4141 91.8362 4.99546 91.5444 4.64164C91.2526 4.28784 91.1127 3.89048 91.1245 3.44953C91.1396 2.93812 91.3377 2.54999 91.7188 2.28507C92.0999 2.02017 92.5736 1.88698 93.1399 1.88556C93.8107 1.90468 94.2951 2.00242 94.5934 2.17878C94.8916 2.35517 95.0617 2.49545 95.1037 2.59957C95.1496 2.68564 95.1956 2.80248 95.2415 2.95016C95.2874 3.09786 95.3162 3.21897 95.3276 3.31353C95.3344 3.37339 95.3466 3.41943 95.3643 3.45165C95.3818 3.4839 95.4156 3.50018 95.4654 3.50052C95.5157 3.50088 95.5487 3.47467 95.5645 3.42188C95.5803 3.36913 95.5874 3.28768 95.586 3.17753C95.5889 2.68666 95.6004 2.31694 95.6205 2.0683C95.6406 1.81969 95.652 1.67941 95.6549 1.64751C95.656 1.60609 95.6452 1.5785 95.6226 1.56468C95.6 1.55088 95.5591 1.54448 95.4999 1.54553C95.4432 1.54695 95.3757 1.54413 95.2975 1.53704C95.2192 1.52997 95.1087 1.51014 94.9659 1.47755C94.78 1.43329 94.5489 1.39431 94.2725 1.36066C93.9962 1.32702 93.7048 1.30932 93.3983 1.30754C92.3842 1.31464 91.5745 1.55547 90.9695 2.03005C90.3644 2.50463 90.0543 3.17048 90.0393 4.02755C90.0274 4.51984 90.1846 5.01 90.5108 5.49803C90.837 5.98608 91.4034 6.52726 92.2097 7.12154L92.8988 7.63153C93.5663 8.10292 94.0529 8.51587 94.3587 8.87039C94.6644 9.22492 94.8152 9.65066 94.8109 10.1476C94.8098 10.7036 94.6181 11.1598 94.2359 11.5161C93.8537 11.8723 93.2874 12.0565 92.537 12.0685C92.0077 12.0749 91.5117 11.9687 91.0491 11.7498C90.5865 11.5309 90.2844 11.1611 90.1426 10.6405C90.1179 10.5367 90.1028 10.4383 90.0974 10.3452C90.092 10.252 90.0899 10.1748 90.0909 10.1135C90.0881 9.99738 90.0421 9.9407 89.9531 9.94353C89.8699 9.94636 89.8297 10.0257 89.8326 10.1815C89.8214 10.3048 89.8049 10.5003 89.783 10.768C89.7612 11.0358 89.749 11.3503 89.7464 11.7115C89.7428 11.8989 89.7543 12.0257 89.7809 12.0919C89.8074 12.1581 89.8706 12.2127 89.9704 12.2555C90.2894 12.3983 90.6461 12.4995 91.0405 12.5594C91.4349 12.6192 91.8132 12.6483 92.1753 12.6465Z" fill="#a6a6a6"/>
<path d="M26.8903 12.7478C27.344 12.7493 27.7948 12.7251 28.2427 12.6754C28.6905 12.6256 29.0601 12.5418 29.3512 12.4238C29.4622 12.3783 29.5383 12.3286 29.5795 12.2746C29.6208 12.2206 29.6582 12.1282 29.6918 11.9974C29.7662 11.71 29.8378 11.3511 29.9065 10.9208C29.9752 10.4906 30.0119 10.2297 30.0168 10.1384C30.0155 10.0851 30.0026 10.0382 29.9781 9.99769C29.9536 9.95718 29.9252 9.93588 29.893 9.93374C29.8485 9.93268 29.8175 9.94762 29.8001 9.97853C29.7827 10.0094 29.7672 10.0627 29.7537 10.1384C29.7298 10.288 29.673 10.4834 29.5834 10.7247C29.4938 10.966 29.3751 11.1741 29.2274 11.3493C28.9607 11.6389 28.6467 11.8272 28.2852 11.9143C27.9237 12.0013 27.4897 12.0404 26.9832 12.0315C25.5057 11.9864 24.3243 11.4584 23.4388 10.4475C22.5534 9.43667 22.0994 8.21365 22.0768 6.77852C22.0649 6.04302 22.1429 5.35654 22.3109 4.71909C22.4789 4.08166 22.8084 3.50608 23.2995 2.99228C23.5278 2.73397 23.8799 2.50445 24.3559 2.30368C24.8318 2.10294 25.5012 1.99705 26.3641 1.98602C26.9738 1.99172 27.511 2.06988 27.9757 2.22053C28.4403 2.37119 28.7957 2.56021 29.0417 2.7876C29.2213 2.94715 29.3612 3.15677 29.4615 3.4165C29.5618 3.67625 29.6127 3.94985 29.6144 4.23729C29.6131 4.33963 29.6195 4.4164 29.6337 4.46755C29.6479 4.51872 29.6776 4.5443 29.7227 4.54429C29.7621 4.54536 29.7956 4.52189 29.8233 4.47392C29.851 4.42596 29.8691 4.34709 29.8775 4.23729C29.8846 4.11579 29.8897 3.9026 29.893 3.59773C29.8962 3.29288 29.9013 3.01145 29.9084 2.75348C29.9245 2.49554 29.9387 2.30797 29.951 2.1907C29.9632 2.07345 29.9697 1.98818 29.9703 1.93487C29.9719 1.89117 29.961 1.85492 29.9375 1.82613C29.9139 1.79736 29.8681 1.78242 29.8001 1.78134C29.5776 1.77104 29.3532 1.74479 29.1268 1.70249C28.9004 1.66022 28.6606 1.61257 28.4071 1.55963C28.0672 1.5003 27.7216 1.45699 27.3701 1.42961C27.0186 1.40227 26.7039 1.38873 26.426 1.38907C25.3903 1.39939 24.5403 1.54935 23.8761 1.83892C23.2118 2.12852 22.6791 2.49593 22.278 2.94113C21.686 3.61233 21.2797 4.3123 21.0591 5.04105C20.8386 5.76981 20.7341 6.38877 20.7457 6.89793C20.7316 7.60252 20.8412 8.33378 21.0746 9.09167C21.3081 9.84956 21.7505 10.5509 22.4018 11.1958C22.9284 11.7082 23.5546 12.0948 24.2804 12.3556C25.0062 12.6164 25.8762 12.7471 26.8903 12.7478Z" fill="#a6a6a6"/>
<path d="M85.5487 3.76257L85.5072 3.71048C86.0134 3.35894 86.3424 3.0063 86.4943 2.65258C86.6461 2.29886 86.7221 1.9983 86.7221 1.75092C86.7221 1.58165 86.6691 1.49704 86.5633 1.49704C86.5449 1.49704 86.5035 1.5057 86.4391 1.52305C86.3746 1.54042 86.3171 1.54912 86.2665 1.54912C85.5499 1.56609 85.4305 0.686465 85.7316 0.390259C85.8719 0.247043 86.0617 0.175465 86.301 0.175456C86.5863 0.175465 86.8336 0.290472 87.043 0.520491C87.2524 0.750527 87.3571 1.07168 87.3571 1.48398C87.3571 1.94404 87.2236 2.35527 86.9567 2.71767C86.6898 3.08008 86.2205 3.42838 85.5487 3.76257Z" fill="#a6a6a6"/>
<path d="M3.81531 2.0153C3.68723 1.68978 3.58102 1.40759 3.49668 1.16877C3.41234 0.929974 3.3686 0.75518 3.36548 0.644357C3.36305 0.585187 3.37625 0.525975 3.40505 0.466778C3.43386 0.407599 3.49286 0.35669 3.58206 0.314016C3.66259 0.281685 3.76394 0.259655 3.88612 0.247948C4.00829 0.236258 4.11798 0.230726 4.21517 0.231403C4.32901 0.234168 4.38454 0.195658 4.38177 0.115811C4.38177 0.0359909 4.23183 -0.00258148 3.93194 0.000164799C3.60081 0.00221559 3.28426 0.010491 2.98229 0.0249268C2.68031 0.0393893 2.48038 0.0476379 2.38251 0.0496887C2.2638 0.0476379 2.01389 0.0393982 1.63278 0.0249268C1.25166 0.010491 0.851809 0.00223342 0.433213 0.000164799C0.298541 -0.00118159 0.19302 0.00572278 0.11666 0.0208451C0.0403005 0.0360032 0.00142153 0.0676534 3.46443e-05 0.115811C-0.000658798 0.149551 0.00905762 0.177041 0.0291945 0.198369C0.0493223 0.219715 0.0840266 0.230726 0.133315 0.231403C0.187809 0.230039 0.27459 0.232801 0.393637 0.239676C0.512693 0.246568 0.636955 0.265827 0.766421 0.297471C1.04862 0.364934 1.27562 0.481951 1.44743 0.648493C1.61924 0.815053 1.79209 1.12198 1.96599 1.56931L6.04784 11.6943C6.19882 12.0839 6.31336 12.3537 6.39146 12.5037C6.46956 12.6537 6.55494 12.7253 6.64762 12.7185C6.72051 12.7281 6.79964 12.6428 6.88504 12.4625C6.97041 12.2821 7.12452 11.949 7.34736 11.4632C7.54104 11.0513 7.82011 10.4174 8.18457 9.5616C8.54901 8.70581 8.98635 7.6714 9.4966 6.45841C9.93462 5.41198 10.3289 4.46982 10.6795 3.6319C11.0301 2.794 11.2578 2.24414 11.3626 1.98226C11.584 1.43549 11.7659 1.05487 11.9082 0.840493C12.0505 0.626123 12.1741 0.489143 12.2789 0.429608C12.4434 0.334647 12.6017 0.276888 12.7537 0.25622C12.9057 0.235587 13.0141 0.227284 13.0786 0.231403C13.2119 0.234168 13.2785 0.195658 13.2786 0.115811C13.2758 0.0359909 13.1813 -0.00258148 12.9953 0.000164799C12.736 0.00221559 12.4716 0.010491 12.2019 0.0249268C11.9322 0.0393893 11.7635 0.0476379 11.6958 0.0496887C11.582 0.0476379 11.3681 0.0393982 11.0544 0.0249268C10.7406 0.010491 10.4102 0.00223342 10.0631 0.000164799C9.93115 -0.00049502 9.83674 0.00910777 9.77983 0.0290629C9.72289 0.0490358 9.69512 0.0834478 9.69652 0.132301C9.69789 0.172577 9.71595 0.199435 9.75067 0.212846C9.78537 0.226274 9.8284 0.232447 9.87978 0.231403C9.97383 0.230039 10.0773 0.232801 10.1901 0.239676C10.3029 0.246568 10.4105 0.265827 10.5129 0.297471C10.5948 0.341189 10.6517 0.398317 10.6837 0.468846C10.7156 0.539402 10.7308 0.608921 10.7295 0.677391C10.7284 0.753101 10.7138 0.845335 10.6857 0.954072C10.6576 1.06282 10.6222 1.17979 10.5795 1.30504C10.438 1.75163 10.1472 2.55606 9.70701 3.71838C9.26684 4.8807 8.79333 6.09991 8.28653 7.37602C7.77971 8.65213 7.35559 9.68416 7.01415 10.4721L3.81531 2.0153Z" fill="#a6a6a6"/>
</svg>
