<svg width="87" height="20" viewBox="0 0 87 20" fill="none" xmlns="http://www.w3.org/2000/svg">
<path d="M17.1557 16.8096C17.1557 18.1578 16.0143 19.2521 15.1548 19.2521H5.43554L17.6603 0H1.31539V3.19039H2.15403C2.15403 1.8422 3.03792 0.751286 3.90092 0.751286H12.2978L0 20H17.7334V16.8096H17.1557Z" fill="#a6a6a6"/>
<path d="M38.3655 18.4425L28.9072 0L20.2389 18.4563C20.0858 18.8611 19.2506 19.3722 18.0674 19.3722V19.9966H22.6817V19.3722C21.8257 19.3722 20.907 18.9537 21.1297 18.4528L23.2141 13.9966H31.2109L33.4832 18.4425C33.7407 18.8919 32.5889 19.3756 31.4023 19.3756V20H41.0067L41.0102 19.3756C39.5556 19.3722 38.6682 18.9262 38.3655 18.4425ZM23.5621 13.2762L27.0211 5.79074L30.8838 13.2762H23.5621Z" fill="#a6a6a6"/>
<path d="M42.1098 0.77187C43.5157 0.77187 44.6779 1.12864 44.6779 1.56089C44.6779 4.99142 44.671 18.422 44.6779 18.422C44.6779 18.8816 43.5331 19.3928 42.1237 19.3928L42.1202 19.9966H51.5228V19.434C50.1274 19.434 48.9964 18.8851 48.9964 18.4254V0.603774H51.7073C54.3171 0.603774 56.4329 2.74099 56.4329 5.16638C56.4329 7.59177 54.3171 9.56089 51.7038 9.56089H49.8281C49.8281 9.56089 56.1824 19.0463 56.1928 19.0463C56.4433 19.4065 56.5686 20 56.5686 20H63.4205V19.4374C62.1016 19.4374 61.4126 18.8988 61.0298 18.4254L54.9122 10.5557C57.8492 10.3636 60.1216 8.02401 60.1216 5.24528C60.1216 2.34305 57.5917 0 54.4703 0H42.1098V0.77187Z" fill="#a6a6a6"/>
<path d="M84.3553 18.4425L74.897 0L66.2287 18.4563C66.0756 18.8611 65.2439 19.3928 64.0573 19.3928V19.9966H68.6716V19.434C67.8155 19.434 66.9003 18.9537 67.1196 18.4528L69.204 13.9966H77.2007L79.4731 18.4425C79.734 18.8919 78.5787 19.3962 77.3921 19.3962V20H86.9965L87 19.4168C85.5454 19.4168 84.6581 18.9262 84.3553 18.4425ZM69.5485 13.2762L73.0075 5.79074L76.8701 13.2762H69.5485Z" fill="#a6a6a6"/>
</svg>
