<svg width="1366" height="650" viewBox="0 0 1366 650" fill="none" xmlns="http://www.w3.org/2000/svg">
<path d="M1366 305C1364.61 305.007 1363.22 305.032 1361.83 305.068H1361.82C1355.65 305.238 1349.54 305.732 1343.94 306.592C1329.22 308.853 1312.07 311.558 1298.18 316.991L1298.18 316.998C1297.87 317.105 1297.57 317.227 1297.28 317.348C1273.91 326.787 1249.21 332.353 1227.74 345.807C1206.58 359.059 1187.02 373.114 1165.52 385.792C1137.6 402.268 1113.06 420.207 1090.16 443.041C1070.93 462.21 1055.39 493.989 1047.9 519.28C1046.96 522.484 1046.11 525.705 1045.35 528.926C1038.83 556.607 1038.91 585.007 1039.03 613.449C1039.09 626.045 1041.93 637.919 1043.79 650H1366V305Z" fill="#ffffff" fill-opacity=".05"/>
<path d="M448 -6.21875e-06C431.698 19.804 416.312 36.9825 414.013 39.2022C402.063 50.7482 389.2 62.6133 374.171 69.9209C362.401 75.6506 350.291 81.3247 338.156 86.1977C315.545 95.2846 292.992 103.962 270.804 114.142C246.216 125.431 223.948 141.968 201.586 157.124C188.706 165.854 175.771 174.501 163.45 184.011C152.137 192.723 139.406 199.323 128.218 208.174C120.442 214.313 111.168 217.66 102.05 221.427C79.2893 230.826 55.0622 234.336 30.6479 236.209C19.9593 237.034 10.0299 237.26 0 236.666V-6.21875e-06H448Z" fill="#ffffff" fill-opacity=".05"/>
</svg>
