<svg width="104" height="18" viewBox="0 0 104 18" fill="none" xmlns="http://www.w3.org/2000/svg">
<g opacity="0.7">
<rect x="72.0001" width="31.8462" height="18" fill="#F5F5F5"/>
<path d="M90.3422 13.9006H84.8907V4.10342H90.3422V13.9006Z" fill="#6C6BBD"/>
<path d="M85.2396 9.00122C85.2396 7.01383 86.1702 5.24351 87.6192 4.10265C86.5595 3.26839 85.2222 2.77045 83.7688 2.77045C80.328 2.77045 77.5388 5.56002 77.5388 9.00122C77.5388 12.4424 80.328 15.232 83.7688 15.232C85.2222 15.232 86.5595 14.7341 87.6192 13.8998C86.1702 12.7589 85.2396 10.9886 85.2396 9.00122Z" fill="#EB001B"/>
<path d="M97.6941 9.00122C97.6941 12.4424 94.9049 15.232 91.4641 15.232C90.0107 15.232 88.6733 14.7341 87.6133 13.8998C89.0627 12.7589 89.9932 10.9886 89.9932 9.00122C89.9932 7.01383 89.0627 5.24351 87.6133 4.10265C88.6733 3.26839 90.0107 2.77045 91.4641 2.77045C94.9049 2.77045 97.6941 5.56002 97.6941 9.00122Z" fill="#0099DF"/>
<rect x="36.0007" width="31.8462" height="18" fill="#F5F5F5"/>
<path d="M36 15.9231H67.8462V18H36V15.9231Z" fill="#F7B600"/>
<path d="M36 2.07715H67.8462V0.000225066H36V2.07715Z" fill="#1A1F71"/>
<path d="M51.4725 5.66127L50.0387 12.3646H48.3044L49.7384 5.66127H51.4725ZM58.7684 9.9898L59.6814 7.47236L60.2065 9.9898H58.7684ZM60.7042 12.3646H62.3077L60.9068 5.66127H59.4275C59.0941 5.66127 58.8132 5.8546 58.6888 6.15267L56.0866 12.3646H57.9078L58.2695 11.3636H60.494L60.7042 12.3646ZM56.1769 10.1761C56.1845 8.40708 53.7315 8.30899 53.7477 7.51861C53.7531 7.27838 53.9821 7.02252 54.483 6.95712C54.7314 6.92507 55.4166 6.89928 56.1934 7.25715L56.4972 5.83506C56.0799 5.6842 55.5431 5.53882 54.8751 5.53882C53.1607 5.53882 51.9546 6.44944 51.945 7.75454C51.934 8.71962 52.8065 9.25765 53.4624 9.57904C54.1388 9.9076 54.3655 10.1184 54.3622 10.4119C54.3576 10.8616 53.8228 11.0607 53.3251 11.0682C52.4525 11.0818 51.9471 10.8324 51.544 10.6446L51.2293 12.1141C51.6351 12.2998 52.3828 12.4615 53.1572 12.4698C54.9798 12.4698 56.1715 11.5698 56.1769 10.1761ZM48.9945 5.66127L46.1846 12.3646H44.3516L42.9688 7.01483C42.885 6.68589 42.8119 6.56499 42.557 6.42599C42.14 6.19944 41.4515 5.98761 40.8462 5.85577L40.8871 5.66127H43.8381C44.2139 5.66127 44.5521 5.9114 44.6381 6.34431L45.3686 10.2236L47.1726 5.66127H48.9945Z" fill="#1A1F71"/>
<rect width="31.8462" height="18" fill="#F5F5F5"/>
<path d="M25.506 12.855V12.6134H25.443L25.3701 12.7793L25.2976 12.6134H25.2342V12.855H25.279V12.6728L25.3471 12.8301H25.3935L25.4616 12.6724V12.855H25.506ZM25.1063 12.855V12.6546H25.1871V12.6138H24.9811V12.6546H25.0619V12.855H25.1063Z" fill="#F79410"/>
<path d="M18.3434 13.8951H12.892V4.09793H18.3434V13.8951Z" fill="#FF5F00"/>
<path d="M13.2412 8.9953C13.2412 7.00791 14.1717 5.23759 15.6208 4.09673C14.5611 3.26247 13.2238 2.76453 11.7704 2.76453C8.32957 2.76453 5.54041 5.5541 5.54041 8.9953C5.54041 12.4365 8.32957 15.2261 11.7704 15.2261C13.2238 15.2261 14.5611 14.7281 15.6208 13.8939C14.1717 12.753 13.2412 10.9827 13.2412 8.9953Z" fill="#EB001B"/>
<path d="M25.6957 8.9953C25.6957 12.4365 22.9065 15.2261 19.4657 15.2261C18.0123 15.2261 16.6749 14.7281 15.6149 13.8939C17.0643 12.753 17.9948 10.9827 17.9948 8.9953C17.9948 7.00791 17.0643 5.23759 15.6149 4.09673C16.6749 3.26247 18.0123 2.76453 19.4657 2.76453C22.9065 2.76453 25.6957 5.5541 25.6957 8.9953Z" fill="#F79E1B"/>
</g>
</svg>
