<svg width="67" height="18" viewBox="0 0 67 18" fill="none" xmlns="http://www.w3.org/2000/svg">
<path d="M45.0735 0.000366211H39.9309C39.6283 0.000366211 39.3258 0.302876 39.1746 0.605386L37.057 13.9158C37.057 14.2183 37.2083 14.3696 37.5108 14.3696H40.2334C40.5359 14.3696 40.6871 14.2183 40.6871 13.9158L41.2921 10.1345C41.2921 9.83195 41.5947 9.52944 42.0484 9.52944H43.7122C47.1911 9.52944 49.1574 7.86563 49.6112 4.53802C49.9137 3.17672 49.6112 1.96668 49.0062 1.21041C48.0986 0.454133 46.7373 0.000366211 45.0735 0.000366211ZM45.6785 4.99179C45.376 6.80685 44.0147 6.80685 42.6534 6.80685H41.7459L42.3509 3.32798C42.3509 3.17672 42.5022 3.02547 42.8047 3.02547H43.1072C44.0147 3.02547 44.9223 3.02547 45.376 3.63049C45.6785 3.78174 45.6785 4.23551 45.6785 4.99179Z" fill="#139AD6"/>
<path d="M8.01652 9.15527e-05H2.87385C2.57134 9.15527e-05 2.26883 0.302601 2.11757 0.605111L0 13.9156C0 14.2181 0.151257 14.3693 0.453767 14.3693H2.87385C3.17636 14.3693 3.47887 14.0668 3.63012 13.7643L4.23514 10.1342C4.23514 9.83167 4.53765 9.52917 4.99142 9.52917H6.65522C10.1341 9.52917 12.1004 7.86536 12.5542 4.53774C12.8567 3.17645 12.5542 1.96641 11.9492 1.21013C11.0416 0.453859 9.83158 9.15527e-05 8.01652 9.15527e-05ZM8.62154 4.99151C8.31903 6.80657 6.95774 6.80657 5.59644 6.80657H4.84016L5.44518 3.32771C5.44518 3.17645 5.59644 3.02519 5.89895 3.02519H6.20146C7.10899 3.02519 8.01652 3.02519 8.47029 3.63021C8.62154 3.78147 8.7728 4.23524 8.62154 4.99151Z" fill="#263B80"/>
<path d="M23.5946 4.83986H21.1745C21.0232 4.83986 20.7207 4.99112 20.7207 5.14237L20.5694 5.89865L20.4182 5.59614C19.8132 4.83986 18.7544 4.53735 17.5443 4.53735C14.8218 4.53735 12.4017 6.65493 11.9479 9.52877C11.6454 11.0413 12.0992 12.4026 12.8554 13.3102C13.6117 14.2177 14.6705 14.5202 16.0318 14.5202C18.3006 14.5202 19.5107 13.1589 19.5107 13.1589L19.3594 13.9152C19.3594 14.2177 19.5107 14.3689 19.8132 14.3689H22.082C22.3845 14.3689 22.687 14.0664 22.8383 13.7639L24.1996 5.29363C24.0483 5.14237 23.7458 4.83986 23.5946 4.83986ZM20.1157 9.68003C19.8132 11.0413 18.7544 12.1001 17.2418 12.1001C16.4856 12.1001 15.8805 11.7976 15.578 11.4951C15.2755 11.0413 15.1243 10.4363 15.1243 9.68003C15.2755 8.31873 16.4856 7.25995 17.8469 7.25995C18.6031 7.25995 19.0569 7.56245 19.5107 7.86496C19.9644 8.31873 20.1157 9.07501 20.1157 9.68003Z" fill="#263B80"/>
<path d="M60.502 4.84078H58.0819C57.9307 4.84078 57.6282 4.99203 57.6282 5.14329L57.4769 5.89956L57.3257 5.59706C56.7206 4.84078 55.6619 4.53827 54.4518 4.53827C51.7292 4.53827 49.3091 6.65584 48.8554 9.52969C48.5529 11.0422 49.0066 12.4035 49.7629 13.3111C50.5192 14.2186 51.578 14.5211 52.9393 14.5211C55.2081 14.5211 56.4181 13.1598 56.4181 13.1598L56.2669 13.9161C56.2669 14.2186 56.4181 14.3699 56.7206 14.3699H58.9895C59.292 14.3699 59.5945 14.0673 59.7457 13.7648L61.107 5.29454C60.9558 5.14329 60.8045 4.84078 60.502 4.84078ZM57.0231 9.68094C56.7206 11.0422 55.6619 12.101 54.1493 12.101C53.393 12.101 52.788 11.7985 52.4855 11.496C52.183 11.0422 52.0317 10.4372 52.0317 9.68094C52.183 8.31965 53.393 7.26086 54.7543 7.26086C55.5106 7.26086 55.9644 7.56337 56.4181 7.86588C57.0232 8.31964 57.1744 9.07592 57.0231 9.68094Z" fill="#139AD6"/>
<path d="M36.7536 4.84097H34.1822C33.8797 4.84097 33.7285 4.99223 33.5772 5.14348L30.2496 10.2862L28.7371 5.44599C28.5858 5.14348 28.4345 4.99223 27.9808 4.99223H25.5607C25.2582 4.99223 25.1069 5.29474 25.1069 5.59725L27.8295 13.6138L25.2582 17.2439C25.1069 17.5464 25.2582 18.0002 25.5607 18.0002H27.9808C28.2833 18.0002 28.4345 17.8489 28.5858 17.6977L36.9048 5.7485C37.3586 5.29474 37.0561 4.84097 36.7536 4.84097Z" fill="#263B80"/>
<path d="M63.3746 0.453768L61.2571 14.0667C61.2571 14.3692 61.4083 14.5205 61.7108 14.5205H63.8284C64.1309 14.5205 64.4334 14.218 64.5847 13.9155L66.7023 0.605021C66.7023 0.302511 66.551 0.151257 66.2485 0.151257H63.8284C63.6772 1.74344e-06 63.5259 0.151258 63.3746 0.453768Z" fill="#139AD6"/>
</svg>
